<?xml version="1.0" encoding="UTF-8" standalone="no"?>
<svg
   width="24"
   height="24"
   viewBox="0 0 24 24"
   fill="none"
   stroke="#ffffff"
   stroke-width="2"
   stroke-linecap="round"
   stroke-linejoin="round"
   class="lucide lucide-palette-icon lucide-palette"
   version="1.1"
   id="svg4"
   sodipodi:docname="palette.svg"
   inkscape:version="1.4.3 (0d15f75042, 2025-12-25)"
   xmlns:inkscape="http://www.inkscape.org/namespaces/inkscape"
   xmlns:sodipodi="http://sodipodi.sourceforge.net/DTD/sodipodi-0.dtd"
   xmlns="http://www.w3.org/2000/svg"
   xmlns:svg="http://www.w3.org/2000/svg">
  <defs
     id="defs4" />
  <sodipodi:namedview
     id="namedview4"
     pagecolor="#505050"
     bordercolor="#eeeeee"
     borderopacity="1"
     inkscape:showpageshadow="0"
     inkscape:pageopacity="0"
     inkscape:pagecheckerboard="0"
     inkscape:deskcolor="#505050"
     inkscape:zoom="42.666667"
     inkscape:cx="14.613281"
     inkscape:cy="8.7421875"
     inkscape:window-width="1920"
     inkscape:window-height="1080"
     inkscape:window-x="0"
     inkscape:window-y="0"
     inkscape:window-maximized="1"
     inkscape:current-layer="svg4" />
  <path
     d="M12 22a1 1 0 0 1 0-20 10 9 0 0 1 10 9 5 5 0 0 1-5 5h-2.25a1.75 1.75 0 0 0-1.4 2.8l.3.4a1.75 1.75 0 0 1-1.4 2.8z"
     id="path1" />
  <path
     d="M 13.5,5 C 12.683418,5 12,5.6834175 12,6.5 12,7.3165825 12.683418,8 13.5,8 14.316582,8 15,7.3165825 15,6.5 15,5.6834175 14.316582,5 13.5,5 Z"
     style="baseline-shift:baseline;display:inline;overflow:visible;vector-effect:none;fill:#ffffff;stroke:none;stroke-linecap:butt;stroke-linejoin:miter;enable-background:accumulate;stop-color:#000000;stop-opacity:1"
     id="path16" />
  <path
     d="M 17.5,9 C 16.683418,9 16,9.6834175 16,10.5 16,11.316582 16.683418,12 17.5,12 18.316582,12 19,11.316582 19,10.5 19,9.6834175 18.316582,9 17.5,9 Z"
     style="baseline-shift:baseline;display:inline;overflow:visible;vector-effect:none;fill:#ffffff;stroke:none;stroke-linecap:butt;stroke-linejoin:miter;enable-background:accumulate;stop-color:#000000;stop-opacity:1"
     id="path17" />
  <path
     d="M 6.5,11 C 5.6834175,11 5,11.683418 5,12.5 5,13.316582 5.6834175,14 6.5,14 7.3165825,14 8,13.316582 8,12.5 8,11.683418 7.3165825,11 6.5,11 Z"
     style="baseline-shift:baseline;display:inline;overflow:visible;vector-effect:none;fill:#ffffff;stroke:none;stroke-linecap:butt;stroke-linejoin:miter;enable-background:accumulate;stop-color:#000000;stop-opacity:1"
     id="path14" />
  <path
     d="M 8.5,6 C 7.6834175,6 7,6.6834175 7,7.5 7,8.3165825 7.6834175,9 8.5,9 9.3165825,9 10,8.3165825 10,7.5 10,6.6834175 9.3165825,6 8.5,6 Z"
     style="baseline-shift:baseline;display:inline;overflow:visible;vector-effect:none;fill:#ffffff;stroke:none;stroke-linecap:butt;stroke-linejoin:miter;enable-background:accumulate;stop-color:#000000;stop-opacity:1"
     id="path15" />
</svg>
