<?xml version="1.0" encoding="UTF-8" standalone="no"?>
<!-- Created with Inkscape (http://www.inkscape.org/) -->

<svg
   width="135.46666mm"
   height="135.46666mm"
   viewBox="0 0 135.46666 135.46666"
   version="1.1"
   id="svg1"
   inkscape:version="1.4.2 (ebf0e940d0, 2025-05-08)"
   sodipodi:docname="RegularSawbladeMedium.svg"
   xml:space="preserve"
   xmlns:inkscape="http://www.inkscape.org/namespaces/inkscape"
   xmlns:sodipodi="http://sodipodi.sourceforge.net/DTD/sodipodi-0.dtd"
   xmlns="http://www.w3.org/2000/svg"
   xmlns:svg="http://www.w3.org/2000/svg"><sodipodi:namedview
     id="namedview1"
     pagecolor="#4d4d4d"
     bordercolor="#eeeeee"
     borderopacity="1"
     inkscape:showpageshadow="0"
     inkscape:pageopacity="0"
     inkscape:pagecheckerboard="false"
     inkscape:deskcolor="#181825"
     inkscape:document-units="px"
     inkscape:zoom="1.5214845"
     inkscape:cx="173.18612"
     inkscape:cy="179.75865"
     inkscape:window-width="1055"
     inkscape:window-height="1011"
     inkscape:window-x="0"
     inkscape:window-y="0"
     inkscape:window-maximized="1"
     inkscape:current-layer="layer1"
     showgrid="false" /><defs
     id="defs1"><inkscape:path-effect
       effect="copy_rotate"
       starting_point="76.515187,67.73333"
       origin="67.73333,67.73333"
       id="path-effect2"
       is_visible="true"
       lpeversion="1.2"
       lpesatellites=""
       method="normal"
       num_copies="12"
       starting_angle="0"
       rotation_angle="20"
       gap="-0.01"
       copies_to_360="true"
       mirror_copies="false"
       split_items="false"
       link_styles="false" /></defs><g
     inkscape:label="Calque 1"
     inkscape:groupmode="layer"
     id="layer1"><path
       id="path2"
       style="fill:#000000;stroke-width:9.10498;stroke-linejoin:round;paint-order:stroke fill markers"
       d="M 77.906026 9.8775329 L 59.833335 30.108391 A 38.445606 38.445606 0 0 0 57.222764 30.752143 L 47.615578 12.542165 L 42.079318 39.098857 A 38.445606 38.445606 0 0 0 40.14024 40.961823 L 22.715567 29.99529 L 31.198856 55.762409 A 38.445606 38.445606 0 0 0 30.451962 58.345238 L 9.8775329 57.559933 L 30.108391 75.633336 A 38.445606 38.445606 0 0 0 30.752143 78.243907 L 12.542165 87.851093 L 39.098857 93.387353 A 38.445606 38.445606 0 0 0 40.961823 95.326431 L 29.99529 112.7511 L 55.762409 104.26781 A 38.445606 38.445606 0 0 0 58.345238 105.01471 L 57.559933 125.58914 L 75.633336 105.35828 A 38.445606 38.445606 0 0 0 78.243907 104.71453 L 87.851093 122.92451 L 93.387353 96.367814 A 38.445606 38.445606 0 0 0 95.326431 94.504848 L 112.7511 105.47138 L 104.26781 79.704262 A 38.445606 38.445606 0 0 0 105.01471 77.121432 L 125.58914 77.906026 L 105.35828 59.833335 A 38.445606 38.445606 0 0 0 104.71453 57.222764 L 122.92451 47.615578 L 96.367814 42.079318 A 38.445606 38.445606 0 0 0 94.504848 40.14024 L 105.47138 22.715567 L 79.704262 31.198856 A 38.445606 38.445606 0 0 0 77.121432 30.451962 L 77.906026 9.8775329 z "
       transform="matrix(0.72647902,0,0,0.72647902,18.526487,18.526487)" /></g></svg>
