<?xml version="1.0" encoding="UTF-8" standalone="no"?>
<!-- Created with Inkscape (http://www.inkscape.org/) -->

<svg
   width="128"
   height="128"
   viewBox="0 0 33.866667 33.866667"
   version="1.1"
   id="svg135"
   inkscape:version="1.4.2 (ebf0e940d0, 2025-05-08)"
   xml:space="preserve"
   sodipodi:docname="Text.svg"
   xmlns:inkscape="http://www.inkscape.org/namespaces/inkscape"
   xmlns:sodipodi="http://sodipodi.sourceforge.net/DTD/sodipodi-0.dtd"
   xmlns="http://www.w3.org/2000/svg"
   xmlns:svg="http://www.w3.org/2000/svg"><sodipodi:namedview
     id="namedview137"
     pagecolor="#000000"
     bordercolor="#000000"
     borderopacity="0.25098039"
     inkscape:showpageshadow="true"
     inkscape:pageopacity="0"
     inkscape:pagecheckerboard="true"
     inkscape:deskcolor="#1e1e2e"
     inkscape:document-units="px"
     showgrid="false"
     inkscape:zoom="2.8284271"
     inkscape:cx="1.2374369"
     inkscape:cy="28.814602"
     inkscape:window-width="1894"
     inkscape:window-height="1011"
     inkscape:window-x="0"
     inkscape:window-y="0"
     inkscape:window-maximized="1"
     inkscape:current-layer="layer1"><inkscape:page
       x="0"
       y="0"
       width="33.866669"
       height="33.866669"
       id="page1"
       margin="0"
       bleed="0" /></sodipodi:namedview><defs
     id="defs132"><inkscape:path-effect
       effect="tiling"
       id="path-effect2"
       is_visible="true"
       lpeversion="1.3.1"
       unit="px"
       seed="1;1"
       lpesatellites=""
       num_rows="2"
       num_cols="2"
       gapx="0"
       gapy="0"
       offset="0"
       offset_type="false"
       scale="0"
       rotate="0"
       mirrorrowsx="false"
       mirrorrowsy="true"
       mirrorcolsx="true"
       mirrorcolsy="false"
       mirrortrans="false"
       shrink_interp="false"
       split_items="false"
       link_styles="false"
       interpolate_scalex="false"
       interpolate_scaley="true"
       interpolate_rotatex="false"
       interpolate_rotatey="true"
       random_scale="false"
       random_rotate="false"
       random_gap_y="false"
       random_gap_x="false"
       transformorigin="" /><inkscape:path-effect
       effect="dashed_stroke"
       message=""
       id="path-effect17"
       is_visible="true"
       lpeversion="1"
       numberdashes="3"
       holefactor="0"
       splitsegments="false"
       halfextreme="true"
       unifysegment="true" /><inkscape:path-effect
       effect="bspline"
       id="path-effect15"
       is_visible="true"
       lpeversion="1.3"
       weight="33.333333"
       steps="2"
       helper_size="0"
       apply_no_weight="true"
       apply_with_weight="true"
       only_selected="false"
       uniform="false" /><inkscape:path-effect
       effect="dashed_stroke"
       message=""
       id="path-effect13"
       is_visible="true"
       lpeversion="1"
       numberdashes="3"
       holefactor="0"
       splitsegments="false"
       halfextreme="true"
       unifysegment="true" /><inkscape:path-effect
       effect="bspline"
       id="path-effect12"
       is_visible="true"
       lpeversion="1.3"
       weight="33.333333"
       steps="2"
       helper_size="0"
       apply_no_weight="true"
       apply_with_weight="true"
       only_selected="false"
       uniform="false" /><inkscape:path-effect
       effect="dashed_stroke"
       message=""
       id="path-effect1"
       is_visible="true"
       lpeversion="1"
       numberdashes="4"
       holefactor="0.3"
       splitsegments="false"
       halfextreme="false"
       unifysegment="true" /></defs><g
     inkscape:label="Calque 1"
     inkscape:groupmode="layer"
     id="layer1"><path
       style="font-size:16.9333px;line-height:1;font-family:Inter;-inkscape-font-specification:Inter;font-variant-ligatures:no-common-ligatures;text-align:center;letter-spacing:0.851958px;text-anchor:middle;fill:#ffffff;stroke:#000000;stroke-width:3.175;stroke-linejoin:round;paint-order:stroke fill markers"
       d="M 6.7798029,22.985666 11.252906,10.666029 h 1.819007 l 4.530981,12.319637 H 15.949251 L 14.717287,19.54609 H 9.6406045 l -1.1906226,3.439576 z m 3.3403581,-4.8121 h 4.109302 l -0.892967,-2.497 q -0.223242,-0.620116 -0.504361,-1.513083 -0.28112,-0.901235 -0.677994,-2.240686 -0.388606,1.364256 -0.677993,2.273759 -0.289388,0.909503 -0.487825,1.48001 z m 12.658966,5.027074 q -0.876431,0 -1.595765,-0.330729 -0.711067,-0.330728 -1.132746,-0.967381 -0.421678,-0.636652 -0.421678,-1.546155 0,-0.793749 0.314192,-1.289842 0.314192,-0.496092 0.835089,-0.777212 0.529166,-0.289387 1.165818,-0.429947 0.636653,-0.140559 1.281573,-0.223241 0.826821,-0.107487 1.347719,-0.165365 0.520897,-0.05788 0.768944,-0.198437 0.256314,-0.140559 0.256314,-0.479556 v -0.04961 q 0,-0.859895 -0.487824,-1.331183 -0.487825,-0.479556 -1.446938,-0.479556 -1.000453,0 -1.562692,0.438215 -0.562238,0.429947 -0.777212,0.917772 L 19.89352,15.817126 q 0.355534,-0.843358 0.959113,-1.314646 0.60358,-0.479557 1.331182,-0.677994 0.727603,-0.198437 1.438669,-0.198437 0.46302,0 1.050063,0.115755 0.595312,0.107487 1.141014,0.438216 0.55397,0.330728 0.909503,0.983917 0.363802,0.64492 0.363802,1.728056 v 6.093673 h -1.463474 v -1.256768 h -0.09922 q -0.157096,0.32246 -0.504361,0.669725 -0.347265,0.338997 -0.901235,0.570507 -0.55397,0.23151 -1.33945,0.23151 z m 0.256314,-1.314646 q 0.826822,0 1.397328,-0.32246 0.570507,-0.322461 0.868163,-0.83509 0.297655,-0.520897 0.297655,-1.083136 v -1.281573 q -0.09095,0.107487 -0.396874,0.198437 -0.305924,0.08268 -0.702798,0.148828 -0.388606,0.06615 -0.760676,0.115755 -0.363801,0.04134 -0.578775,0.06615 -0.537433,0.06615 -1.008721,0.23151 -0.46302,0.157096 -0.74414,0.471288 -0.281119,0.305924 -0.281119,0.835089 0,0.719335 0.537434,1.091405 0.545702,0.363801 1.372523,0.363801 z"
       id="text1"
       aria-label="Aa" /></g></svg>
