<?xml version="1.0" encoding="UTF-8" standalone="no"?>
<!-- Created with Inkscape (http://www.inkscape.org/) -->

<svg
   width="96"
   height="96"
   viewBox="0 0 512 512"
   version="1.1"
   id="svg1"
   xml:space="preserve"
   inkscape:version="1.4.2 (ebf0e940d0, 2025-05-08)"
   sodipodi:docname="DeleteMode.svg"
   xmlns:inkscape="http://www.inkscape.org/namespaces/inkscape"
   xmlns:sodipodi="http://sodipodi.sourceforge.net/DTD/sodipodi-0.dtd"
   xmlns:xlink="http://www.w3.org/1999/xlink"
   xmlns="http://www.w3.org/2000/svg"
   xmlns:svg="http://www.w3.org/2000/svg"><sodipodi:namedview
     id="namedview1"
     pagecolor="#ffffff"
     bordercolor="#111111"
     borderopacity="1"
     inkscape:showpageshadow="0"
     inkscape:pageopacity="0"
     inkscape:pagecheckerboard="1"
     inkscape:deskcolor="#d1d1d1"
     inkscape:document-units="px"
     inkscape:zoom="0.70710678"
     inkscape:cx="115.96551"
     inkscape:cy="248.19448"
     inkscape:window-width="1920"
     inkscape:window-height="1008"
     inkscape:window-x="0"
     inkscape:window-y="0"
     inkscape:window-maximized="1"
     inkscape:current-layer="svg1" /><defs
     id="defs1"><linearGradient
       id="linearGradient35"
       inkscape:collect="always"><stop
         style="stop-color:#ff0000;stop-opacity:1;"
         offset="0"
         id="stop34" /><stop
         style="stop-color:#ff0000;stop-opacity:0;"
         offset="1"
         id="stop35" /></linearGradient><linearGradient
       id="linearGradient32"
       inkscape:collect="always"><stop
         style="stop-color:#ff0000;stop-opacity:1;"
         offset="0"
         id="stop32" /><stop
         style="stop-color:#ff0000;stop-opacity:0;"
         offset="1"
         id="stop33" /></linearGradient><linearGradient
       id="linearGradient28"
       inkscape:collect="always"><stop
         style="stop-color:#c50000;stop-opacity:1;"
         offset="0.10434783"
         id="stop31" /><stop
         style="stop-color:#ff1a1c;stop-opacity:1;"
         offset="0.40000001"
         id="stop29" /><stop
         style="stop-color:#ff8d8d;stop-opacity:1;"
         offset="1"
         id="stop30" /></linearGradient><linearGradient
       inkscape:collect="always"
       xlink:href="#linearGradient28"
       id="linearGradient30"
       x1="373.10901"
       y1="190.48071"
       x2="248.46802"
       y2="65.839722"
       gradientUnits="userSpaceOnUse" /><linearGradient
       id="linearGradient2"
       inkscape:collect="always"><stop
         style="stop-color:#000000;stop-opacity:1;"
         offset="0"
         id="stop2" /><stop
         style="stop-color:#000000;stop-opacity:0;"
         offset="1"
         id="stop3" /></linearGradient><linearGradient
       inkscape:collect="always"
       xlink:href="#linearGradient35"
       id="linearGradient3"
       x1="26.850409"
       y1="26.850409"
       x2="5.4287586"
       y2="5.4287586"
       gradientUnits="userSpaceOnUse"
       gradientTransform="matrix(4.1921396,0,0,4.1921396,0.07393343,0.07393843)" /><linearGradient
       inkscape:collect="always"
       xlink:href="#linearGradient2"
       id="linearGradient31"
       gradientUnits="userSpaceOnUse"
       gradientTransform="matrix(4.1921396,0,0,4.1921396,0.07393343,0.07393843)"
       x1="26.850409"
       y1="26.850409"
       x2="5.4287586"
       y2="5.4287586" /><linearGradient
       inkscape:collect="always"
       xlink:href="#linearGradient32"
       id="linearGradient33"
       x1="115.62801"
       y1="115.62801"
       x2="19.838631"
       y2="19.838631"
       gradientUnits="userSpaceOnUse" /></defs><g
     inkscape:label="Calque 1"
     id="layer1-5"
     transform="matrix(1.5701428,0,0,1.5701428,16.360429,71.017284)"
     style="fill:none"><rect
       style="display:inline;opacity:1;fill:url(#linearGradient31);fill-opacity:1;stroke:none;stroke-width:8.46667;stroke-linecap:square;stroke-linejoin:miter;stroke-dasharray:none;stroke-opacity:1;paint-order:normal"
       id="rect2"
       width="126.99998"
       height="126.99998"
       x="4.233335"
       y="4.233335" /><rect
       style="display:inline;opacity:1;fill:url(#linearGradient3);fill-opacity:1;stroke:url(#linearGradient33);stroke-width:8.46667;stroke-linecap:square;stroke-linejoin:miter;stroke-dasharray:none;stroke-opacity:1;paint-order:normal"
       id="rect1"
       width="126.99998"
       height="126.99998"
       x="4.233335"
       y="4.233335" /></g><g
     inkscape:label="Layer 1"
     inkscape:groupmode="layer"
     id="layer1"><g
       style="fill:none"
       id="g31"
       transform="matrix(1.0513358,0,0,1.0513358,148.97172,239.79558)"><path
         d="m 201.163,133.54 -0.014,-0.012 -0.015,-0.013 L 91.6855,36.4935 C 86.5144,31.7659 81.4269,27.9549 76.5421,25.525 c -4.775,-2.3753 -10.456,-3.9681 -16.1288,-2.4037 -6.1015,1.6826 -9.9258,6.3461 -12.0494,11.6377 -2.0517,5.1125 -2.864,11.5197 -2.864,18.7793 v 146.8927 0.062 l 9e-4,0.062 c 0.121,8.307 4.9271,17.288 10.4955,23.339 2.8971,3.149 6.52,6.092 10.6741,7.848 4.2468,1.795 9.5466,2.512 14.7987,0.142 4.2845,-1.933 8.2063,-5.829 11.3874,-9.233 1.8276,-1.956 3.9771,-4.399 6.179,-6.902 1.6745,-1.902 3.3785,-3.839 4.9945,-5.623 8.159,-9.004 17.316,-17.84 28.131,-22.719 10.852,-4.896 23.648,-6.032 35.802,-6.261 2.996,-0.057 5.887,-0.059 8.687,-0.061 h 0.013 0.023 c 2.761,-0.002 5.478,-0.004 7.976,-0.066 4.569,-0.113 9.981,-0.41 14.115,-2.139 9.934,-4.157 12.195,-15.042 11.976,-22.435 -0.232,-7.849 -3.183,-17.173 -9.59,-22.905 z"
         fill="#00ff00"
         stroke="#0000ff"
         stroke-width="17"
         id="path1"
         style="fill:#ffffff;fill-opacity:1;stroke:#000000;stroke-opacity:1" /></g><path
       sodipodi:type="star"
       style="fill:#ffffff;fill-opacity:1;stroke:url(#linearGradient30);stroke-width:48.2665;stroke-linecap:round;stroke-linejoin:round;stroke-dasharray:none"
       id="path2"
       inkscape:flatsided="false"
       sodipodi:sides="4"
       sodipodi:cx="310.78848"
       sodipodi:cy="128.1602"
       sodipodi:r1="100.50775"
       sodipodi:r2="0"
       sodipodi:arg1="0.78539816"
       sodipodi:arg2="1.5707963"
       inkscape:rounded="0"
       inkscape:randomized="0"
       d="M 381.8582,199.22991 310.78848,128.1602 239.71877,199.22991 310.78848,128.1602 239.71877,57.09049 310.78848,128.1602 381.8582,57.090489 310.78848,128.1602 Z"
       transform="matrix(0.66107167,0,0,0.66107167,233.64136,327.2637)" /></g></svg>
