<?xml version="1.0" encoding="UTF-8" standalone="no"?>
<!-- Created with Inkscape (http://www.inkscape.org/) -->

<svg
   width="96"
   height="96"
   viewBox="0 0 512 512"
   version="1.1"
   id="svg1"
   xml:space="preserve"
   inkscape:version="1.4.2 (ebf0e940d0, 2025-05-08)"
   sodipodi:docname="drawing.svg"
   xmlns:inkscape="http://www.inkscape.org/namespaces/inkscape"
   xmlns:sodipodi="http://sodipodi.sourceforge.net/DTD/sodipodi-0.dtd"
   xmlns:xlink="http://www.w3.org/1999/xlink"
   xmlns="http://www.w3.org/2000/svg"
   xmlns:svg="http://www.w3.org/2000/svg"><sodipodi:namedview
     id="namedview1"
     pagecolor="#ffffff"
     bordercolor="#111111"
     borderopacity="1"
     inkscape:showpageshadow="0"
     inkscape:pageopacity="0"
     inkscape:pagecheckerboard="1"
     inkscape:deskcolor="#d1d1d1"
     inkscape:document-units="px"
     inkscape:zoom="1.1034733"
     inkscape:cx="244.68196"
     inkscape:cy="489.81703"
     inkscape:window-width="1920"
     inkscape:window-height="1008"
     inkscape:window-x="0"
     inkscape:window-y="0"
     inkscape:window-maximized="1"
     inkscape:current-layer="g26" /><defs
     id="defs1"><inkscape:perspective
       sodipodi:type="inkscape:persp3d"
       inkscape:vp_x="306.65826 : 237.61441 : 1"
       inkscape:vp_y="0 : -838.33895 : 0"
       inkscape:vp_z="-328.72761 : 237.61441 : 1"
       inkscape:persp3d-origin="-11.034676 : 309.15266 : 1"
       id="perspective26" /><inkscape:perspective
       sodipodi:type="inkscape:persp3d"
       inkscape:vp_x="-73.593782 : 255.59678 : 1"
       inkscape:vp_y="0 : 1515.7782 : 0"
       inkscape:vp_z="702.48467 : 255.59678 : 1"
       inkscape:persp3d-origin="314.44544 : 126.25038 : 1"
       id="perspective21" /><linearGradient
       id="linearGradient21"
       inkscape:collect="always"><stop
         style="stop-color:#000000;stop-opacity:1;"
         offset="0"
         id="stop20" /><stop
         style="stop-color:#000000;stop-opacity:0;"
         offset="1"
         id="stop21" /></linearGradient><inkscape:perspective
       sodipodi:type="inkscape:persp3d"
       inkscape:vp_x="0 : 256 : 1"
       inkscape:vp_y="0 : 1000 : 0"
       inkscape:vp_z="512 : 256 : 1"
       inkscape:persp3d-origin="256 : 170.66667 : 1"
       id="perspective1" /><linearGradient
       id="linearGradient2"
       inkscape:collect="always"><stop
         style="stop-color:#00ff00;stop-opacity:1;"
         offset="0"
         id="stop2" /><stop
         style="stop-color:#000000;stop-opacity:0;"
         offset="1"
         id="stop3" /></linearGradient><linearGradient
       inkscape:collect="always"
       xlink:href="#linearGradient21"
       id="linearGradient3"
       x1="16.139584"
       y1="0.99218941"
       x2="16.139584"
       y2="31.286978"
       gradientUnits="userSpaceOnUse"
       gradientTransform="matrix(4.1921396,0,0,4.1921396,0.07393343,0.07393843)" /><linearGradient
       inkscape:collect="always"
       xlink:href="#linearGradient2"
       id="linearGradient20"
       gradientUnits="userSpaceOnUse"
       gradientTransform="matrix(4.1921396,0,0,4.1921396,0.07393343,0.07393843)"
       x1="16.139584"
       y1="0.99218941"
       x2="16.139584"
       y2="31.286978" /></defs><g
     inkscape:label="Calque 1"
     id="layer1-3"
     transform="matrix(1.0371685,0,0,1.0371685,88.506966,108.77265)"><rect
       style="display:inline;opacity:1;fill:url(#linearGradient20);fill-opacity:1;stroke:none;stroke-width:8.46667;stroke-linecap:square;stroke-linejoin:miter;stroke-dasharray:none;stroke-opacity:1;paint-order:normal"
       id="rect2"
       width="126.99998"
       height="126.99998"
       x="4.233335"
       y="4.233335" /><rect
       style="display:inline;opacity:1;fill:url(#linearGradient3);fill-opacity:1;stroke:#00ff00;stroke-width:8.46667;stroke-linecap:square;stroke-linejoin:miter;stroke-dasharray:none;stroke-opacity:1;paint-order:normal"
       id="rect1"
       width="126.99998"
       height="126.99998"
       x="4.233335"
       y="4.233335" /></g><g
     inkscape:label="Layer 1"
     inkscape:groupmode="layer"
     id="layer1"><g
       sodipodi:type="inkscape:box3d"
       id="g1"
       style="fill:#000000;fill-opacity:0;stroke:#ffffff"
       inkscape:perspectiveID="#perspective1"
       inkscape:corner0="6.2636364 : 1.3769697 : 0 : 1"
       inkscape:corner7="-0.25187266 : 0.075505615 : 0.25 : 1"><path
         sodipodi:type="inkscape:box3dside"
         id="path6"
         style="fill:#e9e9ff;fill-rule:evenodd;stroke:none;stroke-linejoin:round"
         inkscape:box3dsidetype="11"
         d="M 51.107078,84.094374 384.72045,-1038.0597 V 265.84615 L 51.107078,257.30798 Z"
         points="384.72045,-1038.0597 384.72045,265.84615 51.107078,257.30798 51.107078,84.094374 " /><path
         sodipodi:type="inkscape:box3dside"
         id="path1"
         style="fill:#353564;fill-rule:evenodd;stroke:none;stroke-linejoin:round"
         inkscape:box3dsidetype="6"
         d="M 35.244055,78.177722 V 257.353 l 15.863023,-0.045 V 84.094374 Z"
         points="35.244055,257.353 51.107078,257.30798 51.107078,84.094374 35.244055,78.177722 " /><path
         sodipodi:type="inkscape:box3dside"
         id="path5"
         style="fill:#afafde;fill-rule:evenodd;stroke:none;stroke-linejoin:round"
         inkscape:box3dsidetype="13"
         d="m 35.244055,257.353 306.943675,11.78342 42.53272,-3.29027 -333.613372,-8.53817 z"
         points="342.18773,269.13642 384.72045,265.84615 51.107078,257.30798 35.244055,257.353 " /><path
         sodipodi:type="inkscape:box3dside"
         id="path2"
         style="fill:#4d4d9f;fill-rule:evenodd;stroke:none;stroke-linejoin:round"
         inkscape:box3dsidetype="5"
         d="M 35.244055,78.177722 342.18773,-1470.4927 384.72045,-1038.0597 51.107078,84.094374 Z"
         points="342.18773,-1470.4927 384.72045,-1038.0597 51.107078,84.094374 35.244055,78.177722 " /><path
         sodipodi:type="inkscape:box3dside"
         id="path4"
         style="fill:#d7d7ff;fill-rule:evenodd;stroke:none;stroke-linejoin:round"
         inkscape:box3dsidetype="14"
         d="M 342.18773,-1470.4927 V 269.13642 l 42.53272,-3.29027 V -1038.0597 Z"
         points="342.18773,269.13642 384.72045,265.84615 384.72045,-1038.0597 342.18773,-1470.4927 " /><path
         sodipodi:type="inkscape:box3dside"
         id="path3"
         style="fill:#8686bf;fill-rule:evenodd;stroke:none;stroke-linejoin:round"
         inkscape:box3dsidetype="3"
         d="M 35.244055,78.177722 342.18773,-1470.4927 V 269.13642 L 35.244055,257.353 Z"
         points="342.18773,-1470.4927 342.18773,269.13642 35.244055,257.353 35.244055,78.177722 " /></g><g
       sodipodi:type="inkscape:box3d"
       id="g6"
       style="fill:#000000;fill-opacity:0;stroke:#ffffff"
       inkscape:perspectiveID="#perspective21"
       inkscape:corner0="2.504386 : 0.55803508 : 0 : 1"
       inkscape:corner7="2.4739131 : 0.54056811 : 0.25 : 1"><path
         sodipodi:type="inkscape:box3dside"
         id="path12"
         style="fill:#e9e9ff;fill-rule:evenodd;stroke:none;stroke-width:1.85778;stroke-linejoin:round"
         inkscape:box3dsidetype="11"
         d="m 81.440579,65.556832 1.268651,-1.561703 v 7.10974 l -1.268651,1.503995 z"
         points="82.70923,63.995129 82.70923,71.104869 81.440579,72.608864 81.440579,65.556832 " /><path
         sodipodi:type="inkscape:box3dside"
         id="path7"
         style="fill:#353564;fill-rule:evenodd;stroke:none;stroke-linejoin:round"
         inkscape:box3dsidetype="6"
         d="m 37.135807,51.942008 v 7.555119 l 44.304772,13.111737 v -7.052032 z"
         points="37.135807,59.497127 81.440579,72.608864 81.440579,65.556832 37.135807,51.942008 " /><path
         sodipodi:type="inkscape:box3dside"
         id="path8"
         style="fill:#4d4d9f;fill-rule:evenodd;stroke:none;stroke-linejoin:round"
         inkscape:box3dsidetype="5"
         d="M 37.135807,51.942008 38.107119,50.14849 82.70923,63.995129 81.440579,65.556832 Z"
         points="38.107119,50.14849 82.70923,63.995129 81.440579,65.556832 37.135807,51.942008 " /><path
         sodipodi:type="inkscape:box3dside"
         id="path11"
         style="fill:#afafde;fill-rule:evenodd;stroke:none;stroke-linejoin:round"
         inkscape:box3dsidetype="13"
         d="m 37.135807,59.497127 0.971312,-1.727246 44.602111,13.334988 -1.268651,1.503995 z"
         points="38.107119,57.769881 82.70923,71.104869 81.440579,72.608864 37.135807,59.497127 " /><path
         sodipodi:type="inkscape:box3dside"
         id="path10"
         style="fill:#d7d7ff;fill-rule:evenodd;stroke:none;stroke-linejoin:round"
         inkscape:box3dsidetype="14"
         d="m 38.107119,50.14849 v 7.621391 L 82.70923,71.104869 v -7.10974 z"
         points="38.107119,57.769881 82.70923,71.104869 82.70923,63.995129 38.107119,50.14849 " /><path
         sodipodi:type="inkscape:box3dside"
         id="path9"
         style="fill:#8686bf;fill-rule:evenodd;stroke:none;stroke-linejoin:round"
         inkscape:box3dsidetype="3"
         d="m 37.135807,51.942008 0.971312,-1.793518 v 7.621391 l -0.971312,1.727246 z"
         points="38.107119,50.14849 38.107119,57.769881 37.135807,59.497127 37.135807,51.942008 " /></g><g
       sodipodi:type="inkscape:box3d"
       id="g12"
       style="fill:#000000;fill-opacity:0;stroke:#ffffff"
       inkscape:perspectiveID="#perspective21"
       inkscape:corner0="0.22171254 : 0.23995106 : 0 : 1"
       inkscape:corner7="0.18195266 : 0.23416173 : 0.25 : 1"><path
         sodipodi:type="inkscape:box3dside"
         id="path18"
         style="fill:#e9e9ff;fill-rule:evenodd;stroke:none;stroke-linejoin:round"
         inkscape:box3dsidetype="11"
         d="m 321.90386,97.155963 10.98146,-4.421691 v 6.128231 l -10.98146,4.256127 z"
         points="332.88532,92.734272 332.88532,98.862503 321.90386,103.11863 321.90386,97.155963 " /><path
         sodipodi:type="inkscape:box3dside"
         id="path13"
         style="fill:#353564;fill-rule:evenodd;stroke:none;stroke-linejoin:round"
         inkscape:box3dsidetype="6"
         d="m 244.02531,64.569071 v 7.182816 l 77.87855,31.366743 v -5.962667 z"
         points="244.02531,71.751887 321.90386,103.11863 321.90386,97.155963 244.02531,64.569071 " /><path
         sodipodi:type="inkscape:box3dside"
         id="path14"
         style="fill:#4d4d9f;fill-rule:evenodd;stroke:none;stroke-linejoin:round"
         inkscape:box3dsidetype="5"
         d="m 244.02531,64.569071 10.68443,-6.453137 78.17558,34.618338 -10.98146,4.421691 z"
         points="254.70974,58.115934 332.88532,92.734272 321.90386,97.155963 244.02531,64.569071 " /><path
         sodipodi:type="inkscape:box3dside"
         id="path17"
         style="fill:#afafde;fill-rule:evenodd;stroke:none;stroke-linejoin:round"
         inkscape:box3dsidetype="13"
         d="m 244.02531,71.751887 10.68443,-6.211513 78.17558,33.322129 -10.98146,4.256127 z"
         points="254.70974,65.540374 332.88532,98.862503 321.90386,103.11863 244.02531,71.751887 " /><path
         sodipodi:type="inkscape:box3dside"
         id="path16"
         style="fill:#d7d7ff;fill-rule:evenodd;stroke:none;stroke-linejoin:round"
         inkscape:box3dsidetype="14"
         d="m 254.70974,58.115934 v 7.42444 l 78.17558,33.322129 v -6.128231 z"
         points="254.70974,65.540374 332.88532,98.862503 332.88532,92.734272 254.70974,58.115934 " /><path
         sodipodi:type="inkscape:box3dside"
         id="path15"
         style="fill:#8686bf;fill-rule:evenodd;stroke:none;stroke-linejoin:round"
         inkscape:box3dsidetype="3"
         d="m 244.02531,64.569071 10.68443,-6.453137 v 7.42444 l -10.68443,6.211513 z"
         points="254.70974,58.115934 254.70974,65.540374 244.02531,71.751887 244.02531,64.569071 " /></g><rect
       style="fill:#00ff00;fill-opacity:0.118545;stroke:#00ff00;stroke-width:5.59338;stroke-linecap:round;stroke-linejoin:round;stroke-dasharray:none;stroke-opacity:1"
       id="rect19"
       width="348.98853"
       height="302.39505"
       x="35.650673"
       y="59.59903"
       ry="0.23713654" /><g
       style="fill:none"
       id="g26"
       transform="matrix(0.67941071,0,0,0.67941071,326.0833,327.80204)"><path
         d="m 216.02453,140.79635 -0.0118,-0.0101 -0.0127,-0.011 -92.45787,-81.960017 c -4.36835,-3.993694 -8.66607,-7.21308 -12.79256,-9.265766 -4.03373,-2.006562 -8.83282,-3.352098 -13.624984,-2.030553 -5.15431,1.421396 -8.384936,5.360941 -10.178871,9.83108 -1.733197,4.318843 -2.419397,9.731399 -2.419397,15.864029 v 124.089287 0.0524 l 7.61e-4,0.0524 c 0.102216,7.01743 4.162224,14.60423 8.866197,19.71588 2.44735,2.66016 5.50784,5.14629 9.017064,6.62969 3.58754,1.51635 8.06459,2.12204 12.50137,0.11996 3.61938,-1.63293 6.93236,-4.92412 9.61963,-7.79968 1.54389,-1.65236 3.35971,-3.71611 5.21979,-5.83055 1.41455,-1.60673 2.85402,-3.24304 4.21916,-4.75009 6.8924,-7.60623 14.62789,-15.07055 23.76398,-19.19214 9.16735,-4.13595 19.97692,-5.0956 30.24415,-5.28905 2.5309,-0.0481 4.97311,-0.0498 7.33844,-0.0515 h 0.011 0.0194 c 2.33239,-0.002 4.62761,-0.003 6.73782,-0.0557 3.85972,-0.0955 8.43156,-0.34635 11.92381,-1.80695 8.39186,-3.51167 10.30186,-12.7069 10.11686,-18.95222 -0.19598,-6.63053 -2.68887,-14.50709 -8.10126,-19.34926 z"
         fill="#00ff00"
         stroke="#0000ff"
         stroke-width="14.3609"
         id="path1-3"
         style="fill:#ffffff;fill-opacity:1;stroke:#000000;stroke-opacity:1" /></g></g></svg>
