<?xml version="1.0" encoding="UTF-8" standalone="no"?>
<!-- Created with Inkscape (http://www.inkscape.org/) -->

<svg
   width="135.46666mm"
   height="135.46666mm"
   viewBox="0 0 135.46666 135.46666"
   version="1.1"
   id="svg1"
   inkscape:version="1.4.2 (ebf0e940d0, 2025-05-08)"
   sodipodi:docname="RegularSawbladeNormal.svg"
   xml:space="preserve"
   xmlns:inkscape="http://www.inkscape.org/namespaces/inkscape"
   xmlns:sodipodi="http://sodipodi.sourceforge.net/DTD/sodipodi-0.dtd"
   xmlns="http://www.w3.org/2000/svg"
   xmlns:svg="http://www.w3.org/2000/svg"><sodipodi:namedview
     id="namedview1"
     pagecolor="#4d4d4d"
     bordercolor="#eeeeee"
     borderopacity="1"
     inkscape:showpageshadow="0"
     inkscape:pageopacity="0"
     inkscape:pagecheckerboard="false"
     inkscape:deskcolor="#181825"
     inkscape:document-units="px"
     inkscape:zoom="1.1407622"
     inkscape:cx="244.57333"
     inkscape:cy="185.84066"
     inkscape:window-width="1920"
     inkscape:window-height="1080"
     inkscape:window-x="0"
     inkscape:window-y="0"
     inkscape:window-maximized="1"
     inkscape:current-layer="layer1"
     showgrid="false" /><defs
     id="defs1"><inkscape:path-effect
       effect="copy_rotate"
       starting_point="76.515187,67.73333"
       origin="67.73333,67.73333"
       id="path-effect2"
       is_visible="true"
       lpeversion="1.2"
       lpesatellites=""
       method="normal"
       num_copies="18"
       starting_angle="0"
       rotation_angle="20"
       gap="-0.01"
       copies_to_360="true"
       mirror_copies="false"
       split_items="false"
       link_styles="false" /></defs><g
     inkscape:label="Calque 1"
     inkscape:groupmode="layer"
     id="layer1"><path
       id="path2-0"
       style="fill:#000000;stroke-width:1.00013;stroke-linejoin:round;stroke-dasharray:none;paint-order:stroke fill markers;fill-opacity:1"
       d="M 42.220023,14.819855 37.284016,38.062657 25.661207,26.737085 28.972474,50.266732 14.176945,43.599403 25.335829,64.576943 9.1525472,63.372123 26.813165,79.267838 l -15.619478,4.403109 22.032427,8.896864 -13.171896,9.479679 23.746847,0.82486 -9.13531,13.41307 22.596923,-7.34668 -3.996991,15.72824 18.721344,-14.63165 1.623605,16.14698 12.587649,-20.15312 7.048394,14.61759 4.936322,-23.242366 11.622809,11.325566 -3.31128,-23.529654 14.79554,6.667332 -11.15892,-20.977528 16.18329,1.204819 -17.66064,-15.895702 15.61948,-4.403112 -22.03243,-8.896862 13.1719,-9.479684 L 91.665914,32.594718 100.80122,19.181655 78.204266,26.528352 82.201234,10.800091 63.479883,25.431727 61.856382,9.2847584 49.268717,29.437851 Z"
       sodipodi:nodetypes="ccccccccccccccccccccccccccccccccccccc" /></g></svg>
