<?xml version="1.0" encoding="UTF-8" standalone="no"?>
<!-- Created with Inkscape (http://www.inkscape.org/) -->

<svg
   width="820"
   height="564"
   viewBox="0 0 216.95833 149.225"
   version="1.1"
   id="svg1"
   xml:space="preserve"
   inkscape:version="1.4.2 (ebf0e940d0, 2025-05-08)"
   sodipodi:docname="Ship2.svg"
   xmlns:inkscape="http://www.inkscape.org/namespaces/inkscape"
   xmlns:sodipodi="http://sodipodi.sourceforge.net/DTD/sodipodi-0.dtd"
   xmlns:xlink="http://www.w3.org/1999/xlink"
   xmlns="http://www.w3.org/2000/svg"
   xmlns:svg="http://www.w3.org/2000/svg"><sodipodi:namedview
     id="namedview1"
     pagecolor="#1f1f1f"
     bordercolor="#eeeeee"
     borderopacity="1"
     inkscape:showpageshadow="0"
     inkscape:pageopacity="0"
     inkscape:pagecheckerboard="0"
     inkscape:deskcolor="#000000"
     inkscape:document-units="px"
     inkscape:zoom="1"
     inkscape:cx="399"
     inkscape:cy="373.5"
     inkscape:window-width="1920"
     inkscape:window-height="1008"
     inkscape:window-x="0"
     inkscape:window-y="0"
     inkscape:window-maximized="1"
     inkscape:current-layer="layer1" /><defs
     id="defs1"><linearGradient
       id="linearGradient39"
       inkscape:collect="always"><stop
         style="stop-color:#e1ffee;stop-opacity:1;"
         offset="0"
         id="stop38" /><stop
         style="stop-color:#b1ffd6;stop-opacity:1;"
         offset="1"
         id="stop39" /></linearGradient><linearGradient
       id="linearGradient25"
       inkscape:collect="always"><stop
         style="stop-color:#ffffff;stop-opacity:1;"
         offset="0"
         id="stop26" /><stop
         style="stop-color:#24ff7d;stop-opacity:1;"
         offset="1"
         id="stop25" /></linearGradient><linearGradient
       inkscape:collect="always"
       xlink:href="#linearGradient25"
       id="linearGradient26"
       x1="90.791298"
       y1="58.080414"
       x2="137.25563"
       y2="58.080414"
       gradientUnits="userSpaceOnUse" /><linearGradient
       inkscape:collect="always"
       xlink:href="#linearGradient25"
       id="linearGradient28"
       x1="94.491676"
       y1="64.017632"
       x2="111.44498"
       y2="64.017632"
       gradientUnits="userSpaceOnUse" /><linearGradient
       inkscape:collect="always"
       xlink:href="#linearGradient25"
       id="linearGradient30"
       x1="77.223717"
       y1="70.463158"
       x2="102.87203"
       y2="70.463158"
       gradientUnits="userSpaceOnUse" /><linearGradient
       inkscape:collect="always"
       xlink:href="#linearGradient25"
       id="linearGradient32"
       x1="68.942474"
       y1="77.825127"
       x2="95.205414"
       y2="77.825127"
       gradientUnits="userSpaceOnUse" /><linearGradient
       inkscape:collect="always"
       xlink:href="#linearGradient25"
       id="linearGradient33"
       x1="26.62406"
       y1="40.563362"
       x2="80.847931"
       y2="40.563362"
       gradientUnits="userSpaceOnUse" /><linearGradient
       inkscape:collect="always"
       xlink:href="#linearGradient39"
       id="linearGradient34"
       x1="35.432076"
       y1="52.921223"
       x2="44.419895"
       y2="52.921223"
       gradientUnits="userSpaceOnUse" /><linearGradient
       inkscape:collect="always"
       xlink:href="#linearGradient25"
       id="linearGradient35"
       x1="24.533167"
       y1="52.187313"
       x2="71.095963"
       y2="52.187313"
       gradientUnits="userSpaceOnUse" /><linearGradient
       inkscape:collect="always"
       xlink:href="#linearGradient25"
       id="linearGradient36"
       x1="9.3965998"
       y1="62.857216"
       x2="57.069553"
       y2="62.857216"
       gradientUnits="userSpaceOnUse" /><linearGradient
       inkscape:collect="always"
       xlink:href="#linearGradient25"
       id="linearGradient37"
       x1="18.7932"
       y1="78.453781"
       x2="75.764191"
       y2="78.453781"
       gradientUnits="userSpaceOnUse" /><linearGradient
       inkscape:collect="always"
       xlink:href="#linearGradient25"
       id="linearGradient38"
       x1="31.781601"
       y1="60.237488"
       x2="105.84574"
       y2="60.237488"
       gradientUnits="userSpaceOnUse" /></defs><g
     inkscape:label="Layer 1"
     inkscape:groupmode="layer"
     id="layer1"
     style="display:inline;fill:#ffffff;fill-opacity:1"
     transform="matrix(1.5094794,0,0,1.5094794,-2.2075456,-11.109086)"><path
       style="display:inline;fill:#24ff7d;fill-opacity:1;stroke:#24ff7d;stroke-width:15.7753;stroke-linecap:round;stroke-linejoin:round;stroke-miterlimit:29.5;stroke-dasharray:none;stroke-opacity:1;paint-order:markers stroke fill"
       d="M 101.42424,58.570727 C 98.476601,55.207163 94.757996,51.449377 90.791299,47.920578 114.45169,51.971533 129.20606,61.281541 137.25563,79.980966 126.25156,90.112725 114.03021,94.515581 98.364986,95.128338 l -3.159575,-2.369685 c 0.04335,-0.09553 -13.543725,3.163354 -26.262938,0.436941 -1.184084,-0.544962 -2.460572,-1.130053 -3.582703,-1.860873 -18.671167,8.301906 -35.174132,7.207011 -46.566571,6.284455 5.110225,-2.286153 10.447874,-4.674048 17.47899,-7.819546 l -4.490588,-3.360124 -0.309378,-3.11889 C 20.282717,83.675439 15.228511,81.027543 9.3965994,78.760269 20.410925,78.677275 29.872988,78.239918 42.29637,72.040156 39.045229,68.293905 35.519224,62.952613 32.606977,58.993704 29.88401,58.289516 27.15979,57.640594 24.533167,57.07405 c 2.390529,-0.04343 4.884557,-0.02207 7.318003,0.05843 L 31.270495,55.308406 26.62406,41.601429 c 17.101547,9.34345 35.176171,16.560909 54.223872,21.652378 l 3.787606,1.149892 c 4.744557,-1.941687 9.125547,-3.424404 13.868841,-4.820573 z"
       id="path13"
       sodipodi:nodetypes="cccccccccccccccccccccc"
       inkscape:label="glow" /><path
       style="display:inline;fill:#000000;fill-opacity:1;stroke:#000000;stroke-width:7.88765;stroke-linecap:round;stroke-linejoin:round;stroke-miterlimit:13.2;stroke-dasharray:none;stroke-opacity:1;paint-order:markers stroke fill"
       d="M 101.42424,58.570727 C 98.476601,55.207163 94.757996,51.449377 90.791299,47.920578 114.45169,51.971533 129.20606,61.281541 137.25563,79.980966 126.25156,90.112725 114.03021,94.515581 98.364986,95.128338 l -3.159575,-2.369685 c 0.04335,-0.09553 -13.543725,3.163354 -26.262938,0.436941 -1.184084,-0.544962 -2.460572,-1.130053 -3.582703,-1.860873 -18.671167,8.301906 -35.174132,7.207011 -46.566571,6.284455 5.110225,-2.286153 10.447874,-4.674048 17.47899,-7.819546 l -4.490588,-3.360124 -0.309378,-3.11889 C 20.282717,83.675439 15.228511,81.027543 9.3965994,78.760269 20.410925,78.677275 29.872988,78.239918 42.29637,72.040156 39.045229,68.293905 35.519224,62.952613 32.606977,58.993704 29.88401,58.289516 27.15979,57.640594 24.533167,57.07405 c 2.390529,-0.04343 4.884557,-0.02207 7.318003,0.05843 L 31.270495,55.308406 26.62406,41.601429 c 17.101547,9.34345 35.176171,16.560909 54.223872,21.652378 l 3.787606,1.149892 c 4.744557,-1.941687 9.125547,-3.424404 13.868841,-4.820573 z"
       id="path12"
       sodipodi:nodetypes="cccccccccccccccccccccc"
       inkscape:label="outline" /><g
       id="g12"
       style="display:inline"
       transform="translate(0,13.444048)"><path
         style="display:inline;fill:url(#linearGradient26);stroke-width:0.264583"
         d="M 90.791301,34.476533 C 100.19236,42.801164 107.84932,52.296185 114.67396,62.215738 110.0821,69.76685 104.32818,75.555272 98.364986,81.684293 111.78575,81.153813 124.85088,77.913169 137.25563,66.536921 127.23249,42.268466 104.4314,36.811996 90.791301,34.476533 Z"
         id="path1"
         sodipodi:nodetypes="ccccc" /><path
         style="display:inline;fill:url(#linearGradient28);stroke-width:0.264583"
         d="m 107.14226,57.265063 c 0.89804,0.963753 3.05422,3.276197 4.30272,5.291318 -1.64486,2.915215 -4.05583,5.708864 -6.50533,8.213812 L 94.491677,61.964989 c 4.117857,-1.861798 7.656583,-3.714268 12.650583,-4.699926 z"
         id="path2"
         sodipodi:nodetypes="ccccc" /><path
         style="fill:url(#linearGradient30);stroke-width:0.264583"
         d="m 98.504379,77.409573 4.367651,-5.111075 C 99.800312,69.162121 95.487891,66.305151 91.488267,63.516739 l -14.26455,6.830256 c 2.571026,2.663955 9.66458,5.018148 21.280662,7.062578 z"
         id="path3"
         sodipodi:nodetypes="ccccc" /><path
         style="fill:url(#linearGradient32);stroke-width:0.264583"
         d="M 79.035824,74.807571 95.205413,79.31461 C 85.262046,81.204159 76.03603,81.331338 68.942475,79.751551 Z"
         id="path4"
         sodipodi:nodetypes="cccc" /><path
         style="fill:url(#linearGradient38);stroke-width:0.264583"
         d="M 105.84574,54.967303 98.504379,46.139081 C 61.613105,56.949702 62.457563,70.337606 31.781601,72.995461 67.663623,79.403513 82.47506,61.084528 105.84574,54.967303 Z"
         id="path5"
         sodipodi:nodetypes="cccc" /><path
         style="fill:url(#linearGradient37);stroke-width:0.264583"
         d="m 18.793199,84.175131 17.47899,-7.819546 c 11.745656,1.369723 26.781026,0.09221 37.35043,-4.243623 l 2.141572,0.958098 C 59.897835,80.711822 47.131274,86.800971 18.793199,84.175131 Z"
         id="path6"
         sodipodi:nodetypes="ccccc" /><path
         style="fill:url(#linearGradient36);stroke-width:0.264583"
         d="M 57.069555,62.359251 C 54.272457,60.044996 51.041691,57.854647 47.377259,55.788202 32.43349,64.791198 20.814743,65.309653 9.3965994,65.316224 23.974042,72.363817 40.016152,71.294201 57.069555,62.359251 Z"
         id="path8"
         sodipodi:nodetypes="cccc" /><path
         style="display:inline;fill:url(#linearGradient35);stroke-width:0.264583"
         d="M 59.772018,60.74462 71.095961,54.313654 C 59.166637,47.146678 42.374715,43.677832 24.533167,43.630005 34.535439,46.434563 51.672219,53.018124 59.772018,60.74462 Z"
         id="path9"
         sodipodi:nodetypes="cccc" /><path
         style="display:inline;fill:url(#linearGradient34);stroke-width:0.264583"
         d="m 40.56336,56.454161 3.85654,-2.648466 c -2.700246,-1.625796 -6.112355,-3.317303 -8.987829,-4.417415 1.334177,2.137715 3.538771,5.002881 5.131289,7.065881 z"
         id="path10"
         sodipodi:nodetypes="cccc" /><path
         style="fill:url(#linearGradient33);stroke-width:0.264583"
         d="m 73.878286,52.969337 6.969648,-3.159575 C 62.215737,44.884543 44.141113,37.667084 26.62406,28.157384 l 4.646435,13.706977 c 15.379693,-0.139393 29.58229,3.562266 42.607791,11.104976 z"
         id="path11"
         sodipodi:nodetypes="ccccc" /></g><g
       id="g16"
       inkscape:label="shadows"
       style="display:inline"
       transform="translate(0,13.444048)"><path
         style="display:inline;fill:#000000;fill-opacity:0.358974;stroke:#24ff7d;stroke-width:15.875;stroke-linecap:round;stroke-linejoin:round;stroke-miterlimit:13.2;stroke-dasharray:none;stroke-opacity:0;paint-order:markers stroke fill"
         d="m 114.27839,41.70106 c 5.35353,5.014387 12.93505,12.741371 16.8888,23.353366 -5.85267,6.474079 -13.38002,11.359739 -19.58547,15.011596 9.41251,-2.044337 18.1315,-6.590173 25.67391,-13.529101 -2.47075,-10.732016 -14.8558,-22.614925 -22.97724,-24.835861 z"
         id="path16"
         sodipodi:nodetypes="ccccc" /><path
         style="display:inline;fill:#000000;fill-opacity:0.358974;stroke:#24ff7d;stroke-width:15.875;stroke-linecap:round;stroke-linejoin:round;stroke-miterlimit:13.2;stroke-dasharray:none;stroke-opacity:0;paint-order:markers stroke fill"
         d="m 103.0899,51.653323 2.75584,3.31398 C 83.875642,64.341985 61.561801,77.431406 38.196468,73.908576 76.297275,70.25532 85.207928,52.563467 103.0899,51.653323 Z"
         id="path17"
         sodipodi:nodetypes="cccc" /><path
         style="display:inline;fill:#000000;fill-opacity:0.358974;stroke:#24ff7d;stroke-width:15.875;stroke-linecap:round;stroke-linejoin:round;stroke-miterlimit:13.2;stroke-dasharray:none;stroke-opacity:0;paint-order:markers stroke fill"
         d="m 102.08299,68.362699 5.20107,-0.112987 -2.34441,2.520479 z"
         id="path18" /><path
         style="display:inline;fill:#000000;fill-opacity:0.358974;stroke:#24ff7d;stroke-width:15.875;stroke-linecap:round;stroke-linejoin:round;stroke-miterlimit:13.2;stroke-dasharray:none;stroke-opacity:0;paint-order:markers stroke fill"
         d="M 86.041427,74.604363 102.43491,72.81002 98.504379,77.409571 C 94.232759,76.691156 90.078441,75.756087 86.041427,74.604363 Z"
         id="path19"
         sodipodi:nodetypes="cccc" /><path
         style="display:inline;fill:#000000;fill-opacity:0.358974;stroke:#24ff7d;stroke-width:15.875;stroke-linecap:round;stroke-linejoin:round;stroke-miterlimit:13.2;stroke-dasharray:none;stroke-opacity:0;paint-order:markers stroke fill"
         d="m 74.673209,80.6184 13.103951,-3.374308 7.428249,2.070516 c -6.903984,1.597247 -12.928521,1.999177 -20.5322,1.303792 z"
         id="path20"
         sodipodi:nodetypes="cccc" /><path
         style="display:inline;fill:#000000;fill-opacity:0.358974;stroke:#24ff7d;stroke-width:15.875;stroke-linecap:round;stroke-linejoin:round;stroke-miterlimit:13.2;stroke-dasharray:none;stroke-opacity:0;paint-order:markers stroke fill"
         d="m 61.03844,75.589357 12.584179,-3.477395 2.141572,0.958098 C 48.622034,86.926177 37.444582,86.827249 18.793199,84.175131 31.936903,83.418627 47.942942,82.577027 61.03844,75.589357 Z"
         id="path21"
         sodipodi:nodetypes="ccccc" /><path
         style="display:inline;fill:#000000;fill-opacity:0.358974;stroke:#24ff7d;stroke-width:15.875;stroke-linecap:round;stroke-linejoin:round;stroke-miterlimit:13.2;stroke-dasharray:none;stroke-opacity:0;paint-order:markers stroke fill"
         d="m 16.2138,67.921837 c 13.099997,4.66527 26.870993,1.058934 33.542187,-2.188446 C 38.930758,67.470587 25.8678,68.420635 16.2138,67.921837 Z"
         id="path22"
         sodipodi:nodetypes="ccc" /><path
         style="display:inline;fill:#000000;fill-opacity:0.358974;stroke:#24ff7d;stroke-width:15.875;stroke-linecap:round;stroke-linejoin:round;stroke-miterlimit:13.2;stroke-dasharray:none;stroke-opacity:0;paint-order:markers stroke fill"
         d="M 59.772017,60.74462 65.43399,57.529137 C 57.918261,52.482298 50.152683,48.643435 36.3321,47.603368 46.43315,52.73911 54.785646,56.560684 59.772017,60.74462 Z"
         id="path23"
         sodipodi:nodetypes="cccc" /><path
         style="display:inline;fill:#000000;fill-opacity:0.358974;stroke:#24ff7d;stroke-width:15.875;stroke-linecap:round;stroke-linejoin:round;stroke-miterlimit:13.2;stroke-dasharray:none;stroke-opacity:0;paint-order:markers stroke fill"
         d="m 36.502895,41.967343 -5.2324,-0.102982 -3.830941,-11.301269 z"
         id="path24" /><path
         style="display:inline;fill:#000000;fill-opacity:0.358974;stroke:#24ff7d;stroke-width:15.875;stroke-linecap:round;stroke-linejoin:round;stroke-miterlimit:13.2;stroke-dasharray:none;stroke-opacity:0;paint-order:markers stroke fill"
         d="m 35.432071,49.388281 c 3.584657,0.938163 6.691339,2.252436 8.987829,4.417414 l -3.85654,2.648466 c -2.195499,-2.291139 -3.905929,-4.646432 -5.131289,-7.06588 z"
         id="path25"
         sodipodi:nodetypes="cccc" /></g></g></svg>
