<?xml version="1.0" encoding="UTF-8" standalone="no"?>
<!-- Created with Inkscape (http://www.inkscape.org/) -->

<svg
   width="820"
   height="564"
   viewBox="0 0 216.95833 149.225"
   version="1.1"
   id="svg1"
   xml:space="preserve"
   sodipodi:docname="Ship3.svg"
   inkscape:version="1.4.2 (ebf0e940d0, 2025-05-08)"
   xmlns:inkscape="http://www.inkscape.org/namespaces/inkscape"
   xmlns:sodipodi="http://sodipodi.sourceforge.net/DTD/sodipodi-0.dtd"
   xmlns="http://www.w3.org/2000/svg"
   xmlns:svg="http://www.w3.org/2000/svg"><sodipodi:namedview
     id="namedview1"
     pagecolor="#292929"
     bordercolor="#ffffff"
     borderopacity="1"
     inkscape:showpageshadow="0"
     inkscape:pageopacity="0"
     inkscape:pagecheckerboard="false"
     inkscape:deskcolor="#000000"
     inkscape:document-units="mm"
     inkscape:zoom="1.4142136"
     inkscape:cx="632.86057"
     inkscape:cy="351.07852"
     inkscape:window-width="1920"
     inkscape:window-height="1008"
     inkscape:window-x="0"
     inkscape:window-y="0"
     inkscape:window-maximized="1"
     inkscape:current-layer="svg1" /><defs
     id="defs1" /><g
     inkscape:label="Layer 1"
     inkscape:groupmode="layer"
     id="layer1"
     style="display:inline"
     transform="matrix(1.0173895,0,0,1.0173895,-1.9466878,-0.71601551)"><path
       style="display:inline;fill:#00ffff;fill-opacity:1;stroke:#00ffff;stroke-width:23.40549023;stroke-linecap:round;stroke-linejoin:round;stroke-miterlimit:13.2;stroke-dasharray:none;stroke-opacity:1;paint-order:markers stroke fill"
       d="m 202.57791,105.0041 c -26.52277,13.62195 -42.92505,22.52142 -55.82974,29.78884 l 1.46623,-19.61502 c -48.362538,23.80236 -56.508048,5.09916 -93.333161,15.70923 l 8.436187,-9.59658 c 0.07574,-1.74028 0.727122,-0.82502 -1.941597,-1.83332 C 50.150714,115.85516 33.55197,116.73379 18.75427,116.11063 L 56.771029,100.62943 27.611108,95.799532 53.275328,87.728429 14.493013,72.896074 57.46266,75.154996 44.193405,61.160019 c 30.428073,12.528906 44.575138,23.968516 85.198225,24.495117 l 2.46032,-0.02046 -8.21788,-19.385241 30.38748,12.521775 -3.48856,-34.904087 z"
       id="path10"
       sodipodi:nodetypes="ccccccccccccccccccc"
       inkscape:label="glow" /><path
       style="display:inline;fill:#000000;fill-opacity:1;stroke:#000000;stroke-width:11.70274511;stroke-linecap:round;stroke-linejoin:round;stroke-miterlimit:13.2;stroke-dasharray:none;stroke-opacity:1;paint-order:markers stroke fill"
       d="m 202.57791,105.0041 c -26.52277,13.62195 -42.92505,22.52142 -55.82974,29.78884 l 1.46623,-19.61502 c -48.362538,23.80236 -56.508048,5.09916 -93.333161,15.70923 l 8.436187,-9.59658 c 0.07574,-1.74028 0.727122,-0.82502 -1.941597,-1.83332 C 50.150714,115.85516 33.55197,116.73379 18.75427,116.11063 L 56.771029,100.62943 27.611108,95.799532 53.275328,87.728429 14.493013,72.896074 57.46266,75.154996 44.193405,61.160019 c 30.428073,12.528906 44.575138,23.968516 85.198225,24.495117 l 2.46032,-0.02046 -8.21788,-19.385241 30.38748,12.521775 -3.48856,-34.904087 z"
       id="path4"
       sodipodi:nodetypes="ccccccccccccccccccc"
       inkscape:label="outline" /><g
       id="g3"
       transform="matrix(1.5274443,0,0,1.5274443,-68.271638,-21.172041)"><path
         style="display:inline;fill:#ffffff;fill-opacity:1;stroke:none;stroke-width:0;stroke-linecap:round;stroke-linejoin:round;stroke-miterlimit:13.2;stroke-dasharray:none;stroke-opacity:1;paint-order:normal"
         d="m 140.77097,102.10846 31.67789,-17.352369 -14.02302,0.441645 -2.91215,6.189688 -3.15073,-4.819915 -5.43948,-1.092744 30.39859,-2.868712 -34.07322,-40.025659 2.28393,22.851303 -19.89434,-8.197865 7.33099,17.29313 -3.56158,-4.588457 C 99.866014,69.592424 90.550109,59.881257 73.629557,53.901842 l 8.687225,9.162344 -28.131727,-1.478887 25.390331,9.710576 -16.802068,5.284059 19.090663,3.162075 -24.889131,10.135359 c 9.758709,0.532524 22.246581,-0.11513 27.903841,2.190994 4.940393,-3.833835 13.557816,-5.096147 20.852399,-6.699694 l -9.502363,-8.309517 27.164283,1.700501 -24.928518,-0.946675 7.266598,7.555691 C 93.329046,86.595662 86.604868,91.334323 80.626757,99.551385 104.32123,92.331663 107.74728,105.62646 141.7309,89.266726 Z"
         id="path1"
         sodipodi:nodetypes="cccccccccccccccccccccccccccc" /><g
         id="g2"
         inkscape:label="mouth"><path
           style="fill:#ff8d8d;fill-opacity:0;stroke:#000000;stroke-width:2.64583;stroke-linecap:round;stroke-linejoin:round;stroke-miterlimit:13.2;stroke-dasharray:none;stroke-opacity:1;paint-order:markers stroke fill"
           d="m 178.05132,83.542865 c -10.0414,0.948302 -20.06794,1.948586 -30.34967,2.055704"
           id="path2"
           sodipodi:nodetypes="cc" /><path
           style="fill:#00ffff;fill-opacity:1;stroke:#000000;stroke-width:3.96875;stroke-linecap:round;stroke-linejoin:round;stroke-miterlimit:13.2;stroke-dasharray:none;stroke-opacity:1;paint-order:markers stroke fill"
           d="m 155.19174,90.319063 3.03088,-3.939169 c -3.52523,0.135957 -2.39005,0.09445 -5.85966,0.187615 z"
           id="path3"
           inkscape:label="tooth"
           sodipodi:nodetypes="cccc" /></g><g
         id="g9"
         inkscape:label="eye"
         style="display:inline"><circle
           style="display:inline;fill:#000000;fill-opacity:1;stroke:none;stroke-width:2.12154;stroke-linecap:round;stroke-linejoin:round;stroke-miterlimit:13.2;stroke-dasharray:none;stroke-opacity:1;paint-order:markers stroke fill"
           id="path8"
           cy="74.552025"
           cx="153.86664"
           r="6.9928813" /><circle
           style="display:inline;fill:#00ffff;fill-opacity:1;stroke:none;stroke-width:1.7728;stroke-linecap:round;stroke-linejoin:round;stroke-miterlimit:13.2;stroke-dasharray:none;stroke-opacity:1;paint-order:markers stroke fill"
           id="path9"
           cx="153.08835"
           cy="73.309097"
           r="3.4964409" /></g><path
         style="display:inline;fill:#000000;fill-opacity:0.324717;stroke:none;stroke-width:1.71979;stroke-linecap:round;stroke-linejoin:round;stroke-miterlimit:13.2;stroke-dasharray:none;stroke-opacity:1;paint-order:markers stroke fill"
         d="M 56.97485,89.877367 84.878689,92.06836 104.8784,84.623013 96.632082,77.669884 107.45843,78.154527 C 97.777397,73.096765 88.206475,67.652367 82.316782,63.064185 L 54.185055,61.585297 c 8.25244,3.156162 16.584922,6.342935 25.390329,9.710576 l -16.802066,5.28406 19.090659,3.162075 -24.889127,10.135359"
         id="path7"
         sodipodi:nodetypes="ccccccccccc"
         inkscape:label="shadow" /></g><g
       id="g6"
       transform="matrix(1.5274443,0,0,1.5274443,-68.271638,-21.172041)"><path
         style="display:inline;fill:none;fill-opacity:0;stroke:#000000;stroke-width:3.175;stroke-linecap:round;stroke-linejoin:round;stroke-miterlimit:13.2;stroke-dasharray:none;stroke-opacity:1;paint-order:markers stroke fill"
         d="m 127.70545,67.636449 c 2.47217,4.619032 2.02403,4.197357 3.65816,7.38005"
         id="path5"
         sodipodi:nodetypes="cc" /><path
         style="display:inline;fill:none;fill-opacity:0;stroke:#000000;stroke-width:3.175;stroke-linecap:round;stroke-linejoin:round;stroke-miterlimit:13.2;stroke-dasharray:none;stroke-opacity:1;paint-order:markers stroke fill"
         d="m 83.301499,93.454759 c 7.626078,-4.626768 16.852791,-8.130105 23.667121,-8.065078 L 96.632083,77.669885 c 8.438437,0.669905 16.865917,1.197436 26.268097,1.254043"
         id="path6"
         sodipodi:nodetypes="cccc" /></g></g></svg>
