<?xml version="1.0" encoding="UTF-8" standalone="no"?>
<!-- Created with Inkscape (http://www.inkscape.org/) -->

<svg
   width="270.93332mm"
   height="270.93332mm"
   viewBox="0 0 270.93332 270.93332"
   version="1.1"
   id="svg1"
   inkscape:version="1.4.3 (0d15f75042, 2025-12-25)"
   sodipodi:docname="AutoCheckpoint.svg"
   xml:space="preserve"
   xmlns:inkscape="http://www.inkscape.org/namespaces/inkscape"
   xmlns:sodipodi="http://sodipodi.sourceforge.net/DTD/sodipodi-0.dtd"
   xmlns="http://www.w3.org/2000/svg"
   xmlns:svg="http://www.w3.org/2000/svg"><sodipodi:namedview
     id="namedview1"
     pagecolor="#4d4d4d"
     bordercolor="#eeeeee"
     borderopacity="1"
     inkscape:showpageshadow="0"
     inkscape:pageopacity="0"
     inkscape:pagecheckerboard="false"
     inkscape:deskcolor="#181825"
     inkscape:document-units="px"
     inkscape:zoom="0.68750004"
     inkscape:cx="253.09089"
     inkscape:cy="575.99997"
     inkscape:window-width="1886"
     inkscape:window-height="1002"
     inkscape:window-x="0"
     inkscape:window-y="0"
     inkscape:window-maximized="1"
     inkscape:current-layer="layer1" /><defs
     id="defs1"><rect
       x="511.99992"
       y="256.00001"
       width="357.94926"
       height="148.45238"
       id="rect3" /><inkscape:path-effect
       effect="offset"
       id="path-effect5"
       is_visible="true"
       lpeversion="1.3"
       linejoin_type="miter"
       unit="px"
       offset="-25"
       miter_limit="4"
       attempt_force_join="false"
       update_on_knot_move="true" /><inkscape:path-effect
       effect="offset"
       id="path-effect4"
       is_visible="true"
       lpeversion="1.3"
       linejoin_type="miter"
       unit="px"
       offset="25"
       miter_limit="4"
       attempt_force_join="false"
       update_on_knot_move="true" /><inkscape:path-effect
       effect="offset"
       id="path-effect2"
       is_visible="true"
       lpeversion="1.3"
       linejoin_type="miter"
       unit="px"
       offset="-24.999846"
       miter_limit="4"
       attempt_force_join="false"
       update_on_knot_move="true" /><inkscape:path-effect
       effect="offset"
       id="path-effect9"
       is_visible="true"
       lpeversion="1.3"
       linejoin_type="round"
       unit="px"
       offset="13.665666"
       miter_limit="4"
       attempt_force_join="false"
       update_on_knot_move="true" /><inkscape:path-effect
       effect="offset"
       id="path-effect7"
       is_visible="true"
       lpeversion="1.3"
       linejoin_type="round"
       unit="px"
       offset="6.16757"
       miter_limit="4"
       attempt_force_join="false"
       update_on_knot_move="true" /><rect
       x="511.99992"
       y="256.00001"
       width="357.94926"
       height="148.45238"
       id="rect6" /></defs><g
     inkscape:label="Calque 1"
     inkscape:groupmode="layer"
     id="layer1"><g
       id="g2"
       inkscape:label="template"
       style="display:none;stroke:none"><rect
         style="fill:#ff0000;stroke:none;stroke-width:3.96875;stroke-linecap:round;stroke-linejoin:round;paint-order:stroke fill markers"
         id="rect1"
         width="135.46666"
         height="135.46666"
         x="67.73333"
         y="67.73333" /><rect
         style="fill:#00ff00;stroke:none;stroke-width:2.80129;stroke-linecap:round;stroke-linejoin:round;paint-order:stroke fill markers"
         id="rect2"
         width="95.617188"
         height="95.61721"
         x="87.658058"
         y="107.58277" /><rect
         style="fill:#00ffff;stroke:none;stroke-width:1.02092;stroke-linecap:round;stroke-linejoin:round;paint-order:stroke fill markers"
         id="rect4"
         width="95.617188"
         height="12.7"
         x="87.658058"
         y="94.882774" /><rect
         style="fill:#00ffff;stroke:none;stroke-width:0.589428;stroke-linecap:round;stroke-linejoin:round;paint-order:stroke fill markers"
         id="rect5"
         width="95.617188"
         height="4.2333336"
         x="87.658058"
         y="63.5" /></g><g
       id="g9"
       transform="matrix(3.3358784,0,0,3.3358784,78.978253,98.758932)"
       style="stroke-width:0.69298"><path
         d="M 16.933594,6.3496094 A 0.79314443,0.79314443 0 0 0 16.226562,6.7851562 L 13.75,11.679688 11.273438,16.576172 a 0.79314443,0.79314443 0 0 0 0,0.714844 L 13.75,22.1875 l 2.476562,4.894531 a 0.79314443,0.79314443 0 0 0 1.414063,0 L 20.117187,22.1875 22.59375,17.291016 a 0.79314443,0.79314443 0 0 0 0,-0.714844 L 20.117187,11.679688 17.640625,6.7851562 A 0.79314443,0.79314443 0 0 0 16.933594,6.3496094 Z"
         style="display:inline;fill:#000000;stroke-width:1.46428;stroke-linecap:round;stroke-linejoin:round;paint-order:stroke fill markers"
         id="path7"
         inkscape:path-effect="#path-effect9"
         inkscape:original-d="m 16.933334,7.141683 -2.476335,4.895825 -2.476335,4.895826 2.476335,4.895825 2.476335,4.895825 2.476334,-4.895825 2.476335,-4.895825 -2.476335,-4.895826 z"
         transform="matrix(1.3665666,0,0,1.3665666,-6.2072903,-6.2073751)" /><path
         d="m 16.933594,6.7460937 a 0.39657221,0.39657221 0 0 0 -0.353516,0.2167969 l -2.476562,4.8945314 -2.476563,4.896484 a 0.39657221,0.39657221 0 0 0 0,0.359375 l 2.476563,4.896485 2.476562,4.894531 a 0.39657221,0.39657221 0 0 0 0.707031,0 l 2.476563,-4.894531 2.476562,-4.896485 a 0.39657221,0.39657221 0 0 0 0,-0.359375 L 19.763672,11.857422 17.287109,6.9628906 A 0.39657221,0.39657221 0 0 0 16.933594,6.7460937 Z"
         style="fill:#ffffff;stroke-width:1.46428;stroke-linecap:round;stroke-linejoin:round;paint-order:stroke fill markers"
         id="path6"
         inkscape:path-effect="#path-effect7"
         inkscape:original-d="m 16.933334,7.141683 -2.476335,4.895825 -2.476335,4.895826 2.476335,4.895825 2.476335,4.895825 2.476334,-4.895825 2.476335,-4.895825 -2.476335,-4.895826 z"
         transform="matrix(1.233514,0,0,1.233514,-3.9542308,-3.9540155)" /><path
         sodipodi:type="star"
         style="fill:#fff899;fill-opacity:1;stroke-width:1.46428;stroke-linecap:round;stroke-linejoin:round;paint-order:stroke fill markers"
         id="path2"
         inkscape:flatsided="false"
         sodipodi:sides="3"
         sodipodi:cx="17.779093"
         sodipodi:cy="12.124857"
         sodipodi:r1="4.879715"
         sodipodi:r2="2.4398575"
         sodipodi:arg1="0.52359878"
         sodipodi:arg2="1.5707963"
         inkscape:rounded="0"
         inkscape:randomized="0"
         d="m 22.00505,14.564714 -4.225957,0 -4.225957,0 2.112978,-3.659786 2.112979,-3.659786 2.112978,3.659786 z"
         inkscape:transform-center-y="-1.6319826"
         transform="matrix(1.1720169,0,0,1.3377685,-3.9040646,-2.5508836)" /><path
         sodipodi:type="star"
         style="fill:#ffee00;fill-opacity:1;stroke-width:1.46428;stroke-linecap:round;stroke-linejoin:round;paint-order:stroke fill markers"
         id="path3"
         inkscape:flatsided="false"
         sodipodi:sides="3"
         sodipodi:cx="17.779093"
         sodipodi:cy="12.124857"
         sodipodi:r1="4.879715"
         sodipodi:r2="2.4398575"
         sodipodi:arg1="0.52359878"
         sodipodi:arg2="1.5707963"
         inkscape:rounded="0"
         inkscape:randomized="0"
         d="m 22.00505,14.564714 -4.225957,0 -4.225957,0 2.112978,-3.659786 2.112979,-3.659786 2.112978,3.659786 z"
         inkscape:transform-center-y="1.6319831"
         transform="matrix(-1.1720169,0,0,-1.3377685,37.77073,36.417549)" /></g><path
       style="font-size:59.4596px;font-family:Pusab;-inkscape-font-specification:Pusab;text-align:center;letter-spacing:0px;word-spacing:0px;text-anchor:middle;white-space:pre;fill:#ffffff;stroke-width:36.3546;stroke-linecap:round;stroke-linejoin:round;stroke-miterlimit:31.2;paint-order:markers stroke fill"
       d="m 555.07968,306.3586 c 0.11892,-0.53514 0.17838,-1.01081 0.17838,-1.42703 0,-1.54595 -0.77297,-2.55676 -2.25946,-3.0919 -0.77298,-0.2973 -2.20001,-0.41622 -4.16218,-0.47568 -1.84324,-0.0595 -3.03244,1.01082 -3.44865,3.21082 -0.53514,2.37839 -2.02163,3.56758 -4.45947,3.56758 -2.7946,0 -4.16217,-3.0919 -4.16217,-9.33516 0,-0.53514 0.0595,-1.36757 0.11891,-2.55676 0.2973,-4.10271 1.48649,-6.30272 3.62704,-6.60002 2.91352,-0.41621 4.63785,1.18919 5.23244,4.75677 0.2973,1.60541 1.36758,2.25947 3.21082,2.02163 2.43785,-0.2973 3.80542,-0.47568 4.22163,-0.65406 1.54595,-0.53513 2.20001,-1.60541 2.02163,-3.0919 -0.53514,-4.51893 -3.03244,-8.0865 -7.43245,-10.64327 -3.62703,-2.14054 -7.72975,-3.21081 -12.18922,-3.21081 -6.36217,0 -11.29732,1.78378 -14.8649,5.2919 -3.56757,3.50812 -5.35136,8.3838 -5.35136,14.68652 0,6.54056 1.90271,11.53516 5.64866,14.98382 3.62704,3.3892 8.74056,5.05407 15.34058,5.05407 9.33516,0 15.57841,-4.16218 18.72977,-12.48652 z m 38.05415,-18.31356 c -0.17837,-1.24865 -0.71351,-2.14054 -1.72432,-2.67568 -0.83244,-0.59459 -3.3892,-0.89189 -7.72975,-0.89189 -2.31893,0 -3.44866,1.12973 -3.44866,3.38919 l 0.2973,6.4811 c 0.0595,1.54595 0,2.4973 -0.17838,2.7946 -0.2973,0.47568 -1.18919,0.71352 -2.73514,0.77298 -2.7946,0.0595 -3.27028,-0.65406 -3.27028,-3.56758 0,-0.2973 0,-0.71351 0.0595,-1.30811 0.11892,-1.90271 0.17838,-3.27028 0.17838,-4.04325 -0.0595,-2.02163 -0.83243,-3.3892 -2.31892,-4.04326 -0.71352,-0.29729 -2.37839,-0.47567 -4.99461,-0.47567 -3.74596,0 -6.24326,0.65405 -7.61083,1.96216 -1.12973,1.12974 -1.72433,3.03244 -1.78379,5.70813 0.0595,2.73514 0.17838,5.76758 0.2973,9.09731 0,9.573 0.41622,14.62707 1.18919,15.1622 1.07028,1.01082 3.21082,1.66487 6.4811,1.84325 1.48649,0.0595 2.85406,0 4.22163,-0.2973 1.84325,-0.41622 3.03244,-1.12973 3.56758,-2.08108 0.29729,-0.71352 0.47567,-1.90271 0.47567,-3.50812 v -2.91352 c 0,-0.65406 0,-1.18919 0.0595,-1.60541 0.11892,-1.12973 0.47568,-1.84325 1.07028,-2.20001 0.41621,-0.23783 1.18919,-0.41621 2.43784,-0.47567 1.84325,-0.11892 2.7946,0.41622 2.85406,1.60541 0.0595,0.41621 0.0595,1.07027 0,1.96216 l -0.17838,4.93515 c 0,0.35676 0.0595,1.07027 0.11892,2.08109 0.17838,1.66487 1.42703,2.4973 3.74595,2.4973 4.75677,0 7.55137,-0.35676 8.44327,-1.12973 0.65405,-0.5946 1.07027,-2.37839 1.18919,-5.41083 V 305.764 c 0,-3.27027 -0.11892,-7.43245 -0.41622,-12.60543 -0.17838,-3.21082 -0.23784,-4.93515 -0.2973,-5.11353 z m 32.8812,21.10816 c -2.14055,0.2973 -3.80542,0.47568 -4.99461,0.47568 -1.78379,0.0595 -2.85406,-0.0595 -3.21082,-0.2973 -0.65405,-0.41622 -1.01081,-1.12973 -1.01081,-2.20001 0,-0.77297 0.17838,-1.36757 0.53514,-1.78378 0.71351,-0.5946 2.02162,-0.8919 3.86487,-0.83244 1.90271,0.0595 3.03244,-0.0595 3.44866,-0.35676 0.65405,-0.41621 1.01081,-1.30811 1.01081,-2.67568 0,-2.02162 -0.5946,-3.03244 -1.78379,-3.0919 -2.43784,-0.11892 -3.86487,-0.23783 -4.34055,-0.29729 -1.84325,-0.35676 -2.73514,-1.1892 -2.73514,-2.43785 0,-1.12973 0.2973,-1.84325 0.95135,-2.2 0.47568,-0.2973 1.54595,-0.41622 3.27028,-0.35676 0.53514,0 1.36757,0.11892 2.4973,0.2973 1.12974,0.17838 2.02163,0.2973 2.61623,0.2973 0.77297,0 1.36757,-0.53514 1.78379,-1.54595 0.29729,-0.77298 0.47567,-1.66487 0.47567,-2.55677 0,-1.36757 -0.47567,-2.37838 -1.48649,-3.03244 -0.59459,-0.41621 -1.72433,-0.77297 -3.32974,-1.07027 -3.44865,-0.65405 -7.43245,-1.01081 -11.95137,-1.01081 -7.67029,0 -11.95138,0.95135 -12.9622,2.85406 -0.65405,1.24865 -1.01081,6.00542 -1.01081,14.2703 v 4.16217 c 0,5.64867 0.47568,9.09732 1.42703,10.28651 1.18919,1.48649 5.5892,2.20001 13.20003,2.20001 4.63785,0 8.3838,-0.2973 11.29732,-0.83243 3.21082,-0.5946 4.81623,-1.96217 4.81623,-4.10272 0,-3.03244 -0.77297,-4.40001 -2.37838,-4.16217 z m 37.7568,-4.45947 c -0.77298,-0.77297 -2.4973,-1.12973 -5.05407,-1.18919 -1.18919,-0.0595 -2.02162,0.41622 -2.43784,1.42703 -0.41622,1.01081 -0.77298,1.96217 -1.18919,2.91352 -0.65406,1.01081 -1.72433,1.54595 -3.27028,1.54595 -2.43784,0 -3.62704,-2.73514 -3.62704,-8.14597 0,-0.41621 0.0595,-1.18919 0.11892,-2.2 0.2973,-3.62704 1.30811,-5.52974 3.15136,-5.76758 2.4973,-0.35676 4.04325,1.01081 4.57839,4.16217 0.17838,1.18919 0.89189,1.78379 2.08109,1.78379 0.0595,0 0.29729,0 0.71351,-0.0595 1.84325,-0.17838 3.03244,-0.35676 3.6865,-0.5946 1.36757,-0.47567 1.96216,-1.36757 1.78379,-2.67568 -0.47568,-3.98379 -2.61623,-7.07569 -6.4811,-9.33516 -3.0919,-1.84324 -6.65948,-2.73514 -10.70273,-2.73514 -10.94057,0 -17.60004,6.4811 -17.60004,17.42166 0,11.35679 6.89731,17.54059 18.31356,17.54059 8.14596,0 13.61624,-3.62704 16.41085,-10.94057 0.0595,-0.41622 0.11891,-0.83243 0.11891,-1.24865 0,-0.77298 -0.17837,-1.42703 -0.59459,-1.90271 z m 12.84325,-20.21626 c -4.6973,0 -7.4919,0.47567 -8.26488,1.42703 -0.95135,0.89189 -1.42703,6.30272 -1.42703,16.11355 0,9.09732 0.47568,14.03246 1.36757,14.92436 0.23784,0.23784 0.65406,0.47568 1.18919,0.71351 1.30811,0.41622 3.0919,0.5946 5.41083,0.5946 h 2.2 c 2.7946,-0.2973 4.57839,-0.95135 5.35137,-2.02163 0.65405,-0.89189 0.95135,-2.7946 0.89189,-5.76758 0,-1.24865 0.17838,-1.84325 0.47568,-1.84325 0.47567,0 1.24865,1.01082 2.37838,3.0919 0.65406,1.72433 1.12973,2.91352 1.42703,3.56758 0.77298,2.08109 2.61622,3.0919 5.52974,2.97298 1.60541,-0.0595 3.0919,-0.17838 4.45947,-0.2973 2.14055,-0.17838 3.21082,-1.24865 3.21082,-3.21082 0,-0.53513 -0.0595,-1.07027 -0.17838,-1.60541 -0.89189,-3.98379 -3.21082,-8.26488 -6.89731,-12.96219 -0.47568,-0.59459 -0.5946,-1.01081 -0.2973,-1.30811 4.10271,-6.1838 6.1838,-10.10813 6.1838,-11.83246 0,-1.07027 -0.77298,-1.72433 -2.25947,-1.90271 l -3.56757,-0.11892 c -1.72433,-0.0595 -3.0919,0.95136 -4.04325,3.0919 -0.77298,1.78379 -2.14055,4.34055 -4.10272,7.72975 -0.41621,0.53514 -0.83243,0.83244 -1.24865,0.83244 -0.41622,0.0595 -0.59459,-0.35676 -0.59459,-1.1892 0,-0.71351 0,-1.78378 0.0595,-3.27027 0.0595,-1.48649 0.0595,-2.55677 0.0595,-3.27028 0,-2.97298 -1.54595,-4.45947 -4.63785,-4.45947 z m 52.85962,11.00002 c 0,1.72433 -1.18919,2.67569 -3.62704,2.85406 -2.67568,0.17838 -3.98379,-0.77297 -3.98379,-2.85406 -0.11892,-1.24865 0.35676,-2.02162 1.36757,-2.43784 0.71352,-0.2973 1.72433,-0.41622 3.0919,-0.2973 l 0.77297,0.0595 c 1.60541,0.11892 2.37839,1.01081 2.37839,2.67568 z m -7.61083,13.08112 c 0,-0.8919 0.23784,-1.54595 0.65406,-2.02163 0.17837,-0.23784 0.65405,-0.41622 1.36757,-0.5946 0.23783,-0.0595 0.71351,-0.11892 1.48649,-0.23784 l 2.2,-0.29729 c 3.3892,-0.47568 5.82704,-1.42703 7.37299,-2.7946 1.72433,-1.54595 2.61622,-3.92434 2.61622,-7.0757 0,-7.37299 -5.41082,-11.05948 -16.23247,-11.05948 h -4.63785 c -7.31353,0 -11.4757,0.95135 -12.48651,2.85406 -0.65406,1.24865 -1.01081,6.00542 -1.01081,14.2703 0,8.56218 0.47567,13.43787 1.42703,14.5676 0.71351,0.8919 1.78378,1.48649 3.27027,1.78379 1.66487,0.17838 2.91352,0.2973 3.80542,0.2973 1.72433,0.0595 2.85406,0.0595 3.3892,0 3.32973,-0.23784 5.41082,-1.12973 6.18379,-2.67568 0.41622,-0.77298 0.5946,-2.08109 0.5946,-3.92434 z m 53.8704,-7.19462 c 0,-2.02162 -0.35676,-4.22163 -1.01082,-6.54055 -2.91352,-7.31353 -8.62164,-10.94057 -17.18382,-10.94057 -11.00003,0 -17.60004,6.4811 -17.60004,17.48112 0,10.94057 6.65947,17.42167 17.60004,17.42167 5.52974,0 9.92975,-1.54595 13.20003,-4.63785 3.32974,-3.0919 4.99461,-7.37299 4.99461,-12.78382 z m -16.88653,7.72975 c -0.77297,0.17838 -1.42703,0 -2.08109,-0.65405 -1.72432,-1.72433 -2.61622,-4.40001 -2.61622,-8.02705 0,-0.53514 0,-1.12973 0.0595,-1.78379 0.23784,-3.56757 1.30811,-5.2919 3.15136,-5.17298 1.72433,0.11892 2.97298,1.54595 3.62704,4.28109 0.41621,1.84325 0.59459,3.86487 0.47567,6.06488 -0.17838,3.15136 -1.07027,4.87568 -2.61622,5.2919 z m 36.32982,-20.09734 c 0.0595,-2.91352 -1.60541,-4.40001 -4.93515,-4.45947 -1.60541,-0.0595 -2.55676,-0.0595 -2.85406,-0.0595 -3.56757,0 -6.06488,0.65405 -7.43245,1.96216 -1.12973,1.12974 -1.78379,2.97298 -1.84325,5.58921 0.11892,2.73514 0.17838,5.5892 0.17838,8.56218 v 7.90813 c 0.11892,4.57838 0.47568,7.13515 1.07028,7.67028 1.48649,1.36757 3.86487,2.02163 7.13515,2.08109 h 1.54595 c 2.4973,-0.11892 4.22163,-0.47568 5.11352,-1.12973 1.12973,-0.8919 1.72433,-2.49731 1.78379,-4.81623 z m 35.49739,-0.83244 c -0.17838,-2.43784 -1.18919,-3.62703 -3.0919,-3.62703 h -1.84325 c -2.4973,0 -3.68649,1.12973 -3.62703,3.32973 0.17838,3.9838 0.23784,6.12434 0.23784,6.36218 -0.0595,0.2973 -0.11892,0.47568 -0.2973,0.47568 -0.11892,0 -0.35676,-0.17838 -0.71352,-0.53514 -1.30811,-1.36757 -3.32973,-3.56757 -6.12434,-6.71893 -1.72432,-1.90271 -3.50811,-2.85406 -5.47028,-2.91352 l -3.80541,-0.0595 c -2.25947,-0.0595 -3.92434,0.47567 -4.99461,1.60541 -1.18919,1.24865 -1.84325,6.12434 -1.90271,14.74598 -0.0595,3.86487 0.0595,8.32434 0.35676,13.25949 0.17838,2.67568 1.12973,4.04325 2.97298,4.10271 l 2.02163,0.0595 c 2.43784,0.0595 3.86487,-1.01081 3.62703,-3.44866 -0.11892,-1.12973 -0.17838,-2.02162 -0.17838,-2.61622 v -2.2 c 0,-1.36758 0.17838,-2.02163 0.53514,-2.02163 0.11892,0 0.23784,0.0595 0.41622,0.17838 1.48649,1.18919 4.28109,3.74595 8.3838,7.72975 1.60541,1.54595 3.62704,2.31892 5.94596,2.31892 h 3.56758 c 1.18919,0 2.2,-0.41622 3.0919,-1.18919 0.41621,-0.35676 0.65405,-0.8919 0.83243,-1.66487 0.2973,-1.24865 0.41622,-4.45947 0.41622,-9.573 0,-7.72974 -0.11892,-13.61624 -0.35676,-17.60004 z m 10.40545,6.95678 c -0.35676,9.15677 -0.47568,14.92436 -0.2973,17.3622 0.11892,1.96217 0.41622,3.21082 0.89189,3.68649 1.36757,1.36757 3.74596,2.02163 7.13515,2.08109 h 1.48649 c 2.43785,-0.11892 4.16218,-0.47568 5.11353,-1.12973 1.24865,-0.83244 1.84325,-2.43785 1.84325,-4.81623 l 0.11892,-16.17301 c 0,-1.72433 0.83243,-2.61622 2.4973,-2.55676 0.47568,0 1.84325,0.11892 2.4973,0.11892 1.12974,0 1.90271,-0.11892 2.37839,-0.35676 1.24865,-0.65406 1.84324,-2.25947 1.84324,-4.81623 0,-1.36757 -0.59459,-2.31892 -1.72432,-2.73514 -1.96217,-0.77298 -5.05407,-1.18919 -9.21624,-1.24865 -5.94596,-0.11892 -11.65408,0.0595 -17.06491,0.47567 -3.44865,0.2973 -5.17298,1.60541 -5.17298,4.04326 0,3.15136 1.01081,4.63785 3.0919,4.45947 l 2.61622,-0.17838 c 1.36757,-0.0595 2.02163,0.53513 1.96217,1.78379 z"
       id="text4"
       transform="matrix(0.66118841,0,0,0.66118841,-321.39776,-115.34421)"
       aria-label="Checkpoint" /><path
       style="font-size:59.4596px;font-family:Pusab;-inkscape-font-specification:Pusab;text-align:center;letter-spacing:0px;word-spacing:0px;text-anchor:middle;white-space:pre;fill:#ffffff;stroke-width:36.3546;stroke-linecap:round;stroke-linejoin:round;stroke-miterlimit:31.2;paint-order:markers stroke fill"
       d="m 636.06367,279.24502 c -1.84325,0.0595 -3.50812,0.8919 -4.99461,2.37839 -1.01081,1.01081 -2.25946,2.97298 -3.86487,5.94596 -2.37839,4.45947 -4.63785,9.51353 -6.83786,15.28111 -2.31892,6.00542 -3.44865,10.1676 -3.3892,12.48652 0.0595,1.90271 2.08109,2.73514 6.1838,2.55676 2.55677,-0.17838 3.32974,-1.01081 3.9838,-3.56757 0.47567,-1.78379 1.24865,-2.67569 2.25946,-2.73515 1.48649,-0.0595 2.55676,-0.0595 3.15136,0 h 3.92433 c 0.8919,0 1.60541,0.47568 2.08109,1.42704 0.41622,1.12973 0.71351,2.02162 0.89189,2.61622 0.65406,1.84324 3.86488,2.67568 9.69192,2.61622 2.97298,-0.0595 5.17298,-0.2973 6.54055,-0.77298 2.37839,-0.77297 2.91352,-1.54594 2.67569,-3.98379 -0.41622,-4.51893 -2.91352,-11.35678 -7.49191,-20.57302 -3.03244,-6.12434 -5.29191,-9.87029 -6.71894,-11.29732 -1.72433,-1.72433 -3.86487,-2.49731 -6.30272,-2.43785 z m -3.74596,19.50275 c 0.41622,0 1.36757,1.84325 2.73514,5.52974 0.2973,0.83244 -0.53513,1.24866 -2.61622,1.24866 -2.08109,0 -2.97298,-0.35676 -2.73514,-1.12974 1.18919,-3.74595 2.08108,-5.64866 2.61622,-5.64866 z m 60.9461,-4.34055 c -0.11892,-3.15136 -0.17838,-5.52974 -0.23784,-7.25407 -0.0595,-1.48649 -1.48649,-2.25947 -4.34055,-2.25947 -2.91352,0 -4.34055,0.83244 -4.34055,2.43785 l 0.0595,15.28112 c 0,3.27027 -1.07027,4.9946 -3.27028,5.23244 h -0.95135 c -2.43785,0 -3.62704,-2.25946 -3.6865,-6.83785 0,-1.54595 0.0595,-3.62704 0.17838,-6.1838 0.17838,-2.7946 0.23784,-4.87569 0.23784,-6.12434 0.0595,-1.54595 -0.11892,-2.55676 -0.41622,-2.97298 -0.65405,-0.89189 -2.91352,-1.24865 -6.77839,-1.18919 -2.55676,0.0595 -4.28109,0.17838 -5.29191,0.23784 -3.21081,0.17837 -4.87568,2.73514 -4.93514,7.7892 -0.0595,2.7946 -0.0595,4.40001 -0.0595,4.81623 v 2.20001 c 0.0595,5.5892 1.54595,10.10813 4.34055,13.55678 3.03244,3.74596 7.31353,5.64867 12.72435,5.64867 3.0919,0 5.8865,-0.5946 8.32435,-1.78379 2.7946,-1.36757 4.81622,-3.27028 6.06488,-5.82704 1.54594,-3.03244 2.31892,-6.4811 2.37838,-10.28651 0.0595,-3.3892 0.0595,-5.58921 0,-6.4811 z m 10.10817,0.71352 c -0.35676,9.15677 -0.47568,14.92436 -0.2973,17.3622 0.11892,1.96217 0.41621,3.21082 0.89189,3.68649 1.36757,1.36757 3.74596,2.02163 7.13515,2.08109 h 1.48649 c 2.43785,-0.11892 4.16218,-0.47568 5.11353,-1.12973 1.24865,-0.83244 1.84325,-2.43785 1.84325,-4.81623 l 0.11892,-16.17301 c 0,-1.72433 0.83243,-2.61622 2.4973,-2.55676 0.47568,0 1.84325,0.11892 2.4973,0.11892 1.12973,0 1.90271,-0.11892 2.37839,-0.35676 1.24865,-0.65406 1.84324,-2.25947 1.84324,-4.81623 0,-1.36757 -0.59459,-2.31892 -1.72433,-2.73514 -1.96216,-0.77298 -5.05406,-1.18919 -9.21623,-1.24865 -5.94596,-0.11892 -11.65408,0.0595 -17.06491,0.47567 -3.44865,0.2973 -5.17298,1.60541 -5.17298,4.04326 0,3.15136 1.01081,4.63785 3.0919,4.45947 l 2.61622,-0.17838 c 1.36757,-0.0595 2.02162,0.53513 1.96217,1.78379 z m 61.65955,6.24325 c 0,-2.02162 -0.35676,-4.22163 -1.01081,-6.54055 -2.91352,-7.31353 -8.62165,-10.94057 -17.18383,-10.94057 -11.00002,0 -17.60004,6.4811 -17.60004,17.48112 0,10.94057 6.65948,17.42167 17.60004,17.42167 5.52974,0 9.92976,-1.54595 13.20003,-4.63785 3.32974,-3.0919 4.99461,-7.37299 4.99461,-12.78382 z m -16.88653,7.72975 c -0.77297,0.17838 -1.42703,0 -2.08108,-0.65405 -1.72433,-1.72433 -2.61622,-4.40001 -2.61622,-8.02705 0,-0.53514 0,-1.12973 0.0594,-1.78379 0.23784,-3.56757 1.30812,-5.2919 3.15136,-5.17298 1.72433,0.11892 2.97298,1.54595 3.62704,4.28109 0.41622,1.84325 0.59459,3.86487 0.47568,6.06488 -0.17838,3.15136 -1.07028,4.87568 -2.61623,5.2919 z"
       id="text3"
       transform="matrix(0.66713665,0,0,0.66713665,-325.50784,-148.61825)"
       aria-label="Auto" /></g></svg>
