<?xml version="1.0" encoding="UTF-8" standalone="no"?>
<!-- Created with Inkscape (http://www.inkscape.org/) -->

<svg
   width="270.93332mm"
   height="270.93332mm"
   viewBox="0 0 270.93332 270.93332"
   version="1.1"
   id="svg1"
   inkscape:version="1.4.2 (ebf0e940d0, 2025-05-08)"
   sodipodi:docname="CameraGameplayOffset.svg.2025_08_30_18_52_10.0.svg"
   xml:space="preserve"
   xmlns:inkscape="http://www.inkscape.org/namespaces/inkscape"
   xmlns:sodipodi="http://sodipodi.sourceforge.net/DTD/sodipodi-0.dtd"
   xmlns="http://www.w3.org/2000/svg"
   xmlns:svg="http://www.w3.org/2000/svg"><sodipodi:namedview
     id="namedview1"
     pagecolor="#4d4d4d"
     bordercolor="#eeeeee"
     borderopacity="1"
     inkscape:showpageshadow="0"
     inkscape:pageopacity="0"
     inkscape:pagecheckerboard="false"
     inkscape:deskcolor="#181825"
     inkscape:document-units="px"
     inkscape:zoom="0.27345145"
     inkscape:cx="-159.0776"
     inkscape:cy="574.14214"
     inkscape:window-width="1920"
     inkscape:window-height="1080"
     inkscape:window-x="0"
     inkscape:window-y="0"
     inkscape:window-maximized="1"
     inkscape:current-layer="g12"
     showguides="false" /><defs
     id="defs1"><inkscape:path-effect
       effect="fillet_chamfer"
       id="path-effect11"
       is_visible="true"
       lpeversion="1"
       nodesatellites_param="F,0,0,1,0,2.6458334,0,1 @ F,0,0,1,0,2.6458334,0,1 @ F,0,0,1,0,2.6458334,0,1 @ F,0,0,1,0,2.6458334,0,1 @ F,0,0,1,0,2.6458334,0,1"
       radius="10"
       unit="px"
       method="auto"
       mode="F"
       chamfer_steps="1"
       flexible="false"
       use_knot_distance="true"
       apply_no_radius="true"
       apply_with_radius="true"
       only_selected="false"
       hide_knots="false" /><inkscape:path-effect
       effect="fillet_chamfer"
       id="path-effect8"
       is_visible="true"
       lpeversion="1"
       nodesatellites_param="F,0,0,1,0,0.79375001,0,1 @ F,0,0,1,0,0.79375001,0,1 @ F,0,0,1,0,0.79375001,0,1 @ F,0,0,1,0,0.79375001,0,1 @ F,0,0,1,0,0.79375001,0,1 @ F,0,0,1,0,0.79375001,0,1"
       radius="3"
       unit="px"
       method="auto"
       mode="F"
       chamfer_steps="1"
       flexible="false"
       use_knot_distance="true"
       apply_no_radius="true"
       apply_with_radius="true"
       only_selected="false"
       hide_knots="false" /><inkscape:path-effect
       effect="mirror_symmetry"
       start_point="126.37464,155.4769"
       end_point="126.37464,174.20808"
       center_point="126.37464,164.84249"
       id="path-effect4"
       is_visible="true"
       lpeversion="1.2"
       lpesatellites=""
       mode="free"
       discard_orig_path="false"
       fuse_paths="true"
       oposite_fuse="false"
       split_items="false"
       split_open="false"
       link_styles="false" /><inkscape:path-effect
       effect="offset"
       id="path-effect10"
       is_visible="true"
       lpeversion="1.3"
       linejoin_type="miter"
       unit="px"
       offset="-19.785912"
       miter_limit="4"
       attempt_force_join="false"
       update_on_knot_move="true" /><inkscape:path-effect
       effect="fillet_chamfer"
       id="path-effect9"
       is_visible="true"
       lpeversion="1"
       nodesatellites_param="F,0,0,1,0,5,0,1 @ F,0,0,1,0,5,0,1 @ F,0,0,1,0,5,0,1 @ F,0,0,1,0,5,0,1 @ F,0,0,1,0,5,0,1 @ F,0,0,1,0,5,0,1 @ F,0,0,1,0,5,0,1 @ F,0,0,1,0,5,0,1 @ F,0,0,1,0,5,0,1"
       radius="5"
       unit="px"
       method="auto"
       mode="F"
       chamfer_steps="1"
       flexible="false"
       use_knot_distance="true"
       apply_no_radius="true"
       apply_with_radius="true"
       only_selected="false"
       hide_knots="false" /><inkscape:path-effect
       effect="fillet_chamfer"
       id="path-effect7"
       is_visible="true"
       lpeversion="1"
       nodesatellites_param="F,0,0,1,0,12.5,0,1 @ F,0,0,1,0,12.5,0,1 @ F,0,0,1,0,12.5,0,1 @ F,0,0,1,0,0,0,1 @ F,0,0,1,0,12.5,0,1 @ F,0,0,1,0,12.5,0,1 @ F,0,0,1,0,0,0,1 @ F,0,0,1,0,12.5,0,1"
       radius="12.5"
       unit="px"
       method="auto"
       mode="F"
       chamfer_steps="1"
       flexible="false"
       use_knot_distance="true"
       apply_no_radius="true"
       apply_with_radius="true"
       only_selected="false"
       hide_knots="false" /><inkscape:path-effect
       effect="mirror_symmetry"
       start_point="87.694907,155.3909"
       end_point="208.49167,155.3909"
       center_point="148.09329,155.3909"
       id="path-effect3"
       is_visible="true"
       lpeversion="1.2"
       lpesatellites=""
       mode="Y"
       discard_orig_path="false"
       fuse_paths="false"
       oposite_fuse="true"
       split_items="false"
       split_open="false"
       link_styles="false" /><inkscape:path-effect
       effect="fillet_chamfer"
       id="path-effect6"
       is_visible="false"
       lpeversion="1"
       nodesatellites_param="F,0,0,1,0,4,0,1 @ F,0,0,1,0,4,0,1 @ F,0,0,1,0,4,0,1 @ F,0,0,1,0,4,0,1 @ F,0,0,1,0,4,0,1 @ F,0,0,1,0,4,0,1 @ F,0,0,1,0,4,0,1 | F,0,0,1,0,4,0,1 @ F,0,0,1,0,4,0,1 @ F,0,0,1,0,4,0,1 @ F,0,0,1,0,4,0,1 @ F,0,0,1,0,4,0,1 @ F,0,0,1,0,4,0,1 @ F,0,0,1,0,4,0,1"
       radius="4"
       unit="px"
       method="auto"
       mode="F"
       chamfer_steps="1"
       flexible="false"
       use_knot_distance="true"
       apply_no_radius="true"
       apply_with_radius="true"
       only_selected="false"
       hide_knots="false" /><inkscape:path-effect
       effect="mirror_symmetry"
       start_point="87.694907,155.3909"
       end_point="208.49167,155.3909"
       center_point="148.09329,155.3909"
       id="path-effect5"
       is_visible="true"
       lpeversion="1.2"
       lpesatellites=""
       mode="Y"
       discard_orig_path="false"
       fuse_paths="false"
       oposite_fuse="true"
       split_items="false"
       split_open="false"
       link_styles="false" /><inkscape:path-effect
       effect="gears"
       id="path-effect1"
       is_visible="true"
       lpeversion="1"
       teeth="10"
       phi="5"
       min_radius="5" /><inkscape:path-effect
       effect="offset"
       id="path-effect2"
       is_visible="true"
       lpeversion="1.2"
       linejoin_type="miter"
       unit="px"
       offset="-25"
       miter_limit="4"
       attempt_force_join="false"
       update_on_knot_move="true" /></defs><g
     inkscape:label="Calque 1"
     inkscape:groupmode="layer"
     id="layer1"><g
       id="g2"
       inkscape:label="template"
       style="display:none"><rect
         style="fill:#ff0000;stroke-width:3.96875;stroke-linecap:round;stroke-linejoin:round;paint-order:stroke fill markers"
         id="rect1"
         width="135.46666"
         height="135.46666"
         x="67.73333"
         y="67.73333" /><rect
         style="fill:#00ff00;stroke-width:2.80129;stroke-linecap:round;stroke-linejoin:round;paint-order:stroke fill markers"
         id="rect2"
         width="95.617188"
         height="95.61721"
         x="87.658058"
         y="107.58277" /><rect
         style="fill:#00ffff;stroke-width:1.02092;stroke-linecap:round;stroke-linejoin:round;paint-order:stroke fill markers"
         id="rect4"
         width="95.617188"
         height="12.7"
         x="87.658058"
         y="94.882774" /><rect
         style="fill:#00ffff;stroke-width:0.589428;stroke-linecap:round;stroke-linejoin:round;paint-order:stroke fill markers"
         id="rect5"
         width="95.617188"
         height="4.2333336"
         x="87.658058"
         y="63.5" /></g><path
       d="m 81.892578,119.4082 v 71.96485 a 5,5 45 0 0 5,5 h 71.931642 a 5,5 135 0 0 5,-5 v -12.83594 a 3.6924948,3.6924948 143.55417 0 1 4.77875,-3.5291 l 15.65929,4.81992 a 3.6924948,3.6924948 143.55417 0 0 4.77876,-3.5291 v -41.81641 a 3.6924948,3.6924948 36.445829 0 0 -4.77876,-3.5291 l -15.65929,4.81992 a 3.6924948,3.6924948 36.445829 0 1 -4.77875,-3.5291 V 119.4082 a 5,5 45 0 0 -5,-5 H 128.75391 86.892578 a 5,5 135 0 0 -5,5 z"
       style="fill:#7fff7f;fill-opacity:1;stroke:#000000;stroke-width:17.2202;stroke-linecap:round;stroke-linejoin:round;stroke-dasharray:none;stroke-opacity:1;paint-order:stroke fill markers"
       id="path7"
       sodipodi:nodetypes="cccccccccc"
       inkscape:path-effect="#path-effect10;#path-effect9"
       inkscape:original-d="m 75.068287,107.5831 v 95.61484 H 170.6485 v -20.42009 l 25.21655,7.76025 v -70.29516 l -25.21655,7.76025 V 107.5831 h -46.8948 z"
       transform="matrix(0.76870041,0,0,0.76776935,31.33327,36.087217)" /><path
       d="m 89.958392,81.336118 c 0,-1.650999 -0.254,-3.259664 -0.719666,-4.783663 -1.989665,-6.307662 -6.688662,-9.48266 -14.09699,-9.48266 -4.529663,0 -8.043327,1.269999 -10.583325,3.767664 -2.539998,2.497665 -3.809997,6.011329 -3.809997,10.498659 0,4.48733 1.269999,7.958661 3.809997,10.456325 2.582331,2.497665 6.095995,3.725331 10.583325,3.725331 4.48733,0 8.085661,-1.269999 10.752659,-3.767664 2.709331,-2.497665 4.063997,-5.968995 4.063997,-10.413992 z M 76.157736,87.64378 c -0.592667,0.127 -1.142999,-0.04233 -1.650999,-0.508 -1.650999,-1.481665 -2.328332,-4.148663 -2.116665,-8.000994 0.169333,-2.878664 1.015999,-4.275663 2.539998,-4.23333 1.396999,0.04233 2.412998,1.227666 2.963331,3.471331 0.381,1.566332 0.550333,3.217331 0.423333,4.995329 -0.127,2.539998 -0.846666,3.979331 -2.158998,4.275664 z m 28.786624,0.550333 c 0,-0.719666 0.16934,-1.269999 0.46567,-1.608666 0.33867,-0.380999 1.27,-0.550333 2.75166,-0.550333 1.31234,0 2.07433,-0.08467 2.37067,-0.211666 0.46566,-0.338667 0.67733,-1.142999 0.67733,-2.455332 0,-1.481665 -0.42333,-2.201331 -1.22766,-2.243665 -1.31234,-0.04233 -2.37067,-0.127 -3.175,-0.211666 -1.22767,-0.127 -1.86267,-0.719666 -1.86267,-1.735666 0,-0.888999 0.21167,-1.481665 0.67734,-1.735665 0.33866,-0.211666 1.14299,-0.296333 2.37066,-0.254 0.381,0 0.97367,0.08467 1.778,0.211667 0.80433,0.127 1.397,0.211666 1.82033,0.211666 0.55033,0 0.97367,-0.380999 1.27,-1.100666 0.21167,-0.550332 0.33867,-1.185332 0.33867,-1.820331 0,-0.931333 -0.33867,-1.650999 -1.016,-2.158999 -0.508,-0.296333 -1.31234,-0.550333 -2.413,-0.761999 -2.49767,-0.465667 -5.334,-0.719666 -8.50899,-0.719666 -5.207001,0 -8.170332,0.677332 -8.889998,2.031998 -0.465667,0.888999 -0.719666,4.275664 -0.719666,10.159992 0,6.095996 0.338666,9.567327 1.015999,10.371659 0.507999,0.635 1.269999,1.058333 2.328331,1.269999 1.185333,0.127 2.074332,0.211667 2.709332,0.211667 1.227665,0.04233 2.031998,0.04233 2.413002,0 2.37066,-0.169333 3.85233,-0.804333 4.40266,-1.904999 0.29633,-0.550333 0.42333,-1.481665 0.42333,-2.793998 z m 23.24097,0 c 0,-0.719666 0.16934,-1.269999 0.46567,-1.608666 0.33867,-0.380999 1.27,-0.550333 2.75167,-0.550333 1.31233,0 2.07433,-0.08467 2.37066,-0.211666 0.46567,-0.338667 0.67733,-1.142999 0.67733,-2.455332 0,-1.481665 -0.42333,-2.201331 -1.22766,-2.243665 -1.31233,-0.04233 -2.37067,-0.127 -3.175,-0.211666 -1.22767,-0.127 -1.86267,-0.719666 -1.86267,-1.735666 0,-0.888999 0.21167,-1.481665 0.67734,-1.735665 0.33866,-0.211666 1.143,-0.296333 2.37066,-0.254 0.381,0 0.97367,0.08467 1.778,0.211667 0.80433,0.127 1.397,0.211666 1.82033,0.211666 0.55034,0 0.97367,-0.380999 1.27,-1.100666 0.21167,-0.550332 0.33867,-1.185332 0.33867,-1.820331 0,-0.931333 -0.33867,-1.650999 -1.016,-2.158999 -0.508,-0.296333 -1.31233,-0.550333 -2.413,-0.761999 -2.49766,-0.465667 -5.33399,-0.719666 -8.50899,-0.719666 -5.207,0 -8.17033,0.677332 -8.89,2.031998 -0.46566,0.888999 -0.71966,4.275664 -0.71966,10.159992 0,6.095996 0.33866,9.567327 1.016,10.371659 0.508,0.635 1.27,1.058333 2.32833,1.269999 1.18533,0.127 2.07433,0.211667 2.70933,0.211667 1.22767,0.04233 2.032,0.04233 2.413,0 2.37066,-0.169333 3.85233,-0.804333 4.40266,-1.904999 0.29633,-0.550333 0.42333,-1.481665 0.42333,-2.793998 z m 21.80165,7.281328 c 7.45066,-0.211667 11.09132,-3.174998 10.87966,-8.889994 -0.0847,-2.666998 -1.86267,-4.910663 -5.29167,-6.688661 -1.143,-0.592667 -1.69333,-1.227666 -1.69333,-1.862666 0,-0.719666 0.33867,-1.058332 1.05833,-1.058332 0.59267,0 1.397,0.381 2.45533,1.142999 0.67734,0.465666 1.27,0.719666 1.82034,0.719666 0.71966,-0.04233 1.35466,-0.804333 1.905,-2.370665 0.127,-0.423333 0.16933,-0.804333 0.16933,-1.100666 0,-0.634999 -0.21167,-1.142999 -0.59267,-1.481665 -1.016,-0.889 -2.24366,-1.566332 -3.64066,-2.116665 -2.37067,-0.889 -4.91066,-1.269999 -7.57766,-1.185333 -7.493,0.254 -11.13366,3.174998 -10.92199,8.805327 0.127,2.709331 1.86266,4.952996 5.29166,6.730995 1.143,0.592666 1.73566,1.227666 1.73566,1.862665 0,0.677333 -0.33866,1.015999 -1.016,1.015999 -0.59266,0 -1.43933,-0.380999 -2.49766,-1.142999 -0.635,-0.423333 -1.22767,-0.634999 -1.82033,-0.634999 -0.71967,0.04233 -1.35467,0.804333 -1.94733,2.328331 -0.127,0.381 -0.16934,0.762 -0.16934,1.100666 0,0.635 0.21167,1.142999 0.635,1.481666 2.921,2.370665 6.64633,3.47133 11.21833,3.344331 z m 33.1893,-6.857995 c -1.52399,0.211666 -2.70933,0.338666 -3.55599,0.338666 -1.27,0.04233 -2.032,-0.04233 -2.286,-0.211666 -0.46567,-0.296333 -0.71967,-0.804333 -0.71967,-1.566333 0,-0.550332 0.127,-0.973665 0.381,-1.269999 0.508,-0.423333 1.43934,-0.634999 2.75167,-0.592666 1.35466,0.04233 2.159,-0.04233 2.45533,-0.254 0.46567,-0.296333 0.71967,-0.931332 0.71967,-1.904998 0,-1.439332 -0.42334,-2.158999 -1.27,-2.201332 -1.73567,-0.08467 -2.75167,-0.169333 -3.09033,-0.211666 -1.31234,-0.254 -1.94734,-0.846666 -1.94734,-1.735666 0,-0.804332 0.21167,-1.312332 0.67734,-1.566332 0.33866,-0.211666 1.10066,-0.296333 2.32833,-0.254 0.381,0 0.97366,0.08467 1.778,0.211667 0.80433,0.127 1.43933,0.211666 1.86266,0.211666 0.55033,0 0.97367,-0.380999 1.27,-1.100666 0.21167,-0.550332 0.33867,-1.185332 0.33867,-1.820331 0,-0.973666 -0.33867,-1.693333 -1.05834,-2.158999 -0.42333,-0.296333 -1.22766,-0.550333 -2.37066,-0.761999 -2.45533,-0.465667 -5.29166,-0.719666 -8.50899,-0.719666 -5.461,0 -8.509,0.677332 -9.22866,2.031998 -0.46567,0.888999 -0.71967,4.275664 -0.71967,10.159992 v 2.963332 c 0,4.021663 0.33867,6.476995 1.016,7.323661 0.84667,1.058332 3.97933,1.566332 9.39799,1.566332 3.302,0 5.969,-0.211667 8.04333,-0.592666 2.286,-0.423333 3.429,-1.396999 3.429,-2.920998 0,-2.158999 -0.55034,-3.132664 -1.69334,-2.963331 z m 8.84763,-9.990659 c -0.254,6.519328 -0.33867,10.625658 -0.21167,12.361324 0.0847,1.396999 0.29634,2.285998 0.635,2.624664 0.97367,0.973666 2.667,1.439333 5.08,1.481666 h 1.05833 c 1.73567,-0.08467 2.96333,-0.338667 3.64066,-0.804333 0.889,-0.592666 1.31234,-1.735665 1.31234,-3.428997 l 0.0847,-11.514658 c 0,-1.227666 0.59267,-1.862666 1.778,-1.820332 0.33867,0 1.31233,0.08467 1.778,0.08467 0.80433,0 1.35467,-0.08467 1.69333,-0.253999 0.889,-0.465667 1.31234,-1.608666 1.31234,-3.428998 0,-0.973666 -0.42334,-1.650999 -1.22767,-1.947332 -1.397,-0.550333 -3.59833,-0.846666 -6.56166,-0.888999 -4.23333,-0.08467 -8.29733,0.04233 -12.14966,0.338666 -2.45533,0.211667 -3.683,1.142999 -3.683,2.878665 0,2.243665 0.71967,3.301997 2.20133,3.174997 l 1.86267,-0.126999 c 0.97367,-0.04233 1.43933,0.380999 1.397,1.269999 z"
       id="text1"
       style="font-size:42.3333px;line-height:1;font-family:Pusab;-inkscape-font-specification:Pusab;text-align:center;letter-spacing:0px;text-orientation:upright;text-anchor:middle;fill:#ffffff;stroke-width:13.2292;stroke-linecap:round;stroke-linejoin:round;paint-order:stroke fill markers"
       aria-label="Offset" /><g
       id="g12"
       inkscape:label="icon"><ellipse
         style="fill:#000000;stroke-width:1.05833;stroke-linecap:round;stroke-linejoin:round;paint-order:stroke fill markers"
         id="path1"
         cx="126.58844"
         cy="148.72256"
         rx="8.8942766"
         ry="11.203375" /><path
         style="fill:#000000;stroke-width:1.05833;stroke-linecap:round;stroke-linejoin:round;paint-order:stroke fill markers"
         d="m 124.17108,156.99716 -11.21716,7.45099 a 4.9338495,4.9338495 118.20295 0 0 -2.20392,4.10979 v 2.91928 a 2.6458334,2.6458334 45 0 0 2.64583,2.64583 h 25.95639 a 2.6458334,2.6458334 135 0 0 2.64583,-2.64583 v -2.91928 a 4.9341902,4.9341902 61.798703 0 0 -2.20384,-4.10991 l -11.21537,-7.45075 a 3.9829392,3.9829392 0.00164795 0 0 -4.40776,-1.2e-4 z"
         id="path2"
         sodipodi:nodetypes="cccccc"
         inkscape:original-d="m 126.375,155.5332 -15.625,10.37891 v 8.21094 h 31.24805 v -8.21094 z"
         inkscape:path-effect="#path-effect11" /></g><path
       d="m 57.658053,51.350342 c -1.650998,-0.04233 -2.666998,0.04233 -3.132664,0.169334 -0.973666,0.296333 -1.481665,1.058332 -1.523999,2.285998 -0.08467,1.735665 -0.846666,2.666998 -2.328331,2.793998 -2.497665,0.211666 -3.725331,-2.031999 -3.725331,-6.730995 0,-0.508 0.04233,-1.142999 0.127,-1.862665 0.338666,-2.920998 1.185333,-4.444997 2.539998,-4.656664 1.777999,-0.253999 2.963331,0.846666 3.598331,3.344331 0.296333,1.142999 1.058332,1.650999 2.285998,1.523999 1.481666,-0.127 2.455332,-0.296333 3.005665,-0.507999 0.973665,-0.381 1.439332,-1.058333 1.439332,-2.074332 0,-0.381 -0.04233,-0.719666 -0.169333,-1.100666 -1.820332,-5.926662 -6.434662,-8.889993 -13.758323,-8.889993 -4.444997,0 -7.958661,1.269999 -10.540993,3.767663 -2.539998,2.497665 -3.809997,6.011329 -3.809997,10.456326 0,4.275663 1.227666,7.746994 3.640664,10.329325 2.455332,2.582332 5.799663,3.894664 10.075326,3.894664 3.725331,0 6.392329,-0.931332 8.043327,-2.793998 l 0.169334,0.719666 c 0.296333,1.227666 1.481665,1.820332 3.59833,1.820332 1.735666,0 2.666998,-0.719666 2.793998,-2.158998 l 0.08467,-1.185332 c 0.04233,-0.550333 0.04233,-1.566333 0.04233,-3.005665 -0.04233,-1.608665 -0.04233,-2.751664 -0.08467,-3.471331 -0.127,-1.735665 -0.888999,-2.624664 -2.370665,-2.666998 z M 73.966954,39.454685 c -1.143,0.04233 -2.158999,0.550333 -3.090331,1.481665 -0.635,0.635 -1.439333,1.862666 -2.412999,3.682998 -1.439332,2.666998 -2.836331,5.841995 -4.23333,9.482659 -1.439332,3.725331 -2.158998,6.307662 -2.116665,7.746994 0.04233,1.227666 1.312332,1.735666 3.852331,1.608666 0.846666,-0.04233 1.439332,-0.254 1.735665,-0.635 0.254,-0.211666 0.508,-0.761999 0.719666,-1.566332 0.296333,-1.100666 0.761999,-1.650999 1.439332,-1.693332 0.931333,-0.04233 1.566332,-0.04233 1.947332,0 h 2.455332 c 0.634999,0 1.015999,0.254 1.227665,0.804333 l 0.592667,1.693332 c 0.380999,1.142999 2.412998,1.693332 6.011328,1.650999 1.820332,-0.04233 3.174998,-0.169334 4.063997,-0.465667 1.523999,-0.507999 1.862666,-0.973666 1.693332,-2.497665 -0.296333,-2.836331 -1.862665,-7.111994 -4.698996,-12.82699 -1.904999,-3.809997 -3.259664,-6.138329 -4.148664,-6.984995 -1.100665,-1.058332 -2.412998,-1.566332 -3.936997,-1.523999 z m -2.285999,12.107324 c 0.254,0 0.804333,1.142999 1.650999,3.428997 0.127,0.296334 -0.127,0.550333 -0.719666,0.677333 -0.338666,0.08467 -0.635,0.127 -0.888999,0.127 -0.719667,0 -1.185333,-0.08467 -1.481666,-0.296333 -0.211666,-0.127 -0.254,-0.254 -0.211666,-0.423333 0.719666,-2.328332 1.269999,-3.513664 1.650998,-3.513664 z M 91.418873,45.67768 c -0.846666,4.48733 -1.312332,9.22866 -1.439332,14.223989 -0.04233,1.227666 0.08467,2.116665 0.380999,2.624665 0.381,0.677333 1.142999,1.015999 2.328332,1.058333 2.201332,0.04233 3.344331,-0.762 3.471331,-2.455332 0.296333,-3.894664 0.592666,-5.841995 0.888999,-5.841995 0.08467,0 0.169333,0.04233 0.254,0.169333 l 2.158998,2.793998 c 0.55033,0.719666 1.05833,1.058332 1.60867,1.058332 0.55033,0 1.14299,-0.381 1.73566,-1.100666 1.651,-2.074331 2.49767,-3.090331 2.54,-3.090331 0.21167,0 0.381,0.508 0.46567,1.566332 0.127,1.862666 0.254,3.005665 0.33866,3.386665 0.508,2.709331 1.69333,3.640664 4.445,3.640664 h 2.413 c 2.92099,0 4.27566,-1.016 4.14866,-3.047998 -0.33867,-4.952996 -0.97367,-9.948326 -1.905,-14.985989 -0.71966,-4.021664 -2.286,-6.011329 -4.65666,-6.011329 h -1.31233 c -1.60867,0 -2.96333,0.677333 -4.02167,1.989665 -0.33866,0.550333 -0.67733,1.143 -1.05833,1.735666 -0.55033,0.719666 -1.016,1.100666 -1.48167,1.100666 -0.254,0 -1.18533,-1.058333 -2.836327,-3.174998 -0.846666,-1.100666 -1.904998,-1.650999 -3.174997,-1.650999 H 95.86387 c -2.201332,0 -3.682998,1.989665 -4.444997,6.011329 z m 48.101197,11.556991 c -1.524,0.211667 -2.70933,0.338667 -3.55599,0.338667 -1.27,0.04233 -2.032,-0.04233 -2.286,-0.211667 -0.46567,-0.296333 -0.71967,-0.804332 -0.71967,-1.566332 0,-0.550333 0.127,-0.973666 0.381,-1.269999 0.508,-0.423333 1.43933,-0.634999 2.75167,-0.592666 1.35466,0.04233 2.15899,-0.04233 2.45533,-0.254 0.46566,-0.296333 0.71966,-0.931333 0.71966,-1.904999 0,-1.439332 -0.42333,-2.158998 -1.27,-2.201331 -1.73566,-0.08467 -2.75166,-0.169333 -3.09033,-0.211667 -1.31233,-0.254 -1.94733,-0.846666 -1.94733,-1.735665 0,-0.804333 0.21167,-1.312332 0.67733,-1.566332 0.33867,-0.211667 1.10067,-0.296333 2.32834,-0.254 0.381,0 0.97366,0.08467 1.77799,0.211666 0.80434,0.127 1.43934,0.211667 1.86267,0.211667 0.55033,0 0.97367,-0.381 1.27,-1.100666 0.21167,-0.550333 0.33867,-1.185332 0.33867,-1.820332 0,-0.973666 -0.33867,-1.693332 -1.05834,-2.158998 -0.42333,-0.296333 -1.22766,-0.550333 -2.37066,-0.762 -2.45533,-0.465666 -5.29166,-0.719666 -8.509,-0.719666 -5.46099,0 -8.50899,0.677333 -9.22866,2.031999 -0.46566,0.888999 -0.71966,4.275663 -0.71966,10.159992 v 2.963331 c 0,4.021664 0.33866,6.476995 1.016,7.323661 0.84666,1.058333 3.97933,1.566333 9.39799,1.566333 3.302,0 5.969,-0.211667 8.04333,-0.592667 2.286,-0.423333 3.429,-1.396999 3.429,-2.920998 0,-2.158998 -0.55034,-3.132664 -1.69334,-2.963331 z m 22.36254,-9.736659 c 0,1.227666 -0.84667,1.904999 -2.58233,2.031998 -1.905,0.127 -2.83633,-0.550332 -2.83633,-2.031998 -0.0847,-0.888999 0.254,-1.439332 0.97366,-1.735665 0.508,-0.211667 1.22767,-0.296333 2.20133,-0.211667 l 0.55034,0.04233 c 1.14299,0.08467 1.69333,0.719667 1.69333,1.904999 z m -5.41866,9.313326 c 0,-0.634999 0.16933,-1.100665 0.46566,-1.439332 0.127,-0.169333 0.46567,-0.296333 0.97367,-0.423333 0.16933,-0.04233 0.508,-0.08467 1.05833,-0.169333 l 1.56633,-0.211667 c 2.413,-0.338666 4.14867,-1.015999 5.24933,-1.989665 1.22767,-1.100666 1.86267,-2.793998 1.86267,-5.037663 0,-5.249329 -3.85233,-7.873994 -11.55699,-7.873994 h -3.302 c -5.207,0 -8.17033,0.677333 -8.89,2.031999 -0.46566,0.888999 -0.71966,4.275663 -0.71966,10.159992 0,6.095995 0.33866,9.567326 1.016,10.371659 0.508,0.634999 1.27,1.058332 2.32833,1.269999 1.18533,0.127 2.07433,0.211667 2.70933,0.211667 1.22767,0.04233 2.032,0.04233 2.413,0 2.37066,-0.169334 3.85233,-0.804333 4.40266,-1.904999 0.29634,-0.550333 0.42334,-1.481666 0.42334,-2.793998 z m 32.35322,0.465667 c -0.33866,0 -0.93133,0.04233 -1.82033,0.08467 -0.889,0.04233 -1.43933,0.08467 -1.73566,0.08467 -1.22767,0.04233 -1.98967,-0.127 -2.286,-0.508 -0.16933,-1.354665 -0.254,-2.201331 -0.254,-2.582331 v -1.354666 c 0,-2.201331 0,-4.36033 0.0423,-6.434662 v -2.666998 c -0.0423,-2.793998 -1.016,-4.190996 -3.00566,-4.190996 -3.97933,0 -6.39233,0.169333 -7.28133,0.550332 -1.05833,0.465667 -1.82033,1.396999 -2.286,2.878665 -0.381,1.269999 -0.55033,2.709331 -0.508,4.317997 0.0847,3.090331 0.127,4.402663 0.127,4.021663 0,6.476995 0.33867,10.032993 1.05833,10.752659 0.889,0.761999 2.286,1.227666 4.14867,1.396999 0.55033,0.04233 2.032,0.08467 4.48733,0.08467 2.96333,0 5.50333,-0.254 7.57766,-0.762 1.143,-0.296333 1.86266,-0.550333 2.24366,-0.761999 0.71967,-0.465667 1.10067,-1.142999 1.10067,-1.989666 0,-1.947331 -0.55033,-2.920997 -1.60867,-2.920997 z m 15.46222,-17.82232 c -1.143,0.04233 -2.159,0.550333 -3.09033,1.481665 -0.635,0.635 -1.43934,1.862666 -2.413,3.682998 -1.43933,2.666998 -2.83633,5.841995 -4.23333,9.482659 -1.43933,3.725331 -2.159,6.307662 -2.11667,7.746994 0.0423,1.227666 1.31233,1.735666 3.85233,1.608666 0.84667,-0.04233 1.43934,-0.254 1.73567,-0.635 0.254,-0.211666 0.508,-0.761999 0.71966,-1.566332 0.29634,-1.100666 0.762,-1.650999 1.43934,-1.693332 0.93133,-0.04233 1.56633,-0.04233 1.94733,0 h 2.45533 c 0.635,0 1.016,0.254 1.22767,0.804333 l 0.59266,1.693332 c 0.381,1.142999 2.413,1.693332 6.01133,1.650999 1.82033,-0.04233 3.175,-0.169334 4.064,-0.465667 1.524,-0.507999 1.86266,-0.973666 1.69333,-2.497665 -0.29633,-2.836331 -1.86267,-7.111994 -4.699,-12.82699 -1.905,-3.809997 -3.25966,-6.138329 -4.14866,-6.984995 -1.10067,-1.058332 -2.413,-1.566332 -3.937,-1.523999 z m -2.286,12.107324 c 0.254,0 0.80433,1.142999 1.651,3.428997 0.127,0.296334 -0.127,0.550333 -0.71967,0.677333 -0.33867,0.08467 -0.635,0.127 -0.889,0.127 -0.71966,0 -1.18533,-0.08467 -1.48166,-0.296333 -0.21167,-0.127 -0.254,-0.254 -0.21167,-0.423333 0.71967,-2.328332 1.27,-3.513664 1.651,-3.513664 z m 19.18758,8.043327 c 0.0423,1.015999 0.127,1.693332 0.254,2.031999 0.21167,0.465666 0.635,0.931332 1.35467,1.312332 1.22767,0.465666 2.54,0.719666 4.02166,0.762 h 1.10067 c 1.778,-0.08467 3.00566,-0.338667 3.683,-0.804333 0.889,-0.635 1.31233,-1.777999 1.27,-3.428998 l -0.127,-3.47133 c -0.0423,-1.312333 0.0423,-2.158999 0.254,-2.539998 2.92099,-4.952997 4.61433,-8.000994 5.07999,-9.143994 0.635,-1.481665 0.93133,-2.582331 0.93133,-3.301997 0,-0.888999 -1.39699,-1.269999 -4.19099,-1.142999 -0.71967,0.04233 -1.22767,0.169333 -1.524,0.465666 -0.127,0.08467 -0.762,1.142999 -1.82033,3.217331 -0.59267,1.100666 -1.18534,1.989665 -1.82034,2.709331 -0.127,0.08467 -0.29633,0.127 -0.42333,0.127 -0.16933,0 -0.381,-0.08467 -0.59266,-0.254 -0.80434,-1.100665 -1.56634,-2.201331 -2.32834,-3.259664 -1.18533,-1.566332 -2.11666,-2.455331 -2.75166,-2.751664 -0.55033,-0.211667 -1.397,-0.381 -2.58233,-0.423333 -0.55034,-0.04233 -1.22767,-0.04233 -1.94733,0 -3.175,0.126999 -4.78367,0.719666 -4.78367,1.820331 0,0.889 0.59267,2.370665 1.778,4.444997 1.82033,3.174998 3.302,5.672663 4.445,7.408328 0.33866,0.550333 0.55033,1.523999 0.59266,3.005664 0.0847,1.439333 0.127,2.497665 0.127,3.217331 z"
       id="text12"
       style="font-size:42.3333px;line-height:1;font-family:Pusab;-inkscape-font-specification:Pusab;font-variant-ligatures:no-common-ligatures;text-align:center;letter-spacing:0.264583px;text-anchor:middle;fill:#ffffff;stroke-width:1.05833;stroke-linecap:round;stroke-linejoin:round;paint-order:stroke fill markers"
       aria-label="Gameplay" /></g></svg>
