<?xml version="1.0" encoding="UTF-8" standalone="no"?>
<!-- Created with Inkscape (http://www.inkscape.org/) -->

<svg
   width="270.93332mm"
   height="270.93332mm"
   viewBox="0 0 270.93332 270.93332"
   version="1.1"
   id="svg1"
   inkscape:version="1.4.2 (ebf0e940d0, 2025-05-08)"
   sodipodi:docname="CameraEdge.svg"
   xmlns:inkscape="http://www.inkscape.org/namespaces/inkscape"
   xmlns:sodipodi="http://sodipodi.sourceforge.net/DTD/sodipodi-0.dtd"
   xmlns="http://www.w3.org/2000/svg"
   xmlns:svg="http://www.w3.org/2000/svg">
  <sodipodi:namedview
     id="namedview1"
     pagecolor="#4d4d4d"
     bordercolor="#eeeeee"
     borderopacity="1"
     inkscape:showpageshadow="0"
     inkscape:pageopacity="0"
     inkscape:pagecheckerboard="false"
     inkscape:deskcolor="#181825"
     inkscape:document-units="px"
     inkscape:zoom="1.0938058"
     inkscape:cx="419.17861"
     inkscape:cy="372.55242"
     inkscape:window-width="1055"
     inkscape:window-height="1011"
     inkscape:window-x="0"
     inkscape:window-y="0"
     inkscape:window-maximized="1"
     inkscape:current-layer="layer1"
     showguides="false" />
  <defs
     id="defs1">
    <inkscape:path-effect
       effect="offset"
       id="path-effect10"
       is_visible="true"
       lpeversion="1.3"
       linejoin_type="miter"
       unit="px"
       offset="-19.785912"
       miter_limit="4"
       attempt_force_join="false"
       update_on_knot_move="true" />
    <inkscape:path-effect
       effect="fillet_chamfer"
       id="path-effect9"
       is_visible="true"
       lpeversion="1"
       nodesatellites_param="F,0,0,1,0,5,0,1 @ F,0,0,1,0,5,0,1 @ F,0,0,1,0,5,0,1 @ F,0,0,1,0,5,0,1 @ F,0,0,1,0,5,0,1 @ F,0,0,1,0,5,0,1 @ F,0,0,1,0,5,0,1 @ F,0,0,1,0,5,0,1 @ F,0,0,1,0,5,0,1"
       radius="5"
       unit="px"
       method="auto"
       mode="F"
       chamfer_steps="1"
       flexible="false"
       use_knot_distance="true"
       apply_no_radius="true"
       apply_with_radius="true"
       only_selected="false"
       hide_knots="false" />
    <inkscape:path-effect
       effect="fillet_chamfer"
       id="path-effect7"
       is_visible="true"
       lpeversion="1"
       nodesatellites_param="F,0,0,1,0,12.5,0,1 @ F,0,0,1,0,12.5,0,1 @ F,0,0,1,0,12.5,0,1 @ F,0,0,1,0,0,0,1 @ F,0,0,1,0,12.5,0,1 @ F,0,0,1,0,12.5,0,1 @ F,0,0,1,0,0,0,1 @ F,0,0,1,0,12.5,0,1"
       radius="12.5"
       unit="px"
       method="auto"
       mode="F"
       chamfer_steps="1"
       flexible="false"
       use_knot_distance="true"
       apply_no_radius="true"
       apply_with_radius="true"
       only_selected="false"
       hide_knots="false" />
    <inkscape:path-effect
       effect="mirror_symmetry"
       start_point="87.694907,155.3909"
       end_point="208.49167,155.3909"
       center_point="148.09329,155.3909"
       id="path-effect3"
       is_visible="true"
       lpeversion="1.2"
       lpesatellites=""
       mode="Y"
       discard_orig_path="false"
       fuse_paths="false"
       oposite_fuse="true"
       split_items="false"
       split_open="false"
       link_styles="false" />
    <inkscape:path-effect
       effect="fillet_chamfer"
       id="path-effect6"
       is_visible="false"
       lpeversion="1"
       nodesatellites_param="F,0,0,1,0,4,0,1 @ F,0,0,1,0,4,0,1 @ F,0,0,1,0,4,0,1 @ F,0,0,1,0,4,0,1 @ F,0,0,1,0,4,0,1 @ F,0,0,1,0,4,0,1 @ F,0,0,1,0,4,0,1 | F,0,0,1,0,4,0,1 @ F,0,0,1,0,4,0,1 @ F,0,0,1,0,4,0,1 @ F,0,0,1,0,4,0,1 @ F,0,0,1,0,4,0,1 @ F,0,0,1,0,4,0,1 @ F,0,0,1,0,4,0,1"
       radius="4"
       unit="px"
       method="auto"
       mode="F"
       chamfer_steps="1"
       flexible="false"
       use_knot_distance="true"
       apply_no_radius="true"
       apply_with_radius="true"
       only_selected="false"
       hide_knots="false" />
    <inkscape:path-effect
       effect="mirror_symmetry"
       start_point="87.694907,155.3909"
       end_point="208.49167,155.3909"
       center_point="148.09329,155.3909"
       id="path-effect5"
       is_visible="true"
       lpeversion="1.2"
       lpesatellites=""
       mode="Y"
       discard_orig_path="false"
       fuse_paths="false"
       oposite_fuse="true"
       split_items="false"
       split_open="false"
       link_styles="false" />
    <inkscape:path-effect
       effect="gears"
       id="path-effect1"
       is_visible="true"
       lpeversion="1"
       teeth="10"
       phi="5"
       min_radius="5" />
    <inkscape:path-effect
       effect="offset"
       id="path-effect2"
       is_visible="true"
       lpeversion="1.2"
       linejoin_type="miter"
       unit="px"
       offset="-25"
       miter_limit="4"
       attempt_force_join="false"
       update_on_knot_move="true" />
  </defs>
  <g
     inkscape:label="Calque 1"
     inkscape:groupmode="layer"
     id="layer1">
    <g
       id="g2"
       inkscape:label="template"
       style="display:none">
      <rect
         style="fill:#ff0000;stroke-width:3.96875;stroke-linecap:round;stroke-linejoin:round;paint-order:stroke fill markers"
         id="rect1"
         width="135.46666"
         height="135.46666"
         x="67.73333"
         y="67.73333" />
      <rect
         style="fill:#00ff00;stroke-width:2.80129;stroke-linecap:round;stroke-linejoin:round;paint-order:stroke fill markers"
         id="rect2"
         width="95.617188"
         height="95.61721"
         x="87.658058"
         y="107.58277" />
      <rect
         style="fill:#00ffff;stroke-width:1.02092;stroke-linecap:round;stroke-linejoin:round;paint-order:stroke fill markers"
         id="rect4"
         width="95.617188"
         height="12.7"
         x="87.658058"
         y="94.882774" />
      <rect
         style="fill:#00ffff;stroke-width:0.589428;stroke-linecap:round;stroke-linejoin:round;paint-order:stroke fill markers"
         id="rect5"
         width="95.617188"
         height="4.2333336"
         x="87.658058"
         y="63.5" />
    </g>
    <path
       d="m 81.892578,119.4082 v 71.96485 a 5,5 45 0 0 5,5 h 71.931642 a 5,5 135 0 0 5,-5 v -12.83594 a 3.6924948,3.6924948 143.55417 0 1 4.77875,-3.5291 l 15.65929,4.81992 a 3.6924948,3.6924948 143.55417 0 0 4.77876,-3.5291 v -41.81641 a 3.6924948,3.6924948 36.445829 0 0 -4.77876,-3.5291 l -15.65929,4.81992 a 3.6924948,3.6924948 36.445829 0 1 -4.77875,-3.5291 V 119.4082 a 5,5 45 0 0 -5,-5 H 128.75391 86.892578 a 5,5 135 0 0 -5,5 z"
       style="fill:#00c7ff;fill-opacity:1;stroke:#000000;stroke-width:17.2202;stroke-linecap:round;stroke-linejoin:round;stroke-dasharray:none;stroke-opacity:1;paint-order:stroke fill markers"
       id="path7"
       sodipodi:nodetypes="cccccccccc"
       inkscape:path-effect="#path-effect10;#path-effect9"
       inkscape:original-d="m 75.068287,107.5831 v 95.61484 H 170.6485 v -20.42009 l 25.21655,7.76025 v -70.29516 l -25.21655,7.76025 V 107.5831 h -46.8948 z"
       transform="matrix(0.76870041,0,0,0.76776935,31.33327,36.087217)" />
    <path
       style="font-weight:bold;font-size:42.3333px;line-height:1;font-family:Pusab;-inkscape-font-specification:'Pusab Bold';font-variant-ligatures:no-common-ligatures;text-align:center;letter-spacing:0.851958px;text-anchor:middle;fill:#ffffff;stroke-width:1.00013;stroke-linejoin:round;paint-order:stroke fill markers"
       d="m 107.32825,87.686113 c -1.778,0.296333 -3.13267,0.423333 -4.02167,0.423333 -1.397,0.04233 -2.28599,-0.08467 -2.66699,-0.296333 -0.55034,-0.338666 -0.84667,-0.931333 -0.84667,-1.777999 0,-0.634999 0.169333,-1.100666 0.508,-1.439332 0.46567,-0.465666 1.524,-0.719666 3.175,-0.677333 1.48166,0.04233 2.41299,-0.08467 2.75166,-0.296333 0.55033,-0.338666 0.80433,-1.058332 0.80433,-2.201332 0.0423,-1.650998 -0.46566,-2.455331 -1.43933,-2.497664 -1.143,-0.04233 -2.32833,-0.127 -3.64066,-0.254 -1.43933,-0.127 -2.159,-0.804333 -2.159,-1.989665 0,-0.889 0.254,-1.481666 0.80433,-1.777999 0.381,-0.211666 1.27,-0.338666 2.70933,-0.296333 0.46567,0 1.143,0.08467 2.032,0.254 0.889,0.127 1.60867,0.211666 2.07433,0.211666 1.22767,0 1.86267,-1.100666 1.86267,-3.344331 0,-1.735665 -1.31233,-2.878664 -3.89466,-3.34433 -2.75167,-0.508 -6.011333,-0.762 -9.778997,-0.762 -2.793998,0 -5.037663,0.127 -6.773329,0.423333 -0.973666,0.169333 -1.693332,0.338667 -2.158998,0.508 -0.804333,0.296333 -1.354666,0.719666 -1.650999,1.354665 -0.550333,1.016 -0.804332,4.910663 -0.804332,11.641658 v 3.428998 c 0,4.61433 0.380999,7.365994 1.142999,8.33966 0.973666,1.227666 4.571996,1.820332 10.794992,1.820332 3.852334,0 6.900324,-0.211666 9.228664,-0.677333 2.58233,-0.507999 3.89466,-1.608665 3.89466,-3.34433 0,-0.508 -0.0423,-1.058333 -0.16933,-1.650999 -0.254,-1.312333 -0.84667,-1.904999 -1.778,-1.777999 z m 13.80594,-16.636987 c -5.24933,0 -8.12799,0.465666 -8.67832,1.439332 -0.42334,0.761999 -0.635,4.317997 -0.635,10.710325 0,6.307662 0.21166,9.778993 0.635,10.413992 0.67733,0.973666 3.55599,1.481666 8.59366,1.481666 3.04799,0 5.67266,-0.592666 7.87399,-1.735666 4.02166,-2.116665 6.01133,-5.545662 6.01133,-10.329325 0,-2.074332 -0.46567,-3.936997 -1.397,-5.672662 -2.286,-4.190997 -6.43466,-6.307662 -12.40366,-6.307662 z m 4.02167,17.483653 c -0.46567,-0.04233 -0.762,-0.423333 -0.84667,-1.142999 -0.127,-0.973666 -0.16933,-2.455332 -0.16933,-4.36033 0,-1.735665 0.0847,-3.174998 0.21166,-4.317997 0.0847,-0.719666 0.33867,-1.100666 0.80434,-1.142999 0.21166,-0.04233 0.508,0 0.889,0.127 2.07433,0.592666 3.13266,2.370665 3.13266,5.333996 0,0.888999 -0.0847,1.650999 -0.29633,2.285998 -0.67734,2.243665 -1.905,3.301998 -3.72533,3.217331 z m 35.01495,-4.23333 c -1.43934,-0.04233 -2.37067,0 -2.75167,0.127 -0.80433,0.211666 -1.27,0.888999 -1.31233,1.989665 -0.0847,1.481666 -0.762,2.285998 -2.032,2.412998 -2.159,0.211667 -3.25966,-1.735665 -3.25966,-5.841995 0,-0.296333 0.0423,-0.846666 0.127,-1.608666 0.29633,-2.539998 1.016,-3.894664 2.20133,-4.063997 1.56633,-0.211666 2.62466,0.762 3.175,2.920998 0.254,0.973666 0.889,1.439332 1.94733,1.312332 1.31233,-0.127 2.159,-0.296333 2.62466,-0.465666 0.889,-0.338666 1.31233,-0.931333 1.31233,-1.777999 0,-0.296333 -0.0423,-0.592666 -0.16933,-0.973666 -1.60866,-5.164662 -5.63033,-7.746994 -12.02266,-7.746994 -3.85233,0 -6.94266,1.100666 -9.18632,3.301998 -2.24367,2.201331 -3.34433,5.249329 -3.34433,9.10166 0,3.72533 1.05833,6.730995 3.21733,9.016993 2.159,2.285998 5.07999,3.428997 8.76299,3.428997 3.25967,0 5.588,-0.846666 7.02733,-2.497665 l 0.16933,0.677333 c 0.127,1.058333 1.18533,1.566332 3.09033,1.566332 1.56634,0 2.37067,-0.634999 2.49767,-1.904998 v -1.354666 c 0.0423,-0.211666 0.0423,-0.465666 0.0423,-0.719666 v -1.566332 c -0.0423,-1.904999 -0.0423,-2.920998 -0.0423,-3.047998 -0.0423,-1.481665 -0.762,-2.243665 -2.07433,-2.285998 z m 24.85492,4.317997 c -1.524,0.211666 -2.70934,0.338666 -3.556,0.338666 -1.27,0.04233 -2.032,-0.04233 -2.286,-0.211666 -0.46567,-0.296333 -0.71967,-0.804333 -0.71967,-1.566333 0,-0.550332 0.127,-0.973665 0.381,-1.269999 0.508,-0.423333 1.43934,-0.634999 2.75167,-0.592666 1.35466,0.04233 2.159,-0.04233 2.45533,-0.254 0.46567,-0.296333 0.71967,-0.931332 0.71967,-1.904998 0,-1.439332 -0.42334,-2.158999 -1.27,-2.201332 -1.73567,-0.08467 -2.75167,-0.169333 -3.09033,-0.211666 -1.31234,-0.254 -1.94734,-0.846666 -1.94734,-1.735666 0,-0.804332 0.21167,-1.312332 0.67734,-1.566332 0.33866,-0.211666 1.10066,-0.296333 2.32833,-0.254 0.381,0 0.97366,0.08467 1.778,0.211667 0.80433,0.127 1.43933,0.211666 1.86266,0.211666 0.55034,0 0.97367,-0.380999 1.27,-1.100666 0.21167,-0.550332 0.33867,-1.185332 0.33867,-1.820331 0,-0.973666 -0.33867,-1.693333 -1.05833,-2.158999 -0.42334,-0.296333 -1.22767,-0.550333 -2.37067,-0.761999 -2.45533,-0.465667 -5.29166,-0.719666 -8.50899,-0.719666 -5.461,0 -8.509,0.677332 -9.22866,2.031998 -0.46567,0.888999 -0.71967,4.275664 -0.71967,10.159992 v 2.963332 c 0,4.021663 0.33867,6.476995 1.016,7.323661 0.84667,1.058332 3.97933,1.566332 9.39799,1.566332 3.302,0 5.969,-0.211667 8.04333,-0.592666 2.286,-0.423333 3.429,-1.396999 3.429,-2.920998 0,-2.158999 -0.55033,-3.132664 -1.69333,-2.963331 z"
       id="text1"
       aria-label="Edge" />
  </g>
</svg>
