<?xml version="1.0" encoding="UTF-8" standalone="no"?>
<!-- Created with Inkscape (http://www.inkscape.org/) -->

<svg
   width="270.93332mm"
   height="270.93332mm"
   viewBox="0 0 270.93332 270.93332"
   version="1.1"
   id="svg1"
   inkscape:version="1.4.2 (ebf0e940d0, 2025-05-08)"
   sodipodi:docname="Color.svg"
   xmlns:inkscape="http://www.inkscape.org/namespaces/inkscape"
   xmlns:sodipodi="http://sodipodi.sourceforge.net/DTD/sodipodi-0.dtd"
   xmlns="http://www.w3.org/2000/svg"
   xmlns:svg="http://www.w3.org/2000/svg">
  <sodipodi:namedview
     id="namedview1"
     pagecolor="#4d4d4d"
     bordercolor="#eeeeee"
     borderopacity="1"
     inkscape:showpageshadow="0"
     inkscape:pageopacity="0"
     inkscape:pagecheckerboard="false"
     inkscape:deskcolor="#181825"
     inkscape:document-units="px"
     inkscape:zoom="8"
     inkscape:cx="600.5625"
     inkscape:cy="558.1875"
     inkscape:window-width="1894"
     inkscape:window-height="1011"
     inkscape:window-x="0"
     inkscape:window-y="0"
     inkscape:window-maximized="1"
     inkscape:current-layer="layer1"
     showgrid="false" />
  <defs
     id="defs1">
    <inkscape:path-effect
       effect="offset"
       id="path-effect16"
       is_visible="true"
       lpeversion="1.3"
       linejoin_type="miter"
       unit="px"
       offset="0.2"
       miter_limit="4"
       attempt_force_join="false"
       update_on_knot_move="true" />
    <inkscape:path-effect
       effect="offset"
       id="path-effect9"
       is_visible="true"
       lpeversion="1.3"
       linejoin_type="miter"
       unit="px"
       offset="25"
       miter_limit="4"
       attempt_force_join="false"
       update_on_knot_move="true" />
    <inkscape:path-effect
       effect="offset"
       id="path-effect11"
       is_visible="true"
       lpeversion="1.3"
       linejoin_type="miter"
       unit="px"
       offset="25"
       miter_limit="4"
       attempt_force_join="false"
       update_on_knot_move="true" />
    <inkscape:path-effect
       effect="fill_between_many"
       id="path-effect7"
       is_visible="true"
       lpeversion="1.2"
       linkedpaths=""
       method="bsplinespiro"
       join="true"
       close="true"
       autoreverse="true" />
    <inkscape:path-effect
       effect="offset"
       id="path-effect6"
       is_visible="true"
       lpeversion="1.3"
       linejoin_type="miter"
       unit="px"
       offset="25"
       miter_limit="4"
       attempt_force_join="false"
       update_on_knot_move="true" />
    <inkscape:path-effect
       effect="clone_original"
       css_properties=""
       attributes="style,clip-path,mask"
       linkeditem="#circle6"
       is_visible="true"
       method="d"
       allow_transforms="true"
       id="path-effect3"
       lpeversion="1" />
    <rect
       x="234.1818"
       y="157.0909"
       width="522.18179"
       height="34.909089"
       id="rect3" />
    <inkscape:path-effect
       effect="offset"
       id="path-effect5"
       is_visible="true"
       lpeversion="1.3"
       linejoin_type="miter"
       unit="px"
       offset="-25"
       miter_limit="4"
       attempt_force_join="false"
       update_on_knot_move="true" />
    <inkscape:path-effect
       effect="offset"
       id="path-effect4"
       is_visible="true"
       lpeversion="1.3"
       linejoin_type="miter"
       unit="px"
       offset="25"
       miter_limit="4"
       attempt_force_join="false"
       update_on_knot_move="true" />
    <inkscape:path-effect
       effect="offset"
       id="path-effect2"
       is_visible="true"
       lpeversion="1.3"
       linejoin_type="miter"
       unit="px"
       offset="-25"
       miter_limit="4"
       attempt_force_join="false"
       update_on_knot_move="true" />
  </defs>
  <g
     inkscape:label="Calque 1"
     inkscape:groupmode="layer"
     id="layer1">
    <g
       id="g2"
       inkscape:label="template"
       style="display:none">
      <rect
         style="fill:#ff0000;stroke-width:3.96875;stroke-linecap:round;stroke-linejoin:round;paint-order:stroke fill markers"
         id="rect1"
         width="135.46666"
         height="135.46666"
         x="67.73333"
         y="67.73333" />
      <rect
         style="fill:#00ff00;stroke-width:2.80129;stroke-linecap:round;stroke-linejoin:round;paint-order:stroke fill markers"
         id="rect2"
         width="95.617188"
         height="95.61721"
         x="87.658058"
         y="107.58277" />
      <rect
         style="fill:#00ffff;stroke-width:1.02092;stroke-linecap:round;stroke-linejoin:round;paint-order:stroke fill markers"
         id="rect4"
         width="95.617188"
         height="12.7"
         x="87.658058"
         y="94.882774" />
      <rect
         style="fill:#00ffff;stroke-width:0.589428;stroke-linecap:round;stroke-linejoin:round;paint-order:stroke fill markers"
         id="rect5"
         width="95.617188"
         height="4.2333336"
         x="87.658058"
         y="63.5" />
    </g>
    <path
       d="m 242.5094,167.34339 c 0.0242,-0.10894 0.0363,-0.20577 0.0363,-0.2905 0,-0.31472 -0.15735,-0.52049 -0.45996,-0.62943 -0.15736,-0.0605 -0.44786,-0.0847 -0.8473,-0.0968 -0.37524,-0.0121 -0.61732,0.20577 -0.70205,0.65363 -0.10894,0.48417 -0.41155,0.72626 -0.90782,0.72626 -0.56891,0 -0.84731,-0.62943 -0.84731,-1.90038 0,-0.10894 0.0121,-0.2784 0.0242,-0.52048 0.0605,-0.8352 0.30261,-1.28306 0.73837,-1.34358 0.59311,-0.0847 0.94413,0.24209 1.06517,0.96835 0.0605,0.32681 0.2784,0.45996 0.65364,0.41154 0.49627,-0.0605 0.77467,-0.0968 0.8594,-0.13315 0.31471,-0.10893 0.44786,-0.32681 0.41155,-0.62942 -0.10894,-0.91993 -0.61732,-1.64618 -1.51304,-2.16667 -0.73836,-0.43575 -1.57356,-0.65363 -2.48138,-0.65363 -1.29516,0 -2.29982,0.36313 -3.02608,1.07728 -0.72625,0.71416 -1.08938,1.70671 -1.08938,2.98976 0,1.33148 0.38733,2.34824 1.14991,3.05029 0.73836,0.68994 1.77933,1.02886 3.1229,1.02886 1.90038,0 3.17133,-0.8473 3.81286,-2.5419 z m 7.85569,-1.01676 c 0,-0.41155 -0.0726,-0.85941 -0.20577,-1.33147 -0.59311,-1.48883 -1.75513,-2.2272 -3.49814,-2.2272 -2.2393,0 -3.58288,1.31937 -3.58288,3.55867 0,2.22719 1.35568,3.54656 3.58288,3.54656 1.1257,0 2.02141,-0.31471 2.68715,-0.94414 0.67784,-0.62942 1.01676,-1.50093 1.01676,-2.60242 z m -3.43762,1.57356 c -0.15736,0.0363 -0.2905,0 -0.42365,-0.13315 -0.35102,-0.35102 -0.53259,-0.89572 -0.53259,-1.63408 0,-0.10894 0,-0.22998 0.0121,-0.36313 0.0484,-0.72626 0.2663,-1.07728 0.64153,-1.05307 0.35103,0.0242 0.60522,0.31471 0.73836,0.87151 0.0847,0.37523 0.12105,0.78678 0.0968,1.23463 -0.0363,0.64153 -0.21788,0.99256 -0.53259,1.07729 z m 9.41715,0.0242 c -0.0968,0 -0.2663,0.0121 -0.52049,0.0242 -0.25419,0.0121 -0.41154,0.0242 -0.49627,0.0242 -0.35103,0.0121 -0.56891,-0.0363 -0.65364,-0.14525 -0.0484,-0.38734 -0.0726,-0.62942 -0.0726,-0.73836 v -0.38734 c 0,-0.62942 0,-1.24674 0.0121,-1.83985 v -0.76257 c -0.0121,-0.79889 -0.2905,-1.19833 -0.8594,-1.19833 -1.13781,0 -1.82775,0.0484 -2.08194,0.15736 -0.30261,0.13314 -0.52049,0.39944 -0.65363,0.82309 -0.10894,0.36313 -0.15736,0.77467 -0.14526,1.23464 0.0242,0.88361 0.0363,1.25885 0.0363,1.14991 0,1.85195 0.0968,2.86872 0.3026,3.07449 0.25419,0.21788 0.65364,0.35102 1.18623,0.39944 0.15735,0.0121 0.581,0.0242 1.28305,0.0242 0.8473,0 1.57356,-0.0726 2.16667,-0.21788 0.32682,-0.0847 0.53259,-0.15735 0.64153,-0.21788 0.20577,-0.13314 0.31471,-0.32681 0.31471,-0.5689 0,-0.5568 -0.15735,-0.83519 -0.45996,-0.83519 z m 7.81937,-1.59777 c 0,-0.41155 -0.0726,-0.85941 -0.20578,-1.33147 -0.59311,-1.48883 -1.75512,-2.2272 -3.49814,-2.2272 -2.2393,0 -3.58287,1.31937 -3.58287,3.55867 0,2.22719 1.35568,3.54656 3.58287,3.54656 1.1257,0 2.02142,-0.31471 2.68715,-0.94414 0.67784,-0.62942 1.01677,-1.50093 1.01677,-2.60242 z m -3.43763,1.57356 c -0.15735,0.0363 -0.2905,0 -0.42365,-0.13315 -0.35102,-0.35102 -0.53259,-0.89572 -0.53259,-1.63408 0,-0.10894 0,-0.22998 0.0121,-0.36313 0.0484,-0.72626 0.26629,-1.07728 0.64153,-1.05307 0.35102,0.0242 0.60521,0.31471 0.73836,0.87151 0.0847,0.37523 0.12104,0.78678 0.0968,1.23463 -0.0363,0.64153 -0.21787,0.99256 -0.53259,1.07729 z m 7.48046,0.0484 c 0,-0.15735 0.0121,-0.24208 0.0363,-0.24208 0.0726,0 0.20577,0.24208 0.41154,0.72626 0.18157,0.42365 0.2784,0.66573 0.30261,0.72625 0.15736,0.42365 0.53259,0.62943 1.1257,0.60522 0.45996,-0.0242 0.76257,-0.0484 0.89572,-0.0605 0.44786,-0.0484 0.66574,-0.2663 0.66574,-0.66574 0,-0.0968 -0.0121,-0.20577 -0.0363,-0.31471 -0.14525,-0.65363 -0.49627,-1.28306 -1.04097,-1.90038 0.35103,-0.18156 0.59311,-0.39944 0.72626,-0.67784 0.13315,-0.25419 0.19367,-0.581 0.19367,-1.00465 0,-1.50094 -1.10149,-2.2514 -3.29237,-2.2514 h -0.95624 c -0.54469,0 -1.1257,0.0605 -1.74302,0.16946 -0.31471,0.0605 -0.53259,0.19367 -0.64153,0.41154 -0.13314,0.25419 -0.20577,1.22254 -0.20577,2.90504 0,1.74301 0.0968,2.73557 0.2905,2.96555 0.14526,0.18156 0.36313,0.30261 0.66574,0.36313 0.13315,0.0363 0.39944,0.0484 0.77468,0.0605 0.21787,0.0121 0.36312,0.0121 0.44785,0 0.67785,-0.0605 1.1015,-0.24209 1.25885,-0.54469 0.0847,-0.15736 0.12104,-0.42365 0.12104,-0.79889 z m 1.62198,-2.8203 c 0,0.35103 -0.24209,0.5447 -0.73836,0.58101 -0.52049,0.0363 -0.78678,-0.15736 -0.81099,-0.58101 -0.0121,-0.25419 0.0847,-0.41154 0.2905,-0.49627 0.13315,-0.0605 0.33892,-0.0726 0.61732,-0.0605 l 0.18157,0.0121 c 0.3026,0.0242 0.45996,0.20577 0.45996,0.54469 z"
       id="text1"
       style="font-size:12.1043px;font-family:Pusab;-inkscape-font-specification:'Pusab, Normal';white-space:pre;fill:#ffffff;stroke:#939ab7;stroke-width:0"
       transform="matrix(3.4973738,0,0,3.4973738,-751.03328,-498.63483)"
       aria-label="Color" />
    <path
       d="m 135.45117,107.72266 c -18.25841,3e-5 -33.12122,14.59775 -33.54883,32.7539 -10.476214,5.87225 -17.136805,17.0045 -17.136715,29.26758 2.4e-5,18.52733 15.03132,33.55857 33.558595,33.55859 6.09818,6e-5 12.04698,-1.66013 17.22656,-4.75781 5.14104,3.03435 11.02722,4.65836 17.05859,4.6582 18.52733,-2e-5 33.55857,-15.03123 33.5586,-33.55859 -5e-5,-12.2769 -6.676,-23.42045 -17.17188,-29.28711 -0.48945,-18.10085 -15.3263,-32.63474 -33.54492,-32.63476 z"
       style="opacity:1;mix-blend-mode:normal;fill:#000000;stroke:none;stroke-width:5.75469"
       id="path11"
       inkscape:path-effect="#path-effect11"
       inkscape:original-d="m 135.45168,114.33772 a 26.943615,26.943615 0 0 0 -26.94357,26.94358 26.943615,26.943615 0 0 0 0.20205,3.29282 26.943615,26.943615 0 0 0 -17.329174,25.17004 26.943615,26.943615 0 0 0 26.943574,26.94358 26.943615,26.943615 0 0 0 17.20205,-6.20582 26.943615,26.943615 0 0 0 17.08216,6.1066 26.943615,26.943615 0 0 0 26.94358,-26.94358 26.943615,26.943615 0 0 0 -17.34623,-25.17624 26.943615,26.943615 0 0 0 0.18914,-3.1874 26.943615,26.943615 0 0 0 -26.94358,-26.94358 z" />
    <circle
       style="display:inline;mix-blend-mode:normal;fill:#0055ff;fill-opacity:1;stroke:none;stroke-width:5.75469;stroke-dasharray:none;stroke-opacity:1"
       id="circle2"
       cx="118.3246"
       cy="169.74416"
       r="26.943615"
       inkscape:label="blue" />
    <circle
       style="display:inline;mix-blend-mode:normal;fill:#00ff55;fill-opacity:1;stroke:none;stroke-width:5.75469;stroke-dasharray:none;stroke-opacity:1"
       id="circle3"
       cx="152.60876"
       cy="169.6449"
       r="26.943615"
       inkscape:label="green" />
    <circle
       style="display:inline;opacity:1;mix-blend-mode:normal;fill:#ff0055;fill-opacity:1;stroke:none;stroke-width:5.75469;stroke-dasharray:none;stroke-opacity:1"
       id="circle1"
       cx="135.45168"
       cy="141.28134"
       r="26.943615"
       inkscape:label="red" />
    <g
       id="g16"
       inkscape:path-effect="#path-effect16">
      <path
         d="m 118.32422,142.74805 c -3.29259,-8e-5 -6.55695,0.6025 -9.63281,1.77734 l -0.0371,0.0137 0.004,0.041 c 1.22233,9.92654 7.83029,18.36318 17.17578,21.92578 l 0.0645,0.0254 0.008,-0.0684 c 0.81541,-6.84476 4.22777,-13.11471 9.5332,-17.51562 l 0.0508,-0.041 -0.0508,-0.041 c -4.82649,-3.95659 -10.87427,-6.11734 -17.11523,-6.11718 z"
         style="mix-blend-mode:lighten;fill:#ff55ff;fill-opacity:1;stroke-width:5.75469"
         id="path16"
         inkscape:original-d="m 125.85433,166.45754 a 26.943615,26.943615 0 0 1 9.55239,-17.55035 26.943615,26.943615 0 0 0 -17.08216,-6.1066 26.943615,26.943615 0 0 0 -9.6144,1.77353 26.943615,26.943615 0 0 0 17.14417,21.88342 z" />
      <path
         d="m 135.40625,148.83789 -0.0332,0.0273 c -5.32631,4.41823 -8.75365,10.71425 -9.57227,17.58594 l -0.004,0.041 0.0371,0.0137 c 3.07087,1.17085 6.33069,1.77129 9.61719,1.77148 3.29279,-3e-5 6.55877,-0.60226 9.63477,-1.77734 l 0.0371,-0.0137 -0.004,-0.041 c -0.84779,-6.88551 -4.31459,-13.18181 -9.67969,-17.58008 z"
         style="mix-blend-mode:lighten;fill:#ffffff;fill-opacity:1;stroke-width:5.75469"
         id="path14"
         inkscape:original-d="m 145.0666,166.45134 a 26.943615,26.943615 0 0 0 -9.65988,-17.54415 26.943615,26.943615 0 0 0 -9.55239,17.55035 26.943615,26.943615 0 0 0 9.59735,1.76785 26.943615,26.943615 0 0 0 9.61492,-1.77405 z" />
      <path
         d="m 145.11133,166.37695 -0.0645,0.0254 c -3.06392,1.17047 -6.3158,1.76951 -9.5957,1.76953 -3.27361,-1.9e-4 -6.5193,-0.59741 -9.57812,-1.76367 l -0.0645,-0.0254 -0.008,0.0684 c -0.12625,1.05993 -0.18752,2.12605 -0.1875,3.19336 -1.6e-4,8.08808 3.62607,15.75108 9.88086,20.87891 l 0.0332,0.0273 0.0332,-0.0273 c 6.18307,-5.12895 9.75982,-12.74586 9.75976,-20.7793 1.4e-4,-1.10284 -0.0665,-2.20421 -0.20117,-3.29883 z"
         style="mix-blend-mode:lighten;fill:#00ffff;fill-opacity:1;stroke-width:5.75469"
         id="path13"
         inkscape:original-d="m 145.0666,166.45134 a 26.943615,26.943615 0 0 1 -9.61492,1.77405 26.943615,26.943615 0 0 1 -9.59735,-1.76785 26.943615,26.943615 0 0 0 -0.18913,3.1874 26.943615,26.943615 0 0 0 9.86141,20.83698 26.943615,26.943615 0 0 0 9.74153,-20.73776 26.943615,26.943615 0 0 0 -0.20154,-3.29282 z" />
      <path
         d="m 152.60937,142.64844 c -6.29448,-6e-5 -12.39162,2.19816 -17.23632,6.21679 l -0.0508,0.041 0.0508,0.041 c 5.34407,4.38102 8.79615,10.65124 9.64062,17.50976 l 0.008,0.0684 0.0645,-0.0254 c 9.37258,-3.58038 15.98706,-12.06265 17.17383,-22.02539 l 0.004,-0.041 -0.0371,-0.0137 c -3.07089,-1.17067 -6.33072,-1.77146 -9.61719,-1.77148 z"
         style="mix-blend-mode:lighten;fill:#ffff55;fill-opacity:1;stroke-width:5.75469"
         id="path10"
         inkscape:original-d="m 162.20612,144.4687 a 26.943615,26.943615 0 0 0 -9.59735,-1.76733 26.943615,26.943615 0 0 0 -17.20205,6.20582 26.943615,26.943615 0 0 1 9.65988,17.54415 26.943615,26.943615 0 0 0 17.13952,-21.98264 z" />
    </g>
  </g>
</svg>
