<?xml version="1.0" encoding="UTF-8" standalone="no"?>
<!-- Created with Inkscape (http://www.inkscape.org/) -->

<svg
   width="270.93332mm"
   height="270.93332mm"
   viewBox="0 0 270.93332 270.93332"
   version="1.1"
   id="svg1"
   inkscape:version="1.4.2 (ebf0e940d0, 2025-05-08)"
   sodipodi:docname="EndLevel.svg"
   xml:space="preserve"
   xmlns:inkscape="http://www.inkscape.org/namespaces/inkscape"
   xmlns:sodipodi="http://sodipodi.sourceforge.net/DTD/sodipodi-0.dtd"
   xmlns="http://www.w3.org/2000/svg"
   xmlns:svg="http://www.w3.org/2000/svg"><sodipodi:namedview
     id="namedview1"
     pagecolor="#4d4d4d"
     bordercolor="#eeeeee"
     borderopacity="1"
     inkscape:showpageshadow="0"
     inkscape:pageopacity="0"
     inkscape:pagecheckerboard="false"
     inkscape:deskcolor="#181825"
     inkscape:document-units="px"
     inkscape:zoom="0.81738285"
     inkscape:cx="571.9474"
     inkscape:cy="581.12303"
     inkscape:window-width="1920"
     inkscape:window-height="1080"
     inkscape:window-x="0"
     inkscape:window-y="0"
     inkscape:window-maximized="1"
     inkscape:current-layer="layer1" /><defs
     id="defs1"><inkscape:path-effect
       effect="offset"
       id="path-effect6"
       is_visible="true"
       lpeversion="1.3"
       linejoin_type="miter"
       unit="px"
       offset="-25"
       miter_limit="4"
       attempt_force_join="false"
       update_on_knot_move="true" /><inkscape:path-effect
       effect="offset"
       id="path-effect5"
       is_visible="true"
       lpeversion="1.3"
       linejoin_type="miter"
       unit="px"
       offset="-54"
       miter_limit="4"
       attempt_force_join="false"
       update_on_knot_move="true" /><inkscape:path-effect
       effect="offset"
       id="path-effect3"
       is_visible="true"
       lpeversion="1.3"
       linejoin_type="miter"
       unit="px"
       offset="-54"
       miter_limit="4"
       attempt_force_join="false"
       update_on_knot_move="true" /><inkscape:path-effect
       effect="offset"
       id="path-effect2"
       is_visible="true"
       lpeversion="1.3"
       linejoin_type="miter"
       unit="px"
       offset="-25"
       miter_limit="4"
       attempt_force_join="false"
       update_on_knot_move="true" /></defs><g
     inkscape:label="Calque 1"
     inkscape:groupmode="layer"
     id="layer1"><g
       id="g2"
       inkscape:label="template"
       style="display:none"><rect
         style="fill:#ff0000;stroke-width:3.96875;stroke-linecap:round;stroke-linejoin:round;paint-order:stroke fill markers"
         id="rect1"
         width="135.46666"
         height="135.46666"
         x="67.73333"
         y="67.73333" /><rect
         style="fill:#00ff00;stroke-width:2.80129;stroke-linecap:round;stroke-linejoin:round;paint-order:stroke fill markers"
         id="rect2"
         width="95.617188"
         height="95.61721"
         x="87.658058"
         y="107.58277" /><rect
         style="fill:#00ffff;stroke-width:1.02092;stroke-linecap:round;stroke-linejoin:round;paint-order:stroke fill markers"
         id="rect4"
         width="95.617188"
         height="12.7"
         x="87.658058"
         y="94.882774" /><rect
         style="fill:#00ffff;stroke-width:0.589428;stroke-linecap:round;stroke-linejoin:round;paint-order:stroke fill markers"
         id="rect5"
         width="95.617188"
         height="4.2333336"
         x="87.658058"
         y="63.5" /></g><path
       d="m 120.61822,87.686113 c -1.778,0.296333 -3.13267,0.423333 -4.02167,0.423333 -1.397,0.04233 -2.286,-0.08467 -2.667,-0.296333 -0.55033,-0.338666 -0.84666,-0.931333 -0.84666,-1.777999 0,-0.634999 0.16933,-1.100666 0.508,-1.439332 0.46566,-0.465666 1.524,-0.719666 3.175,-0.677333 1.48166,0.04233 2.41299,-0.08467 2.75166,-0.296333 0.55033,-0.338666 0.80433,-1.058332 0.80433,-2.201332 0.0423,-1.650998 -0.46566,-2.455331 -1.43933,-2.497664 -1.143,-0.04233 -2.32833,-0.127 -3.64066,-0.254 -1.43933,-0.127 -2.159,-0.804333 -2.159,-1.989665 0,-0.889 0.254,-1.481666 0.80433,-1.777999 0.381,-0.211666 1.27,-0.338666 2.70933,-0.296333 0.46567,0 1.143,0.08467 2.032,0.254 0.889,0.127 1.60867,0.211666 2.07433,0.211666 1.22767,0 1.86267,-1.100666 1.86267,-3.344331 0,-1.735665 -1.31233,-2.878664 -3.89467,-3.34433 -2.75166,-0.508 -6.01132,-0.762 -9.77899,-0.762 -2.794,0 -5.03766,0.127 -6.77333,0.423333 -0.97366,0.169333 -1.69333,0.338667 -2.158995,0.508 -0.804332,0.296333 -1.354665,0.719666 -1.650998,1.354665 -0.550333,1.016 -0.804333,4.910663 -0.804333,11.641658 v 3.428998 c 0,4.61433 0.381,7.365994 1.142999,8.33966 0.973666,1.227666 4.571997,1.820332 10.794997,1.820332 3.85233,0 6.90032,-0.211666 9.22865,-0.677333 2.58234,-0.507999 3.89467,-1.608665 3.89467,-3.34433 0,-0.508 -0.0423,-1.058333 -0.16933,-1.650999 -0.254,-1.312333 -0.84667,-1.904999 -1.778,-1.777999 z M 147.08711,73.67379 c -0.127,-1.735665 -0.84666,-2.582331 -2.20133,-2.582331 h -1.31233 c -1.778,0 -2.62467,0.804333 -2.58233,2.370665 0.127,2.836331 0.16933,4.36033 0.16933,4.529663 -0.0423,0.211667 -0.0847,0.338666 -0.21167,0.338666 -0.0847,0 -0.254,-0.126999 -0.508,-0.380999 -0.93133,-0.973666 -2.37066,-2.539998 -4.36033,-4.783663 -1.22766,-1.354666 -2.49766,-2.031999 -3.89466,-2.074332 l -2.70933,-0.04233 c -1.60867,-0.04233 -2.794,0.338666 -3.556,1.142999 -0.84667,0.888999 -1.31233,4.36033 -1.35466,10.498659 -0.0423,2.751664 0.0423,5.926662 0.254,9.440326 0.12699,1.904998 0.80433,2.878664 2.11666,2.920998 l 1.43933,0.04233 c 1.73567,0.04233 2.75167,-0.719666 2.58233,-2.455332 -0.0847,-0.804332 -0.127,-1.439332 -0.127,-1.862665 v -1.566332 c 0,-0.973666 0.127,-1.439332 0.381,-1.439332 0.0847,0 0.16934,0.04233 0.29634,0.127 1.05833,0.846666 3.04799,2.666998 5.96899,5.503329 1.143,1.100666 2.58233,1.650999 4.23333,1.650999 h 2.54 c 0.84667,0 1.56633,-0.296334 2.20133,-0.846666 0.29634,-0.254 0.46567,-0.635 0.59267,-1.185333 0.21166,-0.888999 0.29633,-3.174998 0.29633,-6.815661 0,-5.50333 -0.0847,-9.694327 -0.254,-12.530658 z m 12.54127,-2.624664 c -5.24933,0 -8.128,0.465666 -8.67833,1.439332 -0.42333,0.761999 -0.635,4.317997 -0.635,10.710325 0,6.307662 0.21167,9.778993 0.635,10.413992 0.67733,0.973666 3.556,1.481666 8.59366,1.481666 3.048,0 5.67266,-0.592666 7.874,-1.735666 4.02166,-2.116665 6.01132,-5.545662 6.01132,-10.329325 0,-2.074332 -0.46566,-3.936997 -1.39699,-5.672662 -2.286,-4.190997 -6.43467,-6.307662 -12.40366,-6.307662 z m 4.02166,17.483653 c -0.46566,-0.04233 -0.762,-0.423333 -0.84666,-1.142999 -0.127,-0.973666 -0.16934,-2.455332 -0.16934,-4.36033 0,-1.735665 0.0847,-3.174998 0.21167,-4.317997 0.0847,-0.719666 0.33867,-1.100666 0.80433,-1.142999 0.21167,-0.04233 0.508,0 0.889,0.127 2.07433,0.592666 3.13267,2.370665 3.13267,5.333996 0,0.888999 -0.0847,1.650999 -0.29634,2.285998 -0.67733,2.243665 -1.905,3.301998 -3.72533,3.217331 z"
       id="text1"
       style="font-size:42.3333px;line-height:1;font-family:Pusab;-inkscape-font-specification:Pusab;font-variant-ligatures:no-common-ligatures;text-align:center;letter-spacing:0.264583px;text-anchor:middle;fill:#ffffff;stroke-width:21.1667;stroke-linecap:round;stroke-linejoin:round;paint-order:stroke fill markers"
       aria-label="End" /><path
       style="fill:#ffffff;stroke:none;stroke-width:21.1667;stroke-linecap:round;stroke-linejoin:round;paint-order:stroke fill markers"
       id="rect3"
       width="95.61718"
       height="95.61721"
       x="87.658058"
       y="107.58277"
       inkscape:path-effect="#path-effect3"
       sodipodi:type="rect"
       d="m 101.95508,121.87891 v 67.02343 h 67.02344 v -67.02343 z" /><path
       style="fill:#000000;stroke:none;stroke-width:21.1667;stroke-linecap:round;stroke-linejoin:round;paint-order:stroke fill markers"
       id="path3"
       width="95.61718"
       height="95.61721"
       x="87.658058"
       y="107.58277"
       inkscape:path-effect="#path-effect5;#path-effect6"
       sodipodi:type="rect"
       d="m 108.58008,128.50391 v 53.77343 h 53.77344 v -53.77343 z" /></g></svg>
