<?xml version="1.0" encoding="UTF-8" standalone="no"?>
<!-- Created with Inkscape (http://www.inkscape.org/) -->

<svg
   width="270.93332mm"
   height="270.93332mm"
   viewBox="0 0 270.93332 270.93332"
   version="1.1"
   id="svg1"
   inkscape:version="1.4.2 (ebf0e940d0, 2025-05-08)"
   sodipodi:docname="Shake.svg"
   xml:space="preserve"
   xmlns:inkscape="http://www.inkscape.org/namespaces/inkscape"
   xmlns:sodipodi="http://sodipodi.sourceforge.net/DTD/sodipodi-0.dtd"
   xmlns="http://www.w3.org/2000/svg"
   xmlns:svg="http://www.w3.org/2000/svg"><sodipodi:namedview
     id="namedview1"
     pagecolor="#4d4d4d"
     bordercolor="#eeeeee"
     borderopacity="1"
     inkscape:showpageshadow="0"
     inkscape:pageopacity="0"
     inkscape:pagecheckerboard="false"
     inkscape:deskcolor="#181825"
     inkscape:document-units="px"
     inkscape:zoom="0.40869143"
     inkscape:cx="241.01313"
     inkscape:cy="800.11465"
     inkscape:window-width="1920"
     inkscape:window-height="1080"
     inkscape:window-x="0"
     inkscape:window-y="0"
     inkscape:window-maximized="1"
     inkscape:current-layer="g3" /><defs
     id="defs1"><inkscape:path-effect
       effect="offset"
       id="path-effect2"
       is_visible="true"
       lpeversion="1.3"
       linejoin_type="miter"
       unit="px"
       offset="-25"
       miter_limit="4"
       attempt_force_join="false"
       update_on_knot_move="true" /></defs><g
     inkscape:label="Calque 1"
     inkscape:groupmode="layer"
     id="layer1"><g
       id="g2"
       inkscape:label="template"
       style="display:none"><rect
         style="fill:#ff0000;stroke-width:3.96875;stroke-linecap:round;stroke-linejoin:round;paint-order:stroke fill markers"
         id="rect1"
         width="135.46666"
         height="135.46666"
         x="67.73333"
         y="67.73333" /><rect
         style="fill:#00ff00;stroke-width:2.80129;stroke-linecap:round;stroke-linejoin:round;paint-order:stroke fill markers"
         id="rect2"
         width="95.617188"
         height="95.61721"
         x="87.658058"
         y="107.58277" /><rect
         style="fill:#00ffff;stroke-width:1.02092;stroke-linecap:round;stroke-linejoin:round;paint-order:stroke fill markers"
         id="rect4"
         width="95.617188"
         height="12.7"
         x="87.658058"
         y="94.882774" /><rect
         style="fill:#00ffff;stroke-width:0.589428;stroke-linecap:round;stroke-linejoin:round;paint-order:stroke fill markers"
         id="rect5"
         width="95.617188"
         height="4.2333336"
         x="87.658058"
         y="63.5" /></g><path
       d="m 83.057983,95.517774 c 8.59366,-0.296333 12.742324,-3.640664 12.488324,-10.117659 -0.127,-3.090331 -2.116665,-5.630329 -6.053662,-7.704661 -1.312332,-0.677333 -1.947332,-1.396999 -1.947332,-2.158998 0,-0.762 0.381,-1.143 1.185332,-1.143 0.677333,0 1.608666,0.423333 2.836332,1.312333 0.719666,0.507999 1.439332,0.761999 2.074331,0.761999 0.804333,-0.04233 1.566333,-0.931332 2.201332,-2.666998 0.127,-0.465666 0.169333,-0.888999 0.169333,-1.269999 0,-0.719666 -0.211666,-1.312332 -0.677333,-1.693332 -1.185332,-1.058332 -2.582331,-1.862665 -4.190996,-2.455331 -2.666998,-1.016 -5.545663,-1.481666 -8.635994,-1.354666 -8.59366,0.296333 -12.742324,3.640664 -12.488324,10.117659 0.127,3.090331 2.116665,5.630329 6.053662,7.704661 1.312333,0.677333 1.947332,1.396999 1.947332,2.158998 0,0.762 -0.381,1.142999 -1.185332,1.142999 -0.677333,0 -1.608666,-0.423333 -2.836332,-1.312332 -0.719666,-0.508 -1.439332,-0.761999 -2.074331,-0.761999 -0.804333,0.04233 -1.566332,0.931332 -2.201332,2.666998 -0.127,0.465666 -0.169333,0.888999 -0.169333,1.269999 0,0.719666 0.211666,1.312332 0.677333,1.693332 1.185332,1.058332 2.582331,1.862665 4.190997,2.455331 2.666998,1.015999 5.545662,1.481666 8.635993,1.354666 z m 40.015597,-21.92865 c -0.127,-0.889 -0.508,-1.523999 -1.22767,-1.904999 -0.59267,-0.423333 -2.413,-0.634999 -5.50333,-0.634999 -1.651,0 -2.45533,0.804332 -2.45533,2.412998 l 0.21167,4.61433 c 0.0423,1.100665 0,1.777998 -0.127,1.989665 -0.21167,0.338666 -0.84667,0.507999 -1.94734,0.550333 -1.98966,0.04233 -2.32833,-0.465667 -2.32833,-2.539998 0,-0.211667 0,-0.508 0.0423,-0.931333 0.0847,-1.354666 0.12699,-2.328332 0.12699,-2.878664 -0.0423,-1.439333 -0.59266,-2.412999 -1.65099,-2.878665 -0.508,-0.211667 -1.69334,-0.338666 -3.556,-0.338666 -2.667,0 -4.445,0.465666 -5.418664,1.396999 -0.804332,0.804332 -1.227665,2.158998 -1.269999,4.063996 0.04233,1.947332 0.127,4.106331 0.211667,6.476996 0,6.815661 0.296333,10.413992 0.846666,10.794992 0.761999,0.719666 2.286,1.185332 4.61433,1.312332 1.05833,0.04233 2.032,0 3.00566,-0.211667 1.31234,-0.296333 2.159,-0.804332 2.54,-1.481665 0.21167,-0.508 0.33867,-1.354666 0.33867,-2.497665 v -2.074332 c 0,-0.465666 0,-0.846666 0.0423,-1.142999 0.0847,-0.804333 0.33867,-1.312332 0.762,-1.566332 0.29633,-0.169333 0.84667,-0.296333 1.73567,-0.338666 1.31233,-0.08467 1.98966,0.296333 2.032,1.142999 0.0423,0.296333 0.0423,0.761999 0,1.396999 l -0.127,3.513664 c 0,0.253999 0.0423,0.761999 0.0847,1.481665 0.127,1.185333 1.016,1.777999 2.667,1.777999 3.38666,0 5.37633,-0.254 6.01133,-0.804333 0.46566,-0.423333 0.762,-1.693332 0.84666,-3.85233 v -4.23333 c 0,-2.328332 -0.0847,-5.291663 -0.29633,-8.97466 -0.127,-2.285999 -0.16933,-3.513664 -0.21166,-3.640664 z m 14.36159,-2.751665 c -1.143,0.04233 -2.159,0.550333 -3.09034,1.481666 -0.635,0.634999 -1.43933,1.862665 -2.41299,3.682997 -1.43934,2.666998 -2.83634,5.841995 -4.23333,9.482659 -1.43934,3.725331 -2.159,6.307662 -2.11667,7.746995 0.0423,1.227665 1.31233,1.735665 3.85233,1.608665 0.84667,-0.04233 1.43933,-0.254 1.73567,-0.634999 0.254,-0.211667 0.508,-0.762 0.71966,-1.566333 0.29634,-1.100665 0.762,-1.650998 1.43933,-1.693332 0.93134,-0.04233 1.56634,-0.04233 1.94734,0 h 2.45533 c 0.635,0 1.016,0.254 1.22766,0.804333 l 0.59267,1.693332 c 0.381,1.142999 2.413,1.693332 6.01133,1.650999 1.82033,-0.04233 3.175,-0.169333 4.064,-0.465666 1.52399,-0.508 1.86266,-0.973666 1.69333,-2.497665 -0.29634,-2.836331 -1.86267,-7.111995 -4.699,-12.826991 -1.905,-3.809997 -3.25966,-6.138328 -4.14866,-6.984994 -1.10067,-1.058333 -2.413,-1.566333 -3.937,-1.523999 z m -2.286,12.107324 c 0.254,0 0.80433,1.142999 1.651,3.428998 0.127,0.296333 -0.127,0.550333 -0.71967,0.677333 -0.33867,0.08467 -0.635,0.126999 -0.889,0.126999 -0.71967,0 -1.18533,-0.08467 -1.48167,-0.296333 -0.21166,-0.127 -0.254,-0.253999 -0.21166,-0.423333 0.71966,-2.328331 1.27,-3.513664 1.651,-3.513664 z m 25.15658,-11.895657 c -3.34433,0 -5.334,0.338666 -5.88433,1.015999 -0.67733,0.634999 -1.016,4.48733 -1.016,11.472325 0,6.476995 0.33867,9.990659 0.97367,10.625658 0.16933,0.169333 0.46566,0.338667 0.84666,0.508 0.93134,0.296333 2.20133,0.423333 3.85233,0.423333 h 1.56634 c 1.98966,-0.211667 3.25966,-0.677333 3.80999,-1.439332 0.46567,-0.635 0.67734,-1.989666 0.635,-4.106331 0,-0.888999 0.127,-1.312332 0.33867,-1.312332 0.33866,0 0.889,0.719666 1.69333,2.201332 0.46567,1.227665 0.80433,2.074331 1.016,2.539998 0.55033,1.481665 1.86266,2.201331 3.937,2.116665 1.143,-0.04233 2.20133,-0.127 3.17499,-0.211667 1.524,-0.127 2.286,-0.888999 2.286,-2.285998 0,-0.381 -0.0423,-0.761999 -0.127,-1.142999 -0.635,-2.836331 -2.286,-5.884329 -4.91066,-9.22866 -0.33867,-0.423333 -0.42333,-0.719666 -0.21167,-0.931332 2.921,-4.402664 4.40267,-7.196662 4.40267,-8.424327 0,-0.762 -0.55034,-1.227666 -1.60867,-1.354666 l -2.54,-0.08467 c -1.22766,-0.04233 -2.20133,0.677333 -2.87866,2.201332 -0.55033,1.269999 -1.524,3.090331 -2.921,5.503329 -0.29633,0.381 -0.59267,0.592666 -0.889,0.592666 -0.29633,0.04233 -0.42333,-0.253999 -0.42333,-0.846666 0,-0.507999 0,-1.269999 0.0423,-2.328331 0.0423,-1.058333 0.0423,-1.820332 0.0423,-2.328332 0,-2.116665 -1.10066,-3.174997 -3.30199,-3.174997 z m 39.38058,17.56832 c -1.524,0.211666 -2.70933,0.338666 -3.556,0.338666 -1.27,0.04233 -2.032,-0.04233 -2.286,-0.211666 -0.46567,-0.296333 -0.71967,-0.804333 -0.71967,-1.566333 0,-0.550332 0.127,-0.973665 0.381,-1.269999 0.508,-0.423333 1.43934,-0.634999 2.75167,-0.592666 1.35466,0.04233 2.159,-0.04233 2.45533,-0.254 0.46567,-0.296333 0.71967,-0.931332 0.71967,-1.904998 0,-1.439332 -0.42334,-2.158999 -1.27,-2.201332 -1.73567,-0.08467 -2.75167,-0.169333 -3.09033,-0.211666 -1.31234,-0.254 -1.94734,-0.846666 -1.94734,-1.735666 0,-0.804332 0.21167,-1.312332 0.67734,-1.566332 0.33866,-0.211666 1.10066,-0.296333 2.32833,-0.254 0.381,0 0.97367,0.08467 1.778,0.211667 0.80433,0.127 1.43933,0.211666 1.86266,0.211666 0.55034,0 0.97367,-0.380999 1.27,-1.100666 0.21167,-0.550332 0.33867,-1.185332 0.33867,-1.820331 0,-0.973666 -0.33867,-1.693333 -1.05833,-2.158999 -0.42334,-0.296333 -1.22767,-0.550333 -2.37067,-0.761999 -2.45533,-0.465667 -5.29166,-0.719666 -8.50899,-0.719666 -5.461,0 -8.509,0.677332 -9.22866,2.031998 -0.46567,0.888999 -0.71967,4.275664 -0.71967,10.159992 v 2.963332 c 0,4.021663 0.33867,6.476995 1.016,7.323661 0.84667,1.058332 3.97933,1.566332 9.39799,1.566332 3.302,0 5.969,-0.211667 8.04333,-0.592666 2.286,-0.423333 3.429,-1.396999 3.429,-2.920998 0,-2.158999 -0.55033,-3.132664 -1.69333,-2.963331 z"
       id="text1"
       style="font-size:42.3333px;line-height:1;font-family:Pusab;-inkscape-font-specification:Pusab;font-variant-ligatures:no-common-ligatures;text-align:center;letter-spacing:0.264583px;text-anchor:middle;fill:#ffffff;stroke-width:1.05833;stroke-linecap:round;stroke-linejoin:round;paint-order:stroke fill markers"
       aria-label="Shake" /><g
       id="g3"
       transform="translate(0.1012481,0.69491493)"><path
         style="fill:none;stroke:#000000;stroke-width:21.16666689;stroke-linecap:round;stroke-linejoin:round;stroke-dasharray:none;paint-order:stroke fill markers"
         d="m 76.21952,175.32779 22.7743,-31.95814 21.51542,30.26982 26.32206,-39.76031 26.55094,41.63446 21.12904,-23.83264"
         id="path2"
         sodipodi:nodetypes="cccccc" /><path
         style="fill:none;stroke:#ffffff;stroke-width:7.9375;stroke-linecap:round;stroke-linejoin:round;stroke-dasharray:none;paint-order:stroke fill markers"
         d="m 76.21952,175.32779 22.7743,-31.95814 21.51542,30.26982 26.32206,-39.76031 26.55094,41.63446 21.12904,-23.83264"
         id="path1"
         sodipodi:nodetypes="cccccc" /></g></g></svg>
