<?xml version="1.0" encoding="UTF-8" standalone="no"?>
<!-- Created with Inkscape (http://www.inkscape.org/) -->

<svg
   width="270.93332mm"
   height="270.93332mm"
   viewBox="0 0 270.93332 270.93332"
   version="1.1"
   id="svg1"
   inkscape:version="1.4.2 (ebf0e940d0, 2025-05-08)"
   sodipodi:docname="Teleport.svg"
   xml:space="preserve"
   xmlns:inkscape="http://www.inkscape.org/namespaces/inkscape"
   xmlns:sodipodi="http://sodipodi.sourceforge.net/DTD/sodipodi-0.dtd"
   xmlns="http://www.w3.org/2000/svg"
   xmlns:svg="http://www.w3.org/2000/svg"><sodipodi:namedview
     id="namedview1"
     pagecolor="#4d4d4d"
     bordercolor="#eeeeee"
     borderopacity="1"
     inkscape:showpageshadow="0"
     inkscape:pageopacity="0"
     inkscape:pagecheckerboard="false"
     inkscape:deskcolor="#181825"
     inkscape:document-units="px"
     inkscape:zoom="0.77343757"
     inkscape:cx="343.2727"
     inkscape:cy="664.5656"
     inkscape:window-width="1920"
     inkscape:window-height="1080"
     inkscape:window-x="0"
     inkscape:window-y="0"
     inkscape:window-maximized="1"
     inkscape:current-layer="layer1" /><defs
     id="defs1"><inkscape:path-effect
       effect="offset"
       id="path-effect5"
       is_visible="true"
       lpeversion="1.3"
       linejoin_type="round"
       unit="px"
       offset="25"
       miter_limit="4"
       attempt_force_join="false"
       update_on_knot_move="true" /><inkscape:path-effect
       effect="mirror_symmetry"
       start_point="135.46666,117.64548"
       end_point="135.46666,196.4949"
       center_point="135.46666,157.07019"
       id="path-effect4"
       is_visible="true"
       lpeversion="1.2"
       lpesatellites=""
       mode="X"
       discard_orig_path="false"
       fuse_paths="false"
       oposite_fuse="false"
       split_items="false"
       split_open="false"
       link_styles="false" /><inkscape:path-effect
       effect="mirror_symmetry"
       start_point="135.46666,117.64548"
       end_point="135.46666,196.4949"
       center_point="135.46666,157.07019"
       id="path-effect1"
       is_visible="true"
       lpeversion="1.2"
       lpesatellites=""
       mode="X"
       discard_orig_path="false"
       fuse_paths="false"
       oposite_fuse="false"
       split_items="false"
       split_open="false"
       link_styles="false" /><inkscape:path-effect
       effect="offset"
       id="path-effect2"
       is_visible="true"
       lpeversion="1.2"
       linejoin_type="miter"
       unit="px"
       offset="-25"
       miter_limit="4"
       attempt_force_join="false"
       update_on_knot_move="true" /></defs><g
     inkscape:label="Calque 1"
     inkscape:groupmode="layer"
     id="layer1"><g
       id="g2"
       inkscape:label="template"
       style="display:none"><rect
         style="fill:#ff0000;stroke-width:3.96875;stroke-linecap:round;stroke-linejoin:round;paint-order:stroke fill markers"
         id="rect1"
         width="135.46666"
         height="135.46666"
         x="67.73333"
         y="67.73333" /><rect
         style="fill:#00ff00;stroke-width:2.80129;stroke-linecap:round;stroke-linejoin:round;paint-order:stroke fill markers"
         id="rect2"
         width="95.617188"
         height="95.61721"
         x="87.658058"
         y="107.58277" /><rect
         style="fill:#00ffff;stroke-width:1.02092;stroke-linecap:round;stroke-linejoin:round;paint-order:stroke fill markers"
         id="rect4"
         width="95.617188"
         height="12.7"
         x="87.658058"
         y="94.882774" /><rect
         style="fill:#00ffff;stroke-width:0.589428;stroke-linecap:round;stroke-linejoin:round;paint-order:stroke fill markers"
         id="rect5"
         width="95.617188"
         height="4.2333336"
         x="87.658058"
         y="63.5" /></g><path
       d="m 155.18071,138.2448 v 9.61801 h -28.43237 v 7.52874 7.52874 h 28.43237 v 9.61802 l 21.60281,-17.14676 z"
       style="fill:#ffffff;stroke:#000000;stroke-width:13.2292;stroke-linecap:round;stroke-linejoin:round;stroke-dasharray:none;paint-order:stroke fill markers"
       id="path4"
       inkscape:label="arrow" /><ellipse
       style="fill:#ffffff;stroke:#000000;stroke-width:13.2292;stroke-linecap:round;stroke-linejoin:round;paint-order:stroke fill markers"
       id="path2"
       cx="101.25893"
       cy="155.39137"
       rx="7.1081023"
       ry="7.5286703"
       inkscape:label="circle" /><path
       d="m 37.93339,76.256122 c -0.254,7.535327 -0.338666,12.234324 -0.211666,14.139322 0.127,1.650999 0.338666,2.624665 0.719666,3.005665 1.142999,1.058332 3.047997,1.650999 5.799662,1.735665 0.508,0.04233 0.931333,0.04233 1.227666,0 2.074332,-0.127 3.471331,-0.423333 4.190997,-0.931332 0.973666,-0.677333 1.439332,-1.989666 1.481665,-3.936998 l 0.127,-13.165656 c 0,-1.439333 0.677333,-2.158999 2.031999,-2.116665 0.380999,0 1.523998,0.08467 1.989665,0.08467 0.888999,0 1.566332,-0.08467 1.989665,-0.296333 0.973666,-0.465666 1.481666,-1.777999 1.481666,-3.894664 0,-1.142999 -0.465667,-1.862665 -1.396999,-2.243665 -1.566333,-0.592666 -4.063997,-0.931332 -7.535328,-0.973666 -4.698997,-0.08467 -9.35566,0.04233 -13.927656,0.381 -2.793998,0.211667 -4.190997,1.269999 -4.190997,3.259664 0,2.539998 0.846666,3.767664 2.497665,3.640664 l 2.116665,-0.127 c 1.058332,-0.04233 1.650998,0.423333 1.608665,1.439333 z m 43.566296,12.361324 c -1.523999,0.211666 -2.709332,0.338666 -3.555998,0.338666 -1.269999,0.04233 -2.031998,-0.04233 -2.285998,-0.211666 -0.465666,-0.296333 -0.719666,-0.804333 -0.719666,-1.566333 0,-0.550332 0.127,-0.973665 0.380999,-1.269999 0.508,-0.423333 1.439333,-0.634999 2.751665,-0.592666 1.354666,0.04233 2.158998,-0.04233 2.455332,-0.254 0.465666,-0.296333 0.719666,-0.931332 0.719666,-1.904998 0,-1.439332 -0.423333,-2.158999 -1.269999,-2.201332 -1.735666,-0.08467 -2.751665,-0.169333 -3.090331,-0.211666 -1.312333,-0.254 -1.947332,-0.846666 -1.947332,-1.735666 0,-0.804332 0.211666,-1.312332 0.677333,-1.566332 0.338666,-0.211666 1.100665,-0.296333 2.328331,-0.254 0.381,0 0.973666,0.08467 1.777999,0.211667 0.804333,0.127 1.439332,0.211666 1.862665,0.211666 0.550333,0 0.973666,-0.380999 1.269999,-1.100666 0.211667,-0.550332 0.338667,-1.185332 0.338667,-1.820331 0,-0.973666 -0.338667,-1.693333 -1.058333,-2.158999 -0.423333,-0.296333 -1.227666,-0.550333 -2.370665,-0.761999 -2.455331,-0.465667 -5.291663,-0.719666 -8.508993,-0.719666 -5.460996,0 -8.508994,0.677332 -9.22866,2.031998 -0.465667,0.888999 -0.719666,4.275664 -0.719666,10.159992 v 2.963332 c 0,4.021663 0.338666,6.476995 1.015999,7.323661 0.846666,1.058332 3.97933,1.566332 9.397993,1.566332 3.301997,0 5.968995,-0.211667 8.043327,-0.592666 2.285998,-0.423333 3.428998,-1.396999 3.428998,-2.920998 0,-2.158999 -0.550333,-3.132664 -1.693332,-2.963331 z m 23.457904,0.04233 c -0.33866,0 -0.93133,0.04233 -1.82033,0.08467 -0.889,0.04233 -1.43933,0.08467 -1.73567,0.08467 -1.22766,0.04233 -1.989661,-0.127 -2.285994,-0.507999 -0.169333,-1.354666 -0.254,-2.201332 -0.254,-2.582332 v -1.354665 c 0,-2.201332 0,-4.36033 0.04233,-6.434662 v -2.666998 c -0.04233,-2.793998 -1.015999,-4.190997 -3.005664,-4.190997 -3.97933,0 -6.392329,0.169333 -7.281328,0.550333 -1.058332,0.465666 -1.820332,1.396999 -2.285998,2.878664 -0.381,1.269999 -0.550333,2.709332 -0.508,4.317997 0.08467,3.090331 0.127,4.402663 0.127,4.021664 0,6.476995 0.338667,10.032992 1.058333,10.752658 0.888999,0.762 2.285998,1.227666 4.148663,1.396999 0.550333,0.04233 2.031999,0.08467 4.48733,0.08467 2.963331,0 5.503325,-0.254 7.577665,-0.762 1.143,-0.296333 1.86266,-0.550332 2.24366,-0.761999 0.71967,-0.465666 1.10067,-1.142999 1.10067,-1.989665 0,-1.947332 -0.55034,-2.920998 -1.60867,-2.920998 z m 24.34693,-0.04233 c -1.524,0.211666 -2.70933,0.338666 -3.556,0.338666 -1.27,0.04233 -2.032,-0.04233 -2.286,-0.211666 -0.46566,-0.296333 -0.71966,-0.804333 -0.71966,-1.566333 0,-0.550332 0.127,-0.973665 0.381,-1.269999 0.508,-0.423333 1.43933,-0.634999 2.75166,-0.592666 1.35467,0.04233 2.159,-0.04233 2.45533,-0.254 0.46567,-0.296333 0.71967,-0.931332 0.71967,-1.904998 0,-1.439332 -0.42333,-2.158999 -1.27,-2.201332 -1.73567,-0.08467 -2.75167,-0.169333 -3.09033,-0.211666 -1.31233,-0.254 -1.94733,-0.846666 -1.94733,-1.735666 0,-0.804332 0.21166,-1.312332 0.67733,-1.566332 0.33867,-0.211666 1.10066,-0.296333 2.32833,-0.254 0.381,0 0.97367,0.08467 1.778,0.211667 0.80433,0.127 1.43933,0.211666 1.86266,0.211666 0.55034,0 0.97367,-0.380999 1.27,-1.100666 0.21167,-0.550332 0.33867,-1.185332 0.33867,-1.820331 0,-0.973666 -0.33867,-1.693333 -1.05833,-2.158999 -0.42334,-0.296333 -1.22767,-0.550333 -2.37067,-0.761999 -2.45533,-0.465667 -5.29166,-0.719666 -8.50899,-0.719666 -5.461,0 -8.50899,0.677332 -9.22866,2.031998 -0.46567,0.888999 -0.71967,4.275664 -0.71967,10.159992 v 2.963332 c 0,4.021663 0.33867,6.476995 1.016,7.323661 0.84667,1.058332 3.97933,1.566332 9.398,1.566332 3.30199,0 5.96899,-0.211667 8.04332,-0.592666 2.286,-0.423333 3.429,-1.396999 3.429,-2.920998 0,-2.158999 -0.55033,-3.132664 -1.69333,-2.963331 z m 22.9499,-9.73666 c 0,1.227666 -0.84666,1.904999 -2.58233,2.031999 -1.905,0.127 -2.83633,-0.550333 -2.83633,-2.031999 -0.0847,-0.888999 0.254,-1.439332 0.97367,-1.735665 0.508,-0.211667 1.22766,-0.296333 2.20133,-0.211667 l 0.55033,0.04233 c 1.143,0.08467 1.69333,0.719666 1.69333,1.904998 z m -5.41866,9.313327 c 0,-0.635 0.16933,-1.100666 0.46567,-1.439333 0.127,-0.169333 0.46566,-0.296333 0.97366,-0.423333 0.16934,-0.04233 0.508,-0.08467 1.05834,-0.169333 l 1.56633,-0.211666 c 2.413,-0.338667 4.14866,-1.016 5.24933,-1.989665 1.22766,-1.100666 1.86266,-2.793998 1.86266,-5.037663 0,-5.24933 -3.85233,-7.873994 -11.55699,-7.873994 h -3.302 c -5.20699,0 -8.17032,0.677332 -8.88999,2.031998 -0.46567,0.888999 -0.71966,4.275664 -0.71966,10.159992 0,6.095996 0.33866,9.567327 1.01599,10.371659 0.508,0.635 1.27,1.058333 2.32834,1.269999 1.18533,0.127 2.07433,0.211667 2.70933,0.211667 1.22766,0.04233 2.032,0.04233 2.413,0 2.37066,-0.169333 3.85233,-0.804333 4.40266,-1.904999 0.29633,-0.550333 0.42333,-1.481665 0.42333,-2.793998 z m 39.20593,-5.12233 c 0,-1.439332 -0.254,-3.005664 -0.71966,-4.656663 -2.07434,-5.206996 -6.13833,-7.789327 -12.23433,-7.789327 -7.83166,0 -12.53066,4.614329 -12.53066,12.44599 0,7.789328 4.74133,12.403658 12.53066,12.403658 3.937,0 7.06966,-1.100666 9.39799,-3.301998 2.37067,-2.201332 3.556,-5.249329 3.556,-9.10166 z m -12.02266,5.503329 c -0.55033,0.127 -1.016,0 -1.48166,-0.465666 -1.22767,-1.227666 -1.86267,-3.132664 -1.86267,-5.714996 0,-0.380999 0,-0.804332 0.0423,-1.269999 0.16933,-2.539998 0.93133,-3.767663 2.24366,-3.682997 1.22767,0.08467 2.11667,1.100666 2.58233,3.047998 0.29634,1.312332 0.42334,2.751664 0.33867,4.317997 -0.127,2.243665 -0.762,3.47133 -1.86267,3.767663 z m 27.01396,0.169334 c 0,-0.550333 0.0423,-0.846666 0.127,-0.846666 0.254,0 0.71966,0.846666 1.43933,2.539998 0.635,1.481665 0.97367,2.328331 1.05833,2.539998 0.55034,1.481665 1.86267,2.201331 3.937,2.116665 1.60866,-0.08467 2.667,-0.169333 3.13266,-0.211667 1.56634,-0.169333 2.32834,-0.931332 2.32834,-2.328331 0,-0.338667 -0.0423,-0.719666 -0.127,-1.100666 -0.508,-2.285998 -1.73567,-4.48733 -3.64067,-6.646328 1.22767,-0.635 2.07433,-1.396999 2.54,-2.370665 0.46567,-0.889 0.67733,-2.031999 0.67733,-3.513664 0,-5.24933 -3.85233,-7.873994 -11.51466,-7.873994 h -3.34433 c -1.905,0 -3.93699,0.211666 -6.09599,0.592666 -1.10067,0.211666 -1.86267,0.677333 -2.24367,1.439332 -0.46566,0.888999 -0.71966,4.275664 -0.71966,10.159992 0,6.095996 0.33866,9.567327 1.016,10.371659 0.508,0.635 1.27,1.058333 2.32833,1.269999 0.46566,0.127 1.397,0.169334 2.70933,0.211667 0.762,0.04233 1.27,0.04233 1.56633,0 2.37067,-0.211667 3.85233,-0.846666 4.40266,-1.904999 0.29634,-0.550333 0.42334,-1.481665 0.42334,-2.793998 z m 5.67266,-9.86366 c 0,1.227666 -0.84667,1.904999 -2.58233,2.031999 -1.82033,0.127 -2.75167,-0.550333 -2.83633,-2.031999 -0.0423,-0.888999 0.29633,-1.439332 1.016,-1.735665 0.46566,-0.211667 1.18533,-0.254 2.159,-0.211667 l 0.63499,0.04233 c 1.05834,0.08467 1.60867,0.719666 1.60867,1.904998 z m 14.35627,-0.253999 c -0.254,6.519328 -0.33866,10.625658 -0.21166,12.361324 0.0847,1.396999 0.29633,2.285998 0.635,2.624664 0.97366,0.973666 2.667,1.439333 5.07999,1.481666 h 1.05834 c 1.73566,-0.08467 2.96333,-0.338667 3.64066,-0.804333 0.889,-0.592666 1.31233,-1.735665 1.31233,-3.428997 l 0.0847,-11.514658 c 0,-1.227666 0.59267,-1.862666 1.778,-1.820332 0.33866,0 1.31233,0.08467 1.778,0.08467 0.80433,0 1.35466,-0.08467 1.69333,-0.253999 0.889,-0.465667 1.31233,-1.608666 1.31233,-3.428998 0,-0.973666 -0.42333,-1.650999 -1.22767,-1.947332 -1.39699,-0.550333 -3.59833,-0.846666 -6.56166,-0.888999 -4.23333,-0.08467 -8.29732,0.04233 -12.14965,0.338666 -2.45534,0.211667 -3.683,1.142999 -3.683,2.878665 0,2.243665 0.71966,3.301997 2.20133,3.174997 l 1.86267,-0.126999 c 0.97366,-0.04233 1.43933,0.380999 1.39699,1.269999 z"
       id="text2"
       style="font-weight:bold;font-size:42.3333px;line-height:1;font-family:Pusab;-inkscape-font-specification:'Pusab Bold';font-variant-ligatures:no-common-ligatures;text-align:center;letter-spacing:0.851958px;text-anchor:middle;fill:#ffffff;stroke-width:13.2292;stroke-linecap:round;stroke-linejoin:round;paint-order:stroke fill markers"
       aria-label="Teleport" /></g></svg>
