<?xml version="1.0" encoding="UTF-8" standalone="no"?>
<!-- Created with Inkscape (http://www.inkscape.org/) -->

<svg
   width="33.866665mm"
   height="33.866665mm"
   viewBox="0 0 33.866665 33.866665"
   version="1.1"
   id="svg1"
   inkscape:version="1.4.3 (0d15f75042, 2025-12-25)"
   xml:space="preserve"
   sodipodi:docname="Checkpoint.svg"
   xmlns:inkscape="http://www.inkscape.org/namespaces/inkscape"
   xmlns:sodipodi="http://sodipodi.sourceforge.net/DTD/sodipodi-0.dtd"
   xmlns="http://www.w3.org/2000/svg"
   xmlns:svg="http://www.w3.org/2000/svg"><sodipodi:namedview
     id="namedview1"
     pagecolor="#4d4d4d"
     bordercolor="#eeeeee"
     borderopacity="1"
     inkscape:showpageshadow="0"
     inkscape:pageopacity="0"
     inkscape:pagecheckerboard="false"
     inkscape:deskcolor="#181825"
     inkscape:document-units="px"
     inkscape:zoom="6.1875004"
     inkscape:cx="64.080804"
     inkscape:cy="63.999996"
     inkscape:window-width="1920"
     inkscape:window-height="1080"
     inkscape:window-x="0"
     inkscape:window-y="0"
     inkscape:window-maximized="1"
     inkscape:current-layer="g9" /><defs
     id="defs1"><inkscape:path-effect
       effect="offset"
       id="path-effect9"
       is_visible="true"
       lpeversion="1.3"
       linejoin_type="round"
       unit="px"
       offset="10"
       miter_limit="4"
       attempt_force_join="false"
       update_on_knot_move="true" /><inkscape:path-effect
       effect="offset"
       id="path-effect7"
       is_visible="true"
       lpeversion="1.3"
       linejoin_type="round"
       unit="px"
       offset="5"
       miter_limit="4"
       attempt_force_join="false"
       update_on_knot_move="true" /></defs><g
     inkscape:label="Calque 1"
     inkscape:groupmode="layer"
     id="layer1"><g
       id="g9"
       transform="matrix(1.4430435,0,0,1.4430435,-7.5023173,-7.5025196)"
       style="stroke-width:0.69298"><path
         d="m 16.933594,5.3085937 a 1.8335091,1.8335091 0 0 0 -1.636719,1.0058594 l -2.476562,4.8945309 -2.476563,4.896485 a 1.8335091,1.8335091 0 0 0 0,1.65625 l 2.476563,4.896484 2.476562,4.894531 a 1.8335091,1.8335091 0 0 0 3.273437,0 l 2.476563,-4.894531 2.476562,-4.896484 a 1.8335091,1.8335091 0 0 0 0,-1.65625 L 21.046875,11.208984 18.570312,6.3144531 A 1.8335091,1.8335091 0 0 0 16.933594,5.3085937 Z"
         style="display:inline;fill:#000000;stroke-width:1.46428;stroke-linecap:round;stroke-linejoin:round;paint-order:stroke fill markers"
         id="path7"
         inkscape:path-effect="#path-effect9"
         inkscape:original-d="m 16.933334,7.141683 -2.476335,4.895825 -2.476335,4.895826 2.476335,4.895825 2.476335,4.895825 2.476334,-4.895825 2.476335,-4.895825 -2.476335,-4.895826 z" /><path
         d="m 16.933594,6.2265625 a 0.91675454,0.91675454 0 0 0 -0.81836,0.5019531 l -2.476562,4.8945314 -2.476563,4.896484 a 0.91675454,0.91675454 0 0 0 0,0.828125 l 2.476563,4.896485 2.476562,4.894531 a 0.91675454,0.91675454 0 0 0 1.636719,0 l 2.476563,-4.894531 2.476562,-4.896485 a 0.91675454,0.91675454 0 0 0 0,-0.828125 L 20.228516,11.623047 17.751953,6.7285156 A 0.91675454,0.91675454 0 0 0 16.933594,6.2265625 Z"
         style="fill:#ffffff;stroke-width:1.46428;stroke-linecap:round;stroke-linejoin:round;paint-order:stroke fill markers"
         id="path6"
         inkscape:path-effect="#path-effect7"
         inkscape:original-d="m 16.933334,7.141683 -2.476335,4.895825 -2.476335,4.895826 2.476335,4.895825 2.476335,4.895825 2.476334,-4.895825 2.476335,-4.895825 -2.476335,-4.895826 z" /><path
         sodipodi:type="star"
         style="fill:#ff9999;fill-opacity:1;stroke-width:1.46428;stroke-linecap:round;stroke-linejoin:round;paint-order:stroke fill markers"
         id="path2"
         inkscape:flatsided="false"
         sodipodi:sides="3"
         sodipodi:cx="17.779093"
         sodipodi:cy="12.124857"
         sodipodi:r1="4.879715"
         sodipodi:r2="2.4398575"
         sodipodi:arg1="0.52359878"
         sodipodi:arg2="1.5707963"
         inkscape:rounded="0"
         inkscape:randomized="0"
         d="m 22.00505,14.564714 -4.225957,0 -4.225957,0 2.112978,-3.659786 2.112979,-3.659786 2.112978,3.659786 z"
         inkscape:transform-center-y="-1.6319826"
         transform="matrix(1.1720169,0,0,1.3377685,-3.9040646,-2.5508836)" /><path
         sodipodi:type="star"
         style="fill:#ff0000;fill-opacity:1;stroke-width:1.46428;stroke-linecap:round;stroke-linejoin:round;paint-order:stroke fill markers"
         id="path3"
         inkscape:flatsided="false"
         sodipodi:sides="3"
         sodipodi:cx="17.779093"
         sodipodi:cy="12.124857"
         sodipodi:r1="4.879715"
         sodipodi:r2="2.4398575"
         sodipodi:arg1="0.52359878"
         sodipodi:arg2="1.5707963"
         inkscape:rounded="0"
         inkscape:randomized="0"
         d="m 22.00505,14.564714 -4.225957,0 -4.225957,0 2.112978,-3.659786 2.112979,-3.659786 2.112978,3.659786 z"
         inkscape:transform-center-y="1.6319831"
         transform="matrix(-1.1720169,0,0,-1.3377685,37.77073,36.417549)" /></g></g></svg>
