<?xml version="1.0" encoding="UTF-8" standalone="no"?>
<svg
   width="16"
   height="16"
   version="1.1"
   id="svg1"
   sodipodi:docname="FoldLeft copy.svg"
   inkscape:version="1.4.3 (0d15f75042, 2025-12-25)"
   xmlns:inkscape="http://www.inkscape.org/namespaces/inkscape"
   xmlns:sodipodi="http://sodipodi.sourceforge.net/DTD/sodipodi-0.dtd"
   xmlns="http://www.w3.org/2000/svg"
   xmlns:svg="http://www.w3.org/2000/svg">
  <defs
     id="defs1">
    <inkscape:path-effect
       effect="fillet_chamfer"
       id="path-effect1"
       is_visible="true"
       lpeversion="1"
       nodesatellites_param="F,0,0,1,0,0.79852431,0,1 @ F,0,0,1,0,1,0,1 @ F,0,0,1,0,1,0,1 @ F,0,0,1,0,0.25,0,1 @ F,0,0,1,0,1,0,1 @ F,0,0,1,0,1,0,1"
       radius="0"
       unit="px"
       method="auto"
       mode="F"
       chamfer_steps="1"
       flexible="false"
       use_knot_distance="true"
       apply_no_radius="true"
       apply_with_radius="true"
       only_selected="false"
       hide_knots="false" />
  </defs>
  <sodipodi:namedview
     id="namedview1"
     pagecolor="#ffffff"
     bordercolor="#000000"
     borderopacity="0.25"
     inkscape:showpageshadow="2"
     inkscape:pageopacity="0.0"
     inkscape:pagecheckerboard="0"
     inkscape:deskcolor="#d1d1d1"
     inkscape:zoom="32"
     inkscape:cx="5.515625"
     inkscape:cy="6.3125"
     inkscape:window-width="1876"
     inkscape:window-height="990"
     inkscape:window-x="0"
     inkscape:window-y="0"
     inkscape:window-maximized="1"
     inkscape:current-layer="svg1" />
  <path
     fill="#e0e0e0"
     d="M 8.5646418,10.970892 12.949747,6.5857867 a 1.0000003,1.0000003 90.000009 0 0 0,-1.4142138 0.99999963,0.99999963 5.2382319e-6 0 0 -1.414213,-1e-7 L 8.1767765,8.5303303 a 0.25,0.25 1.3504746e-6 0 1 -0.3535534,0 L 4.4644658,5.1715728 a 0.99999966,0.99999966 179.99999 0 0 -1.4142134,2e-7 1.0000003,1.0000003 89.999987 0 0 4e-7,1.4142137 l 4.3851051,4.3851053 a 0.7985243,0.7985243 1.0128559e-6 0 0 1.1292839,0 z"
     id="path1"
     sodipodi:nodetypes="ccccccc"
     style="stroke-width:1;stroke-dasharray:none"
     inkscape:path-effect="#path-effect1"
     inkscape:original-d="M 7.9999998,11.535534 13.656854,5.8786799 12.242641,4.464466 7.9999998,8.707107 3.757359,4.464466 2.343146,5.8786799 Z"
     transform="rotate(180,7.9999999,8.0417271)" />
</svg>
