<?xml version="1.0" encoding="UTF-8" standalone="no"?>
<!-- Created with Inkscape (http://www.inkscape.org/) -->

<svg
   width="135.46666mm"
   height="135.46666mm"
   viewBox="0 0 135.46666 135.46666"
   version="1.1"
   id="svg1"
   inkscape:version="1.4.2 (ebf0e940d0, 2025-05-08)"
   sodipodi:docname="RegularSawbladeSmall.svg"
   xml:space="preserve"
   xmlns:inkscape="http://www.inkscape.org/namespaces/inkscape"
   xmlns:sodipodi="http://sodipodi.sourceforge.net/DTD/sodipodi-0.dtd"
   xmlns="http://www.w3.org/2000/svg"
   xmlns:svg="http://www.w3.org/2000/svg"><sodipodi:namedview
     id="namedview1"
     pagecolor="#4d4d4d"
     bordercolor="#eeeeee"
     borderopacity="1"
     inkscape:showpageshadow="0"
     inkscape:pageopacity="0"
     inkscape:pagecheckerboard="false"
     inkscape:deskcolor="#181825"
     inkscape:document-units="px"
     inkscape:zoom="0.70710678"
     inkscape:cx="187.3833"
     inkscape:cy="163.34167"
     inkscape:window-width="1055"
     inkscape:window-height="1011"
     inkscape:window-x="0"
     inkscape:window-y="0"
     inkscape:window-maximized="1"
     inkscape:current-layer="layer1"
     showgrid="false" /><defs
     id="defs1"><inkscape:path-effect
       effect="copy_rotate"
       starting_point="76.515187,67.73333"
       origin="67.73333,67.73333"
       id="path-effect2"
       is_visible="true"
       lpeversion="1.2"
       lpesatellites=""
       method="normal"
       num_copies="9"
       starting_angle="0"
       rotation_angle="40"
       gap="-0.01"
       copies_to_360="true"
       mirror_copies="false"
       split_items="false"
       link_styles="false" /></defs><g
     inkscape:label="Calque 1"
     inkscape:groupmode="layer"
     id="layer1"><path
       id="path2"
       style="fill:#000000;stroke-width:6.61457;stroke-linejoin:round;paint-order:stroke fill markers"
       d="m 72.959368,40.157751 -9.608716,9.398391 a 18.698227,18.698227 0 0 0 -3.533634,1.237137 l -5.80533,-7.543211 -1.31982,13.375929 a 18.698227,18.698227 0 0 0 -1.911508,3.218922 l -9.296075,-2.0469 7.586617,11.094928 a 18.698227,18.698227 0 0 0 0.605132,3.694865 l -8.437213,4.407485 12.943913,3.622516 a 18.698227,18.698227 0 0 0 2.838586,2.441196 l -3.630268,8.799461 12.243697,-5.54488 a 18.698227,18.698227 0 0 0 2.098582,0.117823 18.698227,18.698227 0 0 0 1.644861,-0.07235 l 2.87579,9.074384 5.814631,-12.118125 a 18.698227,18.698227 0 0 0 2.897499,-2.371433 l 8.035167,5.103047 -3.334678,-13.020391 a 18.698227,18.698227 0 0 0 0.695049,-3.678847 l 9.436115,-1.256254 -10.9244,-7.831044 a 18.698227,18.698227 0 0 0 -1.832443,-3.264402 l 6.421313,-7.027479 -13.402282,1.023193 A 18.698227,18.698227 0 0 0 72.557842,49.66828 Z"
       inkscape:transform-center-x="-0.78496702"
       inkscape:transform-center-y="0.062272959" /></g></svg>
