<?xml version="1.0" encoding="UTF-8" standalone="no"?>
<!-- Created with Inkscape (http://www.inkscape.org/) -->

<svg
   width="564"
   height="564"
   viewBox="0 0 149.225 149.225"
   version="1.1"
   id="svg1"
   xml:space="preserve"
   inkscape:version="1.4.2 (ebf0e940d0, 2025-05-08)"
   sodipodi:docname="Ball2.svg"
   xmlns:inkscape="http://www.inkscape.org/namespaces/inkscape"
   xmlns:sodipodi="http://sodipodi.sourceforge.net/DTD/sodipodi-0.dtd"
   xmlns:xlink="http://www.w3.org/1999/xlink"
   xmlns="http://www.w3.org/2000/svg"
   xmlns:svg="http://www.w3.org/2000/svg"><sodipodi:namedview
     id="namedview1"
     pagecolor="#1f1f1f"
     bordercolor="#ffffff"
     borderopacity="0.24705882"
     inkscape:showpageshadow="2"
     inkscape:pageopacity="0.0"
     inkscape:pagecheckerboard="0"
     inkscape:deskcolor="#000000"
     inkscape:document-units="px"
     inkscape:zoom="2.8284271"
     inkscape:cx="187.02974"
     inkscape:cy="109.07122"
     inkscape:window-width="1920"
     inkscape:window-height="1008"
     inkscape:window-x="0"
     inkscape:window-y="0"
     inkscape:window-maximized="1"
     inkscape:current-layer="layer1" /><defs
     id="defs1"><linearGradient
       id="linearGradient573"
       inkscape:collect="always"><stop
         style="stop-color:#ffffff;stop-opacity:1;"
         offset="0.25295109"
         id="stop572" /><stop
         style="stop-color:#8e8e8e;stop-opacity:1;"
         offset="1"
         id="stop573" /></linearGradient><linearGradient
       id="linearGradient566"
       inkscape:collect="always"><stop
         style="stop-color:#ffffff;stop-opacity:1;"
         offset="0.25295109"
         id="stop565" /><stop
         style="stop-color:#242424;stop-opacity:1;"
         offset="0.91062397"
         id="stop566" /></linearGradient><linearGradient
       id="linearGradient547"
       inkscape:collect="always"><stop
         style="stop-color:#24ff7d;stop-opacity:1;"
         offset="0.39291736"
         id="stop547" /><stop
         style="stop-color:#003415;stop-opacity:1;"
         offset="0.84991562"
         id="stop548" /></linearGradient><linearGradient
       inkscape:collect="always"
       xlink:href="#linearGradient573"
       id="linearGradient528"
       x1="68.865288"
       y1="38.67701"
       x2="72.808083"
       y2="76.190216"
       gradientUnits="userSpaceOnUse"
       spreadMethod="repeat" /><linearGradient
       inkscape:collect="always"
       xlink:href="#linearGradient573"
       id="linearGradient530"
       x1="68.865273"
       y1="38.677002"
       x2="72.808083"
       y2="76.190285"
       gradientUnits="userSpaceOnUse" /><linearGradient
       inkscape:collect="always"
       xlink:href="#linearGradient573"
       id="linearGradient532"
       x1="68.865456"
       y1="38.678722"
       x2="72.807899"
       y2="76.188522"
       gradientUnits="userSpaceOnUse" /><linearGradient
       inkscape:collect="always"
       xlink:href="#linearGradient573"
       id="linearGradient534"
       x1="68.86528"
       y1="38.676998"
       x2="72.808083"
       y2="76.190247"
       gradientUnits="userSpaceOnUse" /><linearGradient
       inkscape:collect="always"
       xlink:href="#linearGradient573"
       id="linearGradient536"
       x1="68.86528"
       y1="38.676998"
       x2="72.808083"
       y2="76.190247"
       gradientUnits="userSpaceOnUse" /><linearGradient
       inkscape:collect="always"
       xlink:href="#linearGradient573"
       id="linearGradient538"
       x1="68.86528"
       y1="38.676998"
       x2="72.808083"
       y2="76.190247"
       gradientUnits="userSpaceOnUse" /><linearGradient
       inkscape:collect="always"
       xlink:href="#linearGradient573"
       id="linearGradient541"
       x1="68.86528"
       y1="38.676998"
       x2="72.808083"
       y2="76.190247"
       gradientUnits="userSpaceOnUse" /><linearGradient
       inkscape:collect="always"
       xlink:href="#linearGradient573"
       id="linearGradient546"
       gradientUnits="userSpaceOnUse"
       x1="68.86528"
       y1="38.676998"
       x2="72.808083"
       y2="76.190247" /><linearGradient
       inkscape:collect="always"
       xlink:href="#linearGradient547"
       id="linearGradient548"
       x1="70.123688"
       y1="56.919914"
       x2="76.077209"
       y2="90.684036"
       gradientUnits="userSpaceOnUse" /><linearGradient
       inkscape:collect="always"
       xlink:href="#linearGradient547"
       id="linearGradient550"
       x1="70.123695"
       y1="56.919914"
       x2="76.077217"
       y2="90.684013"
       gradientUnits="userSpaceOnUse" /><linearGradient
       inkscape:collect="always"
       xlink:href="#linearGradient547"
       id="linearGradient552"
       x1="70.123695"
       y1="56.919914"
       x2="76.077217"
       y2="90.684013"
       gradientUnits="userSpaceOnUse" /><linearGradient
       inkscape:collect="always"
       xlink:href="#linearGradient547"
       id="linearGradient554"
       x1="70.123695"
       y1="56.919914"
       x2="76.077217"
       y2="90.684013"
       gradientUnits="userSpaceOnUse" /><linearGradient
       inkscape:collect="always"
       xlink:href="#linearGradient547"
       id="linearGradient556"
       x1="70.123993"
       y1="56.921616"
       x2="76.076912"
       y2="90.682312"
       gradientUnits="userSpaceOnUse" /><linearGradient
       inkscape:collect="always"
       xlink:href="#linearGradient547"
       id="linearGradient558"
       x1="70.123695"
       y1="56.919914"
       x2="76.077217"
       y2="90.684013"
       gradientUnits="userSpaceOnUse" /><linearGradient
       inkscape:collect="always"
       xlink:href="#linearGradient547"
       id="linearGradient560"
       x1="70.123695"
       y1="56.919914"
       x2="76.077217"
       y2="90.684013"
       gradientUnits="userSpaceOnUse" /><linearGradient
       inkscape:collect="always"
       xlink:href="#linearGradient547"
       id="linearGradient562"
       x1="70.123695"
       y1="56.919914"
       x2="76.077217"
       y2="90.684013"
       gradientUnits="userSpaceOnUse" /><linearGradient
       inkscape:collect="always"
       xlink:href="#linearGradient566"
       id="linearGradient564"
       x1="64.765839"
       y1="94.450928"
       x2="63.039036"
       y2="78.02153"
       gradientUnits="userSpaceOnUse" /><linearGradient
       inkscape:collect="always"
       xlink:href="#linearGradient566"
       id="linearGradient568"
       x1="64.765839"
       y1="94.45089"
       x2="63.039043"
       y2="78.021568"
       gradientUnits="userSpaceOnUse" /><linearGradient
       inkscape:collect="always"
       xlink:href="#linearGradient566"
       id="linearGradient570"
       x1="64.765656"
       y1="94.449181"
       x2="63.039227"
       y2="78.023277"
       gradientUnits="userSpaceOnUse" /><linearGradient
       inkscape:collect="always"
       xlink:href="#linearGradient566"
       id="linearGradient572"
       x1="64.765839"
       y1="94.45089"
       x2="63.039043"
       y2="78.021568"
       gradientUnits="userSpaceOnUse" /></defs><g
     inkscape:label="Layer 1"
     inkscape:groupmode="layer"
     id="layer1"
     style="display:inline;stroke:#ffffff;stroke-opacity:0"><path
       style="display:inline;fill:#24ff7d;fill-opacity:1;stroke:#24ff7d;stroke-width:23.8125;stroke-linecap:round;stroke-linejoin:round;stroke-dasharray:none;stroke-opacity:1;paint-order:markers stroke fill"
       d="m 64.427954,12.594684 c 6.092413,-0.224327 22.725459,3.076696 41.537906,27.505554 1.24848,-3.713665 3.02416,-6.308562 5.41052,-16.57051 3.74934,3.466337 14.8414,19.947745 9.66367,48.907441 5.61542,-2.221102 10.81621,-4.854657 15.60234,-7.900664 -1.86411,19.648054 -14.78356,30.659573 -27.25146,41.523075 5.91338,2.44908 11.28588,4.1847 16.11755,5.20687 -13.49208,12.16981 -37.746083,12.52935 -48.979642,9.21438 2.086307,5.42746 4.782703,10.76036 8.089159,15.99864 -20.482738,-2.00376 -32.796021,-16.72622 -41.403646,-27.52159 -2.660812,6.35603 -4.479068,11.91847 -5.454758,16.6873 C 27.330856,112.93114 24.669608,95.365394 28.395579,76.366864 22.554263,78.667429 17.256786,81.338437 12.503174,84.379897 15.213109,66.757326 24.679437,52.902775 41.565113,43.653821 36.861728,41.31921 31.091466,39.410985 23.42994,37.54994 31.742819,29.240163 60.475204,22.289015 72.948943,29.73189 71.782703,24.989579 68.358968,19.733237 64.427954,12.594684 Z"
       id="path15-9"
       sodipodi:nodetypes="ccccccccccccccccc"
       inkscape:label="glow" /><path
       style="display:inline;fill:#000000;fill-opacity:1;stroke:#000000;stroke-width:11.9062;stroke-linecap:round;stroke-linejoin:round;stroke-dasharray:none;stroke-opacity:1;paint-order:markers stroke fill"
       d="m 64.428879,12.593721 c 6.092407,-0.224316 22.725458,3.076704 41.537901,27.505564 1.47697,-3.959331 3.5302,-8.111774 5.41053,-16.570513 3.74934,3.466335 14.8414,19.94775 9.66366,48.907454 6.55666,-2.667032 11.09914,-4.98871 15.60235,-7.900672 -1.86411,19.648052 -14.78355,30.659572 -27.25144,41.523066 5.22699,2.22348 10.81481,4.02988 16.11753,5.20688 -13.49209,12.16981 -37.746083,12.52936 -48.979643,9.21437 1.737324,4.71098 4.643604,10.47478 8.089172,15.99863 -20.482758,-2.00375 -32.79603,-16.72621 -41.403645,-27.52158 -2.660832,6.35603 -4.47909,11.91847 -5.454779,16.6873 C 27.331782,112.93017 24.67053,95.364432 28.396503,76.365904 22.555191,78.666461 17.25772,81.337475 12.504101,84.378941 15.214037,66.756371 24.680361,52.901815 41.56604,43.652864 36.862651,41.318249 31.092391,39.410029 23.430866,37.548981 31.743749,29.239209 60.476125,22.288066 72.949867,29.730941 72.066841,26.281675 68.916976,19.987439 64.428879,12.593721 Z"
       id="path15"
       sodipodi:nodetypes="ccccccccccccccccc"
       inkscape:label="outline" /><g
       id="g15"
       style="display:inline;stroke:#ffffff;stroke-width:7.9375;stroke-dasharray:none;stroke-opacity:0;paint-order:stroke fill markers"
       transform="matrix(0.86004422,0.85865724,-0.85922601,0.85784034,103.39278,-64.575027)"
       inkscape:label="g15"><g
         id="g11"
         inkscape:label="side1"
         style="stroke:#ffffff;stroke-width:7.9375;stroke-dasharray:none;stroke-opacity:0;paint-order:stroke fill markers"><path
           style="display:inline;fill:url(#linearGradient538);stroke:#ffffff;stroke-width:7.9375;stroke-linecap:round;stroke-linejoin:round;stroke-dasharray:none;stroke-opacity:0;paint-order:stroke fill markers"
           d="m 65.397785,68.164551 c -2.694157,-8.794572 -4.877001,-14.062184 -9.452634,-21.461734 11.1954,0.643327 22.208588,8.254235 29.78318,17.420045 -5.967503,-0.119776 -16.1292,2.019994 -20.330546,4.041689 z"
           id="path3"
           sodipodi:nodetypes="cccc" /><path
           style="display:inline;opacity:1;fill:url(#linearGradient562);stroke:#ffffff;stroke-width:7.9375;stroke-linecap:round;stroke-linejoin:round;stroke-dasharray:none;stroke-opacity:0;paint-order:stroke fill markers"
           d="m 59.926364,79.699968 c 1.12397,-2.067159 3.423337,-4.918057 6.032231,-7.662564 5.976346,-2.616359 13.635849,-3.566098 20.315815,-4.133331 -1.19157,2.796859 -2.888722,6.722114 -4.440398,9.64946 -7.140954,-0.496098 -15.092257,0.737198 -21.907648,2.146435 z"
           id="path4"
           sodipodi:nodetypes="ccccc" /><path
           style="fill:#151515;fill-opacity:1;stroke:#ffffff;stroke-width:7.9375;stroke-linecap:round;stroke-linejoin:round;stroke-dasharray:none;stroke-opacity:0;paint-order:stroke fill markers"
           d="m 70.791337,84.6222 c 2.982367,2.158733 4.884739,3.513079 7.174542,5.067442 -2.158437,1.23545 -4.394044,2.371681 -6.905258,3.607131 l -2.999094,-2.176568 z"
           id="path6"
           sodipodi:nodetypes="ccccc" /><path
           style="fill:url(#linearGradient564);stroke:#ffffff;stroke-width:7.9375;stroke-linecap:round;stroke-linejoin:round;stroke-dasharray:none;stroke-opacity:0;paint-order:stroke fill markers"
           d="m 59.611128,83.979426 c 2.611446,-0.576857 5.472343,-1.09135 8.582692,-1.543481 -0.697453,1.822861 -1.221197,3.475282 -3.180508,7.577091 l -2.595855,0.02339 c -1.028988,-1.870891 -1.902067,-3.874299 -2.806329,-6.057 z"
           id="path7"
           sodipodi:nodetypes="ccccc" /></g><g
         id="g14"
         inkscape:label="side2"
         transform="rotate(90,64.140656,97.812726)"
         style="opacity:1;stroke:#ffffff;stroke-width:7.9375;stroke-dasharray:none;stroke-opacity:0;paint-order:stroke fill markers"><path
           style="display:inline;fill:url(#linearGradient546);stroke:#ffffff;stroke-width:7.9375;stroke-linecap:round;stroke-linejoin:round;stroke-dasharray:none;stroke-opacity:0;paint-order:stroke fill markers"
           d="m 65.397785,68.164551 c -2.694157,-8.794572 -4.877001,-14.062184 -9.452634,-21.461734 11.1954,0.643327 22.208588,8.254235 29.78318,17.420045 -5.967503,-0.119776 -16.1292,2.019994 -20.330546,4.041689 z"
           id="path11"
           sodipodi:nodetypes="cccc" /><path
           style="display:inline;opacity:1;fill:url(#linearGradient560);stroke:#ffffff;stroke-width:7.9375;stroke-linecap:round;stroke-linejoin:round;stroke-dasharray:none;stroke-opacity:0;paint-order:stroke fill markers"
           d="m 59.926364,79.699968 c 1.12397,-2.067159 3.423337,-4.918057 6.032231,-7.662564 5.976346,-2.616359 13.635849,-3.566098 20.315815,-4.133331 -1.19157,2.796859 -2.888722,6.722114 -4.440398,9.64946 -7.140954,-0.496098 -15.092257,0.737198 -21.907648,2.146435 z"
           id="path12"
           sodipodi:nodetypes="ccccc" /><path
           style="fill:#141414;fill-opacity:1;stroke:#ffffff;stroke-width:7.9375;stroke-linecap:round;stroke-linejoin:round;stroke-dasharray:none;stroke-opacity:0;paint-order:stroke fill markers"
           d="m 70.791337,84.6222 c 2.982367,2.158733 4.884739,3.513079 7.174542,5.067442 -2.158437,1.23545 -4.394044,2.371681 -6.905258,3.607131 l -2.999094,-2.176568 z"
           id="path13"
           sodipodi:nodetypes="ccccc" /><path
           style="fill:url(#linearGradient568);stroke:#ffffff;stroke-width:7.9375;stroke-linecap:round;stroke-linejoin:round;stroke-dasharray:none;stroke-opacity:0;paint-order:stroke fill markers"
           d="m 59.611128,83.979426 c 2.611446,-0.576857 5.472343,-1.09135 8.582692,-1.543481 -0.697453,1.822861 -1.221197,3.475282 -3.180508,7.577091 l -2.595855,0.02339 c -1.028988,-1.870891 -1.902067,-3.874299 -2.806329,-6.057 z"
           id="path14"
           sodipodi:nodetypes="ccccc" /></g><g
         id="g11-2"
         inkscape:label="side1.5"
         style="display:inline;stroke:#ffffff;stroke-width:7.9375;stroke-dasharray:none;stroke-opacity:0;paint-order:stroke fill markers"
         transform="rotate(45,64.125307,97.856762)"><path
           style="display:inline;fill:url(#linearGradient541);stroke:#ffffff;stroke-width:7.9375;stroke-linecap:round;stroke-linejoin:round;stroke-dasharray:none;stroke-opacity:0;paint-order:stroke fill markers"
           d="m 65.397785,68.164551 c -2.694157,-8.794572 -4.877001,-14.062184 -9.452634,-21.461734 11.1954,0.643327 22.208588,8.254235 29.78318,17.420045 -5.967503,-0.119776 -16.1292,2.019994 -20.330546,4.041689 z"
           id="path3-9"
           sodipodi:nodetypes="cccc" /><path
           style="display:inline;opacity:1;fill:url(#linearGradient558);stroke:#ffffff;stroke-width:7.9375;stroke-linecap:round;stroke-linejoin:round;stroke-dasharray:none;stroke-opacity:0;paint-order:stroke fill markers"
           d="m 59.926364,79.699968 c 1.12397,-2.067159 3.423337,-4.918057 6.032231,-7.662564 5.976346,-2.616359 13.635849,-3.566098 20.315815,-4.133331 -1.19157,2.796859 -2.888722,6.722114 -4.440398,9.64946 -7.140954,-0.496098 -15.092257,0.737198 -21.907648,2.146435 z"
           id="path4-1"
           sodipodi:nodetypes="ccccc" /></g><g
         id="g14-0"
         inkscape:label="side3"
         transform="matrix(-1.00087,0,0,-1,128.603,195.76355)"
         style="display:inline;stroke:#ffffff;stroke-width:7.93405;stroke-dasharray:none;stroke-opacity:0;paint-order:stroke fill markers"><path
           style="display:inline;fill:url(#linearGradient532);stroke:#ffffff;stroke-width:7.93405;stroke-linecap:round;stroke-linejoin:round;stroke-dasharray:none;stroke-opacity:0;paint-order:stroke fill markers"
           d="m 65.397785,68.164551 c -2.694157,-8.794572 -4.877001,-14.062184 -9.452634,-21.461734 11.1954,0.643327 22.208588,8.254235 29.78318,17.420045 -5.967503,-0.119776 -16.1292,2.019994 -20.330546,4.041689 z"
           id="path11-6"
           sodipodi:nodetypes="cccc" /><path
           style="display:inline;opacity:1;fill:url(#linearGradient556);stroke:#ffffff;stroke-width:7.93405;stroke-linecap:round;stroke-linejoin:round;stroke-dasharray:none;stroke-opacity:0;paint-order:stroke fill markers"
           d="m 59.926364,79.699968 c 1.12397,-2.067159 3.423337,-4.918057 6.032231,-7.662564 5.976346,-2.616359 13.635849,-3.566098 20.315815,-4.133331 -1.19157,2.796859 -2.888722,6.722114 -4.440398,9.64946 -7.140954,-0.496098 -15.092257,0.737198 -21.907648,2.146435 z"
           id="path12-2"
           sodipodi:nodetypes="ccccc" /><path
           style="fill:#141414;fill-opacity:1;stroke:#ffffff;stroke-width:7.93405;stroke-linecap:round;stroke-linejoin:round;stroke-dasharray:none;stroke-opacity:0;paint-order:stroke fill markers"
           d="m 70.791337,84.6222 c 2.982367,2.158733 4.884739,3.513079 7.174542,5.067442 -2.158437,1.23545 -4.394044,2.371681 -6.905258,3.607131 l -2.999094,-2.176568 z"
           id="path13-6"
           sodipodi:nodetypes="ccccc" /><path
           style="fill:url(#linearGradient570);stroke:#ffffff;stroke-width:7.93405;stroke-linecap:round;stroke-linejoin:round;stroke-dasharray:none;stroke-opacity:0;paint-order:stroke fill markers"
           d="m 59.611128,83.979426 c 2.611446,-0.576857 5.472343,-1.09135 8.582692,-1.543481 -0.697453,1.822861 -1.221197,3.475282 -3.180508,7.577091 l -2.595855,0.02339 c -1.028988,-1.870891 -1.902067,-3.874299 -2.806329,-6.057 z"
           id="path14-1"
           sodipodi:nodetypes="ccccc" /></g><g
         id="g14-02"
         inkscape:label="side4"
         transform="rotate(-90,64.137411,97.860068)"
         style="display:inline;stroke:#ffffff;stroke-width:7.9375;stroke-dasharray:none;stroke-opacity:0;paint-order:stroke fill markers"><path
           style="display:inline;fill:url(#linearGradient530);stroke:#ffffff;stroke-width:7.9375;stroke-linecap:round;stroke-linejoin:round;stroke-dasharray:none;stroke-opacity:0;paint-order:stroke fill markers"
           d="m 65.397785,68.164551 c -2.694157,-8.794572 -4.877001,-14.062184 -9.452634,-21.461734 11.1954,0.643327 22.208588,8.254235 29.78318,17.420045 -5.967503,-0.119776 -16.1292,2.019994 -20.330546,4.041689 z"
           id="path11-3"
           sodipodi:nodetypes="cccc" /><path
           style="display:inline;opacity:1;fill:url(#linearGradient554);stroke:#ffffff;stroke-width:7.9375;stroke-linecap:round;stroke-linejoin:round;stroke-dasharray:none;stroke-opacity:0;paint-order:stroke fill markers"
           d="m 59.926364,79.699968 c 1.12397,-2.067159 3.423337,-4.918057 6.032231,-7.662564 5.976346,-2.616359 13.635849,-3.566098 20.315815,-4.133331 -1.19157,2.796859 -2.888722,6.722114 -4.440398,9.64946 -7.140954,-0.496098 -15.092257,0.737198 -21.907648,2.146435 z"
           id="path12-7"
           sodipodi:nodetypes="ccccc" /><path
           style="fill:#141414;fill-opacity:1;stroke:#ffffff;stroke-width:7.9375;stroke-linecap:round;stroke-linejoin:round;stroke-dasharray:none;stroke-opacity:0;paint-order:stroke fill markers"
           d="m 70.791337,84.6222 c 2.982367,2.158733 4.884739,3.513079 7.174542,5.067442 -2.158437,1.23545 -4.394044,2.371681 -6.905258,3.607131 l -2.999094,-2.176568 z"
           id="path13-5"
           sodipodi:nodetypes="ccccc" /><path
           style="fill:url(#linearGradient572);stroke:#ffffff;stroke-width:7.9375;stroke-linecap:round;stroke-linejoin:round;stroke-dasharray:none;stroke-opacity:0;paint-order:stroke fill markers"
           d="m 59.611128,83.979426 c 2.611446,-0.576857 5.472343,-1.09135 8.582692,-1.543481 -0.697453,1.822861 -1.221197,3.475282 -3.180508,7.577091 l -2.595855,0.02339 c -1.028988,-1.870891 -1.902067,-3.874299 -2.806329,-6.057 z"
           id="path14-9"
           sodipodi:nodetypes="ccccc" /></g><g
         id="g11-2-7"
         inkscape:label="side2.5"
         style="display:inline;stroke:#ffffff;stroke-width:7.9375;stroke-dasharray:none;stroke-opacity:0;paint-order:stroke fill markers"
         transform="rotate(135,64.193006,97.805117)"><path
           style="display:inline;fill:url(#linearGradient534);stroke:#ffffff;stroke-width:7.9375;stroke-linecap:round;stroke-linejoin:round;stroke-dasharray:none;stroke-opacity:0;paint-order:stroke fill markers"
           d="m 65.397785,68.164551 c -2.694157,-8.794572 -4.877001,-14.062184 -9.452634,-21.461734 11.1954,0.643327 22.208588,8.254235 29.78318,17.420045 -5.967503,-0.119776 -16.1292,2.019994 -20.330546,4.041689 z"
           id="path3-9-3"
           sodipodi:nodetypes="cccc" /><path
           style="display:inline;opacity:1;fill:url(#linearGradient552);stroke:#ffffff;stroke-width:7.9375;stroke-linecap:round;stroke-linejoin:round;stroke-dasharray:none;stroke-opacity:0;paint-order:stroke fill markers"
           d="m 59.926364,79.699968 c 1.12397,-2.067159 3.423337,-4.918057 6.032231,-7.662564 5.976346,-2.616359 13.635849,-3.566098 20.315815,-4.133331 -1.19157,2.796859 -2.888722,6.722114 -4.440398,9.64946 -7.140954,-0.496098 -15.092257,0.737198 -21.907648,2.146435 z"
           id="path4-1-6"
           sodipodi:nodetypes="ccccc" /></g><g
         id="g11-2-1"
         inkscape:label="side3.5"
         style="display:inline;stroke:#ffffff;stroke-width:7.9375;stroke-dasharray:none;stroke-opacity:0;paint-order:stroke fill markers"
         transform="rotate(-135,64.182688,97.770766)"><path
           style="display:inline;fill:url(#linearGradient536);stroke:#ffffff;stroke-width:7.9375;stroke-linecap:round;stroke-linejoin:round;stroke-dasharray:none;stroke-opacity:0;paint-order:stroke fill markers"
           d="m 65.397785,68.164551 c -2.694157,-8.794572 -4.877001,-14.062184 -9.452634,-21.461734 11.1954,0.643327 22.208588,8.254235 29.78318,17.420045 -5.967503,-0.119776 -16.1292,2.019994 -20.330546,4.041689 z"
           id="path3-9-9"
           sodipodi:nodetypes="cccc" /><path
           style="display:inline;opacity:1;fill:url(#linearGradient550);stroke:#ffffff;stroke-width:7.9375;stroke-linecap:round;stroke-linejoin:round;stroke-dasharray:none;stroke-opacity:0;paint-order:stroke fill markers"
           d="m 59.926364,79.699968 c 1.12397,-2.067159 3.423337,-4.918057 6.032231,-7.662564 5.976346,-2.616359 13.635849,-3.566098 20.315815,-4.133331 -1.19157,2.796859 -2.888722,6.722114 -4.440398,9.64946 -7.140954,-0.496098 -15.092257,0.737198 -21.907648,2.146435 z"
           id="path4-1-4"
           sodipodi:nodetypes="ccccc" /></g><g
         id="g11-2-0"
         inkscape:label="side4.5"
         style="display:inline;stroke:#ffffff;stroke-width:7.9375;stroke-dasharray:none;stroke-opacity:0;paint-order:stroke fill markers"
         transform="rotate(-45,64.399062,97.809408)"><path
           style="display:inline;fill:url(#linearGradient528);fill-rule:nonzero;stroke:#ffffff;stroke-width:7.9375;stroke-linecap:round;stroke-linejoin:round;stroke-dasharray:none;stroke-opacity:0;paint-order:stroke fill markers"
           d="m 65.397785,68.164551 c -2.694157,-8.794572 -4.877001,-14.062184 -9.452634,-21.461734 11.1954,0.643327 22.208588,8.254235 29.78318,17.420045 -5.967503,-0.119776 -16.1292,2.019994 -20.330546,4.041689 z"
           id="path3-9-36"
           sodipodi:nodetypes="cccc" /><path
           style="display:inline;opacity:1;fill:url(#linearGradient548);stroke:#ffffff;stroke-width:7.9375;stroke-linecap:round;stroke-linejoin:round;stroke-dasharray:none;stroke-opacity:0;paint-order:stroke fill markers"
           d="m 59.926364,79.699968 c 1.12397,-2.067159 3.423337,-4.918057 6.032231,-7.662564 5.976346,-2.616359 13.635849,-3.566098 20.315815,-4.133331 -1.19157,2.796859 -2.888722,6.722114 -4.440398,9.64946 -7.140954,-0.496098 -15.092257,0.737198 -21.907648,2.146435 z"
           id="path4-1-1"
           sodipodi:nodetypes="ccccc" /></g><circle
         style="display:inline;fill:#24ff7d;fill-opacity:1;stroke:#000000;stroke-width:5.12182;stroke-linecap:round;stroke-linejoin:round;stroke-dasharray:none;stroke-opacity:1;paint-order:stroke fill markers"
         id="path5"
         cx="64.151154"
         cy="97.522705"
         r="4.3932776"
         inkscape:label="circle" /></g></g></svg>
